<svg xmlns="http://www.w3.org/2000/svg" xmlns:xlink="http://www.w3.org/1999/xlink" width="500" zoomAndPan="magnify" viewBox="0 0 375 374.999991" height="500" preserveAspectRatio="xMidYMid meet" version="1.0"><defs><clipPath id="d18f1b0d3a"><path d="M 138 37.5 L 367.5 37.5 L 367.5 270 L 138 270 Z M 138 37.5 " clip-rule="nonzero"/></clipPath></defs><path fill="#3f444b" d="M 50 338.820312 C 49.496094 338.820312 48.992188 338.726562 48.503906 338.523438 C 47.046875 337.921875 46.09375 336.496094 46.09375 334.914062 L 46.09375 288.652344 L 34.167969 288.652344 C 15.328125 288.652344 0 273.324219 0 254.480469 L 0 104.132812 C 0 85.292969 15.328125 69.960938 34.167969 69.960938 L 233.347656 69.960938 C 252.1875 69.960938 267.519531 85.289062 267.519531 104.132812 L 267.519531 254.480469 C 267.519531 273.320312 252.1875 288.652344 233.347656 288.652344 L 101.789062 288.652344 L 52.765625 337.679688 C 52.015625 338.425781 51.019531 338.820312 50 338.820312 Z M 34.167969 77.777344 C 19.632812 77.777344 7.8125 89.597656 7.8125 104.132812 L 7.8125 254.480469 C 7.8125 269.015625 19.632812 280.839844 34.167969 280.839844 L 50 280.839844 C 52.15625 280.839844 53.90625 282.585938 53.90625 284.746094 L 53.90625 325.484375 L 97.410156 281.980469 C 98.144531 281.25 99.140625 280.839844 100.175781 280.839844 L 233.347656 280.839844 C 247.882812 280.839844 259.703125 269.015625 259.703125 254.480469 L 259.703125 104.132812 C 259.703125 89.597656 247.882812 77.777344 233.347656 77.777344 Z M 34.167969 77.777344 " fill-opacity="1" fill-rule="nonzero"/><g clip-path="url(#d18f1b0d3a)"><path fill="#3f444b" d="M 324.195312 269.945312 C 323.179688 269.945312 322.183594 269.550781 321.433594 268.800781 L 279.40625 226.777344 L 267.882812 226.777344 C 265.726562 226.777344 263.976562 225.027344 263.976562 222.867188 C 263.976562 220.710938 265.722656 218.960938 267.882812 218.960938 L 281.019531 218.960938 C 282.058594 218.960938 283.050781 219.375 283.785156 220.105469 L 320.289062 256.605469 L 320.289062 222.867188 C 320.289062 220.707031 322.035156 218.957031 324.195312 218.957031 L 337.554688 218.957031 C 349.761719 218.957031 359.6875 209.03125 359.6875 196.824219 L 359.6875 67.457031 C 359.6875 55.25 349.757812 45.320312 337.554688 45.320312 L 168.269531 45.320312 C 156.066406 45.320312 146.140625 55.25 146.140625 67.457031 L 146.140625 72.308594 C 146.140625 74.464844 144.394531 76.214844 142.234375 76.214844 C 140.074219 76.214844 138.328125 74.46875 138.328125 72.308594 L 138.328125 67.457031 C 138.328125 50.945312 151.761719 37.511719 168.269531 37.511719 L 337.554688 37.511719 C 354.066406 37.511719 367.5 50.945312 367.5 67.457031 L 367.5 196.828125 C 367.5 213.339844 354.066406 226.773438 337.554688 226.773438 L 328.101562 226.773438 L 328.101562 266.035156 C 328.101562 267.617188 327.152344 269.042969 325.691406 269.644531 C 325.207031 269.847656 324.699219 269.941406 324.195312 269.941406 Z M 324.195312 269.945312 " fill-opacity="1" fill-rule="nonzero"/></g><path fill="#3f444b" d="M 131.5 187.320312 L 115.578125 187.320312 C 113.421875 187.320312 111.671875 185.570312 111.671875 183.410156 C 111.671875 181.253906 113.417969 179.503906 115.578125 179.503906 L 131.5 179.503906 C 133.65625 179.503906 135.40625 181.253906 135.40625 183.410156 C 135.40625 185.570312 133.660156 187.320312 131.5 187.320312 Z M 131.5 187.320312 " fill-opacity="1" fill-rule="nonzero"/><path fill="#3f444b" d="M 109.550781 206.171875 C 109.191406 206.171875 108.828125 206.121094 108.46875 206.015625 C 106.394531 205.417969 105.199219 203.253906 105.796875 201.179688 L 119.785156 152.644531 C 120.382812 150.570312 122.554688 149.375 124.621094 149.972656 C 126.695312 150.570312 127.890625 152.734375 127.292969 154.804688 L 113.304688 203.34375 C 112.8125 205.054688 111.246094 206.167969 109.550781 206.167969 Z M 109.550781 206.171875 " fill-opacity="1" fill-rule="nonzero"/><path fill="#3f444b" d="M 137.523438 206.171875 C 135.828125 206.171875 134.265625 205.054688 133.773438 203.347656 L 119.78125 154.808594 C 119.183594 152.734375 120.378906 150.570312 122.453125 149.976562 C 124.515625 149.375 126.691406 150.574219 127.289062 152.648438 L 141.28125 201.183594 C 141.878906 203.257812 140.679688 205.421875 138.605469 206.019531 C 138.246094 206.125 137.882812 206.171875 137.523438 206.171875 Z M 137.523438 206.171875 " fill-opacity="1" fill-rule="nonzero"/><path fill="#3f444b" d="M 151.09375 206.171875 C 148.9375 206.171875 147.183594 204.421875 147.183594 202.261719 L 147.183594 153.726562 C 147.183594 151.570312 148.933594 149.820312 151.09375 149.820312 C 153.25 149.820312 155 151.566406 155 153.726562 L 155 202.261719 C 155 204.417969 153.25 206.171875 151.09375 206.171875 Z M 151.09375 206.171875 " fill-opacity="1" fill-rule="nonzero"/><path fill="#3f444b" d="M 173.816406 236.898438 L 93.695312 236.898438 C 83.308594 236.898438 74.855469 228.445312 74.855469 218.058594 L 74.855469 137.9375 C 74.855469 127.546875 83.308594 119.09375 93.695312 119.09375 L 173.816406 119.09375 C 184.207031 119.09375 192.660156 127.546875 192.660156 137.9375 L 192.660156 218.058594 C 192.660156 228.445312 184.207031 236.898438 173.816406 236.898438 Z M 93.695312 126.90625 C 87.617188 126.90625 82.667969 131.855469 82.667969 137.9375 L 82.667969 218.058594 C 82.667969 224.136719 87.617188 229.085938 93.695312 229.085938 L 173.816406 229.085938 C 179.898438 229.085938 184.847656 224.136719 184.847656 218.058594 L 184.847656 137.9375 C 184.847656 131.855469 179.898438 126.90625 173.816406 126.90625 Z M 93.695312 126.90625 " fill-opacity="1" fill-rule="nonzero"/><path fill="#3f444b" d="M 325.132812 140.429688 L 263.945312 140.429688 C 261.789062 140.429688 260.035156 138.683594 260.035156 136.523438 C 260.035156 134.363281 261.785156 132.617188 263.945312 132.617188 L 325.132812 132.617188 C 327.289062 132.617188 329.039062 134.363281 329.039062 136.523438 C 329.039062 138.683594 327.289062 140.429688 325.132812 140.429688 Z M 325.132812 140.429688 " fill-opacity="1" fill-rule="nonzero"/><path fill="#3f444b" d="M 325.132812 98.957031 L 262.976562 98.957031 C 260.820312 98.957031 259.070312 97.207031 259.070312 95.046875 C 259.070312 92.890625 260.820312 91.140625 262.976562 91.140625 L 325.132812 91.140625 C 327.289062 91.140625 329.039062 92.890625 329.039062 95.046875 C 329.039062 97.207031 327.289062 98.957031 325.132812 98.957031 Z M 325.132812 98.957031 " fill-opacity="1" fill-rule="nonzero"/><path fill="#3f444b" d="M 324.691406 181.902344 L 264.382812 181.902344 C 262.226562 181.902344 260.476562 180.15625 260.476562 177.996094 C 260.476562 175.835938 262.226562 174.089844 264.382812 174.089844 L 324.691406 174.089844 C 326.847656 174.089844 328.597656 175.835938 328.597656 177.996094 C 328.597656 180.15625 326.851562 181.902344 324.691406 181.902344 Z M 324.691406 181.902344 " fill-opacity="1" fill-rule="nonzero"/></svg>