<svg xmlns="http://www.w3.org/2000/svg" xmlns:xlink="http://www.w3.org/1999/xlink" width="60" zoomAndPan="magnify" viewBox="0 0 375 374.999991" height="60" preserveAspectRatio="xMidYMid meet" version="1.0"><defs><clipPath id="330fde1c29"><path d="M 299 145 L 337.21875 145 L 337.21875 154 L 299 154 Z M 299 145 " clip-rule="nonzero"/></clipPath><clipPath id="b309734510"><path d="M 37.96875 145 L 77 145 L 77 154 L 37.96875 154 Z M 37.96875 145 " clip-rule="nonzero"/></clipPath></defs><path fill="#3f444b" d="M 117.828125 237.304688 C 131.351562 249.722656 139.105469 267.566406 139.105469 286.261719 L 139.105469 335.949219 C 139.105469 346.507812 147.699219 355.101562 158.257812 355.101562 L 183.894531 355.101562 L 183.894531 371.136719 C 183.894531 373.257812 185.613281 374.976562 187.734375 374.976562 C 189.855469 374.976562 191.574219 373.257812 191.574219 371.136719 L 191.574219 355.101562 L 217.210938 355.101562 C 227.769531 355.101562 236.363281 346.507812 236.363281 335.949219 L 236.363281 286.1875 C 236.363281 267.722656 244.316406 249.722656 258.1875 236.800781 C 279.84375 216.621094 291.832031 188.058594 291.066406 158.433594 C 290.378906 131.609375 279.398438 106.421875 260.152344 87.503906 C 240.910156 68.589844 215.53125 58.039062 188.699219 57.792969 C 188.371094 57.792969 188.050781 57.789062 187.726562 57.789062 C 160.289062 57.789062 134.484375 68.402344 114.976562 87.730469 C 95.234375 107.292969 84.367188 133.371094 84.367188 161.160156 C 84.367188 190.023438 96.5625 217.777344 117.828125 237.304688 Z M 228.683594 303.628906 L 176.394531 303.628906 C 174.273438 303.628906 172.554688 305.347656 172.554688 307.46875 C 172.554688 309.589844 174.273438 311.308594 176.394531 311.308594 L 228.683594 311.308594 L 228.683594 325.523438 L 216.207031 325.523438 C 214.085938 325.523438 212.367188 327.242188 212.367188 329.363281 C 212.367188 331.484375 214.085938 333.203125 216.207031 333.203125 L 228.683594 333.203125 L 228.683594 335.949219 C 228.683594 342.273438 223.535156 347.421875 217.210938 347.421875 L 158.257812 347.421875 C 151.933594 347.421875 146.785156 342.273438 146.785156 335.949219 L 146.785156 333.203125 L 200.355469 333.203125 C 202.476562 333.203125 204.195312 331.484375 204.195312 329.363281 C 204.195312 327.242188 202.476562 325.523438 200.355469 325.523438 L 146.785156 325.523438 L 146.785156 311.308594 L 160.546875 311.308594 C 162.664062 311.308594 164.386719 309.589844 164.386719 307.46875 C 164.386719 305.347656 162.664062 303.628906 160.546875 303.628906 L 146.785156 303.628906 L 146.785156 290.101562 L 228.683594 290.101562 Z M 120.382812 93.1875 C 138.441406 75.292969 162.328125 65.472656 187.730469 65.472656 C 188.027344 65.472656 188.328125 65.472656 188.628906 65.476562 C 213.464844 65.703125 236.953125 75.46875 254.769531 92.984375 C 272.585938 110.496094 282.75 133.8125 283.390625 158.632812 C 284.097656 186.058594 273.003906 212.503906 252.953125 231.179688 C 238.488281 244.65625 229.808594 263.132812 228.785156 282.421875 L 146.6875 282.421875 C 145.695312 262.992188 137.195312 244.664062 123.023438 231.648438 C 103.335938 213.570312 92.046875 187.878906 92.046875 161.160156 C 92.046875 135.433594 102.109375 111.292969 120.382812 93.1875 Z M 120.382812 93.1875 " fill-opacity="1" fill-rule="nonzero"/><path fill="#3f444b" d="M 191.371094 38.328125 C 193.492188 38.328125 195.210938 36.609375 195.210938 34.488281 L 195.210938 3.863281 C 195.210938 1.742188 193.492188 0.0234375 191.371094 0.0234375 C 189.25 0.0234375 187.53125 1.742188 187.53125 3.863281 L 187.53125 34.488281 C 187.53125 36.609375 189.25 38.328125 191.371094 38.328125 Z M 191.371094 38.328125 " fill-opacity="1" fill-rule="nonzero"/><g clip-path="url(#330fde1c29)"><path fill="#3f444b" d="M 303.035156 153.628906 L 333.660156 153.628906 C 335.78125 153.628906 337.5 151.910156 337.5 149.789062 C 337.5 147.667969 335.78125 145.949219 333.660156 145.949219 L 303.035156 145.949219 C 300.914062 145.949219 299.195312 147.667969 299.195312 149.789062 C 299.195312 151.910156 300.914062 153.628906 303.035156 153.628906 Z M 303.035156 153.628906 " fill-opacity="1" fill-rule="nonzero"/></g><g clip-path="url(#b309734510)"><path fill="#3f444b" d="M 41.808594 153.628906 L 72.433594 153.628906 C 74.554688 153.628906 76.273438 151.910156 76.273438 149.789062 C 76.273438 147.667969 74.554688 145.949219 72.433594 145.949219 L 41.808594 145.949219 C 39.6875 145.949219 37.96875 147.667969 37.96875 149.789062 C 37.96875 151.910156 39.6875 153.628906 41.808594 153.628906 Z M 41.808594 153.628906 " fill-opacity="1" fill-rule="nonzero"/></g><path fill="#3f444b" d="M 271.507812 69.855469 C 272.488281 69.855469 273.472656 69.480469 274.222656 68.730469 L 298.121094 44.835938 C 299.621094 43.335938 299.621094 40.902344 298.121094 39.402344 C 296.621094 37.90625 294.1875 37.90625 292.6875 39.402344 L 268.792969 63.300781 C 267.292969 64.800781 267.292969 67.234375 268.792969 68.730469 C 269.542969 69.480469 270.523438 69.855469 271.507812 69.855469 Z M 271.507812 69.855469 " fill-opacity="1" fill-rule="nonzero"/><path fill="#3f444b" d="M 101.246094 68.730469 C 101.996094 69.480469 102.980469 69.855469 103.960938 69.855469 C 104.945312 69.855469 105.929688 69.480469 106.679688 68.730469 C 108.179688 67.230469 108.179688 64.800781 106.679688 63.300781 L 82.78125 39.402344 C 81.28125 37.902344 78.851562 37.902344 77.351562 39.402344 C 75.851562 40.902344 75.851562 43.335938 77.351562 44.835938 Z M 101.246094 68.730469 " fill-opacity="1" fill-rule="nonzero"/><path fill="#3f444b" d="M 181.347656 225.28125 C 183.523438 225.492188 185.695312 225.601562 187.851562 225.601562 C 202.851562 225.601562 217.269531 220.464844 229.015625 210.824219 C 242.457031 199.796875 250.796875 184.195312 252.503906 166.894531 C 254.210938 149.59375 249.078125 132.664062 238.050781 119.226562 C 227.023438 105.785156 211.421875 97.445312 194.121094 95.738281 C 176.820312 94.035156 159.890625 99.167969 146.453125 110.191406 C 133.011719 121.21875 124.671875 136.820312 122.964844 154.121094 C 121.257812 171.421875 126.390625 188.351562 137.417969 201.792969 C 148.445312 215.230469 164.046875 223.574219 181.347656 225.28125 Z M 130.609375 154.875 C 132.113281 139.617188 139.46875 125.855469 151.324219 116.132812 C 161.6875 107.628906 174.398438 103.101562 187.628906 103.101562 C 189.53125 103.101562 191.449219 103.195312 193.367188 103.382812 C 208.628906 104.886719 222.386719 112.246094 232.113281 124.097656 C 241.839844 135.953125 246.367188 150.882812 244.859375 166.144531 C 243.355469 181.402344 236 195.164062 224.144531 204.886719 C 212.292969 214.613281 197.359375 219.140625 182.101562 217.636719 C 166.839844 216.132812 153.082031 208.773438 143.355469 196.921875 C 133.628906 185.066406 129.101562 170.136719 130.609375 154.875 Z M 130.609375 154.875 " fill-opacity="1" fill-rule="nonzero"/><path fill="#3f444b" d="M 165.511719 182.230469 C 167.03125 182.230469 168.207031 181.746094 168.554688 180.433594 L 171.179688 171.238281 L 187.007812 171.238281 L 189.632812 180.433594 C 189.980469 181.746094 191.15625 182.230469 192.675781 182.230469 C 195.09375 182.230469 198.34375 180.640625 198.34375 178.496094 C 198.34375 178.289062 198.273438 178.082031 198.203125 177.808594 L 184.863281 134.332031 C 184.242188 132.257812 181.683594 131.289062 179.058594 131.289062 C 176.5 131.289062 173.945312 132.257812 173.320312 134.332031 L 159.980469 177.808594 C 159.910156 178.082031 159.84375 178.359375 159.84375 178.496094 C 159.84375 180.710938 163.089844 182.230469 165.511719 182.230469 Z M 179.058594 142.96875 L 185.074219 164.191406 L 173.046875 164.191406 Z M 179.058594 142.96875 " fill-opacity="1" fill-rule="nonzero"/><path fill="#3f444b" d="M 207.605469 182.230469 C 209.820312 182.230469 212.101562 181.261719 212.101562 179.398438 L 212.101562 134.46875 C 212.101562 132.53125 209.820312 131.703125 207.605469 131.703125 C 205.324219 131.703125 203.113281 132.53125 203.113281 134.46875 L 203.113281 179.398438 C 203.113281 181.261719 205.324219 182.230469 207.605469 182.230469 Z M 207.605469 182.230469 " fill-opacity="1" fill-rule="nonzero"/></svg>