<svg xmlns="http://www.w3.org/2000/svg" xmlns:xlink="http://www.w3.org/1999/xlink" width="60" zoomAndPan="magnify" viewBox="0 0 375 374.999991" height="60" preserveAspectRatio="xMidYMid meet" version="1.0"><defs><clipPath id="167819acaf"><path d="M 92.707031 92.40625 L 169.207031 92.40625 L 169.207031 168.90625 L 92.707031 168.90625 Z M 92.707031 92.40625 " clip-rule="nonzero"/></clipPath><clipPath id="2b1a75c304"><path d="M 134 92.40625 L 169.207031 92.40625 L 169.207031 168.90625 L 134 168.90625 Z M 134 92.40625 " clip-rule="nonzero"/></clipPath><clipPath id="6991f17506"><path d="M 92.707031 92.40625 L 169.207031 92.40625 L 169.207031 168.90625 L 92.707031 168.90625 Z M 92.707031 92.40625 " clip-rule="nonzero"/></clipPath></defs><path fill="#3f444b" d="M 129.765625 244.484375 C 193.121094 244.484375 244.484375 193.121094 244.484375 129.765625 C 244.484375 66.40625 193.121094 15.046875 129.765625 15.046875 C 66.40625 15.046875 15.046875 66.40625 15.046875 129.765625 C 15.046875 193.121094 66.40625 244.484375 129.765625 244.484375 Z M 226.6875 216.050781 L 372.042969 361.40625 C 374.980469 364.34375 374.980469 369.105469 372.042969 372.042969 C 369.105469 374.980469 364.34375 374.980469 361.40625 372.042969 L 216.050781 226.6875 C 193.117188 247.117188 162.890625 259.527344 129.765625 259.527344 C 58.097656 259.527344 0 201.429688 0 129.765625 C 0 58.097656 58.097656 0 129.765625 0 C 201.429688 0 259.527344 58.097656 259.527344 129.765625 C 259.527344 162.890625 247.117188 193.117188 226.6875 216.050781 Z M 226.6875 216.050781 " fill-opacity="1" fill-rule="nonzero"/><g clip-path="url(#167819acaf)"><path fill="#3f444b" d="M 46.035156 291.019531 C 45.53125 291.019531 45.023438 290.921875 44.539062 290.722656 C 43.078125 290.117188 42.128906 288.695312 42.128906 287.113281 L 42.128906 240.847656 L 30.199219 240.847656 C 11.359375 240.847656 -3.964844 225.523438 -3.964844 206.679688 L -3.964844 56.328125 C -3.964844 37.488281 11.359375 22.160156 30.199219 22.160156 L 229.382812 22.160156 C 248.222656 22.160156 263.550781 37.488281 263.550781 56.328125 L 263.550781 206.679688 C 263.550781 225.519531 248.222656 240.847656 229.382812 240.847656 L 97.824219 240.847656 L 48.796875 289.875 C 48.050781 290.625 47.054688 291.019531 46.035156 291.019531 Z M 30.199219 29.972656 C 15.667969 29.972656 3.84375 41.796875 3.84375 56.328125 L 3.84375 206.679688 C 3.84375 221.214844 15.667969 233.035156 30.199219 233.035156 L 46.035156 233.035156 C 48.191406 233.035156 49.941406 234.785156 49.941406 236.941406 L 49.941406 277.683594 L 93.445312 234.179688 C 94.175781 233.445312 95.171875 233.035156 96.207031 233.035156 L 229.382812 233.035156 C 243.914062 233.035156 255.738281 221.214844 255.738281 206.679688 L 255.738281 56.328125 C 255.738281 41.796875 243.914062 29.972656 229.382812 29.972656 Z M 30.199219 29.972656 " fill-opacity="1" fill-rule="nonzero"/></g><g clip-path="url(#2b1a75c304)"><path fill="#3f444b" d="M 320.230469 222.144531 C 319.214844 222.144531 318.214844 221.746094 317.464844 221 L 275.4375 178.972656 L 263.917969 178.972656 C 261.761719 178.972656 260.007812 177.226562 260.007812 175.066406 C 260.007812 172.90625 261.757812 171.160156 263.917969 171.160156 L 277.054688 171.160156 C 278.089844 171.160156 279.085938 171.570312 279.816406 172.304688 L 316.320312 208.804688 L 316.320312 175.0625 C 316.320312 172.902344 318.070312 171.15625 320.230469 171.15625 L 333.589844 171.15625 C 345.792969 171.15625 355.71875 161.226562 355.71875 149.023438 L 355.71875 19.652344 C 355.71875 7.449219 345.789062 -2.480469 333.589844 -2.480469 L 164.304688 -2.480469 C 152.101562 -2.480469 142.175781 7.449219 142.175781 19.652344 L 142.175781 24.503906 C 142.175781 26.660156 140.425781 28.414062 138.265625 28.414062 C 136.109375 28.414062 134.359375 26.664062 134.359375 24.503906 L 134.359375 19.652344 C 134.359375 3.140625 147.792969 -10.292969 164.304688 -10.292969 L 333.589844 -10.292969 C 350.101562 -10.292969 363.535156 3.140625 363.535156 19.652344 L 363.535156 149.027344 C 363.535156 165.535156 350.101562 178.96875 333.589844 178.96875 L 324.136719 178.96875 L 324.136719 218.234375 C 324.136719 219.816406 323.183594 221.238281 321.726562 221.84375 C 321.242188 222.042969 320.734375 222.140625 320.230469 222.140625 Z M 320.230469 222.144531 " fill-opacity="1" fill-rule="nonzero"/></g><path fill="#3f444b" d="M 127.53125 139.515625 L 111.609375 139.515625 C 109.453125 139.515625 107.703125 137.769531 107.703125 135.609375 C 107.703125 133.449219 109.453125 131.703125 111.609375 131.703125 L 127.53125 131.703125 C 129.6875 131.703125 131.441406 133.449219 131.441406 135.609375 C 131.441406 137.769531 129.691406 139.515625 127.53125 139.515625 Z M 127.53125 139.515625 " fill-opacity="1" fill-rule="nonzero"/><path fill="#3f444b" d="M 105.585938 158.367188 C 105.226562 158.367188 104.863281 158.320312 104.503906 158.214844 C 102.429688 157.617188 101.234375 155.449219 101.832031 153.378906 L 115.816406 104.84375 C 116.417969 102.769531 118.585938 101.574219 120.652344 102.167969 C 122.726562 102.769531 123.921875 104.933594 123.324219 107.003906 L 109.339844 155.539062 C 108.84375 157.253906 107.28125 158.367188 105.585938 158.367188 Z M 105.585938 158.367188 " fill-opacity="1" fill-rule="nonzero"/><path fill="#3f444b" d="M 133.558594 158.367188 C 131.863281 158.367188 130.300781 157.253906 129.804688 155.542969 L 115.816406 107.007812 C 115.21875 104.933594 116.414062 102.769531 118.488281 102.171875 C 120.546875 101.574219 122.722656 102.769531 123.324219 104.84375 L 137.3125 153.382812 C 137.910156 155.457031 136.714844 157.621094 134.640625 158.214844 C 134.277344 158.320312 133.917969 158.371094 133.558594 158.371094 Z M 133.558594 158.367188 " fill-opacity="1" fill-rule="nonzero"/><path fill="#3f444b" d="M 147.125 158.367188 C 144.96875 158.367188 143.21875 156.621094 143.21875 154.460938 L 143.21875 105.925781 C 143.21875 103.769531 144.964844 102.019531 147.125 102.019531 C 149.285156 102.019531 151.03125 103.765625 151.03125 105.925781 L 151.03125 154.460938 C 151.03125 156.617188 149.285156 158.367188 147.125 158.367188 Z M 147.125 158.367188 " fill-opacity="1" fill-rule="nonzero"/><g clip-path="url(#6991f17506)"><path fill="#3f444b" d="M 169.851562 189.097656 L 89.730469 189.097656 C 79.339844 189.097656 70.886719 180.644531 70.886719 170.253906 L 70.886719 90.132812 C 70.886719 79.742188 79.339844 71.292969 89.730469 71.292969 L 169.851562 71.292969 C 180.242188 71.292969 188.695312 79.742188 188.695312 90.132812 L 188.695312 170.253906 C 188.695312 180.644531 180.242188 189.097656 169.851562 189.097656 Z M 89.730469 79.105469 C 83.648438 79.105469 78.703125 84.054688 78.703125 90.132812 L 78.703125 170.253906 C 78.703125 176.335938 83.648438 181.285156 89.730469 181.285156 L 169.851562 181.285156 C 175.933594 181.285156 180.878906 176.335938 180.878906 170.253906 L 180.878906 90.132812 C 180.878906 84.054688 175.933594 79.105469 169.851562 79.105469 Z M 89.730469 79.105469 " fill-opacity="1" fill-rule="nonzero"/></g></svg>