<svg xmlns="http://www.w3.org/2000/svg" width="95.29" height="32.6" viewBox="0 0 95.29 32.6"><defs><style>.cls-1{fill:#010101;}</style></defs><g id="Layer_2" data-name="Layer 2"><g id="Layer_1-2" data-name="Layer 1"><path class="cls-1" d="M22.17,17.32a7.37,7.37,0,0,1,3.52-6.2,7.61,7.61,0,0,0-6-3.23c-2.54-.26-5,1.49-6.24,1.49S10.21,7.92,8.11,8a8,8,0,0,0-6.75,4.08c-2.87,5-.73,12.37,2.07,16.42,1.38,2,3,4.21,5.15,4.12s2.85-1.33,5.34-1.33,3.2,1.33,5.38,1.29,3.63-2,5-4a17.89,17.89,0,0,0,2.25-4.64,7.18,7.18,0,0,1-4.37-6.59"/><path class="cls-1" d="M18.07,5.21A7.18,7.18,0,0,0,19.76,0,7.32,7.32,0,0,0,15,2.47a6.83,6.83,0,0,0-1.72,5,6,6,0,0,0,4.83-2.3M36.55,21.38,34.66,27.1H32.23L38.41,8.91h2.83l6.2,18.19H44.93L43,21.38Zm6-1.84-1.78-5.23c-.4-1.19-.67-2.27-.94-3.32h0c-.28,1.07-.57,2.18-.92,3.29L37,19.54Zm6.77-1.24c0-1.67-.05-3-.11-4.26H51.3l.11,2.24h.06a5.13,5.13,0,0,1,4.64-2.54c3.15,0,5.52,2.67,5.52,6.64,0,4.7-2.85,7-5.93,7a4.56,4.56,0,0,1-4-2.05h0v7.1H49.28Zm2.35,3.48a4.88,4.88,0,0,0,.11,1,3.66,3.66,0,0,0,3.56,2.78c2.51,0,4-2.05,4-5,0-2.62-1.38-4.86-3.89-4.86a3.81,3.81,0,0,0-3.59,2.95,3.79,3.79,0,0,0-.16,1v2.23ZM64.09,18.3c0-1.67,0-3-.11-4.26h2.13l.11,2.24h0a5.14,5.14,0,0,1,4.64-2.54c3.16,0,5.53,2.67,5.53,6.64,0,4.7-2.86,7-5.94,7a4.56,4.56,0,0,1-4-2.05h0v7.1H64.09Zm2.35,3.48a4.88,4.88,0,0,0,.11,1,3.66,3.66,0,0,0,3.56,2.78c2.51,0,4-2.05,4-5,0-2.62-1.38-4.86-3.89-4.86a3.79,3.79,0,0,0-3.59,2.95,3.79,3.79,0,0,0-.16,1v2.23ZM78.9,7.94h2.37V27.09H78.9ZM86,21c.06,3.21,2.11,4.53,4.48,4.53a8.53,8.53,0,0,0,3.61-.67l.41,1.7a10.56,10.56,0,0,1-4.34.81c-4,0-6.42-2.64-6.42-6.58s2.32-7,6.12-7c4.26,0,5.39,3.75,5.39,6.15A8.54,8.54,0,0,1,95.21,21Zm7-1.7c0-1.51-.62-3.86-3.29-3.86-2.4,0-3.45,2.22-3.64,3.86Z"/></g></g></svg>