<svg xmlns="http://www.w3.org/2000/svg" xmlns:xlink="http://www.w3.org/1999/xlink" width="300" zoomAndPan="magnify" viewBox="0 0 224.87999 95.249998" height="127" preserveAspectRatio="xMidYMid meet" version="1.0"><defs><filter x="0%" y="0%" width="100%" height="100%" id="eac4201776"><feColorMatrix values="0 0 0 0 1 0 0 0 0 1 0 0 0 0 1 0 0 0 1 0" color-interpolation-filters="sRGB"/></filter><clipPath id="7e4e8a8a86"><path d="M 0.820312 8 L 198 8 L 198 86 L 0.820312 86 Z M 0.820312 8 " clip-rule="nonzero"/></clipPath><mask id="9f55d1174e"><g filter="url(#eac4201776)"><rect x="-22.487999" width="269.855988" fill="#000000" y="-9.525" height="114.299998" fill-opacity="0.59"/></g></mask><clipPath id="8f5e58f0b2"><path d="M 192 0.875 L 197.292969 0.875 L 197.292969 6 L 192 6 Z M 192 0.875 " clip-rule="nonzero"/></clipPath><clipPath id="cff7358f81"><path d="M 102 73 L 114 73 L 114 76.777344 L 102 76.777344 Z M 102 73 " clip-rule="nonzero"/></clipPath><clipPath id="17f1c719ba"><path d="M 0.820312 2 L 196 2 L 196 18 L 0.820312 18 Z M 0.820312 2 " clip-rule="nonzero"/></clipPath><clipPath id="e7435f0f43"><path d="M 0.820312 12 L 95 12 L 95 28 L 0.820312 28 Z M 0.820312 12 " clip-rule="nonzero"/></clipPath><clipPath id="56563a82da"><path d="M 0.820312 37 L 159 37 L 159 60 L 0.820312 60 Z M 0.820312 37 " clip-rule="nonzero"/></clipPath><clipPath id="ff2fc1bc7d"><path d="M 0.820312 53 L 185 53 L 185 76 L 0.820312 76 Z M 0.820312 53 " clip-rule="nonzero"/></clipPath><clipPath id="907c2b7137"><path d="M 162 0.875 L 166 0.875 L 166 6 L 162 6 Z M 162 0.875 " clip-rule="nonzero"/></clipPath><clipPath id="3181da937f"><path d="M 166 0.875 L 169 0.875 L 169 6 L 166 6 Z M 166 0.875 " clip-rule="nonzero"/></clipPath><clipPath id="a65f9afcd9"><rect x="0" width="198" y="0" height="78"/></clipPath></defs><g clip-path="url(#7e4e8a8a86)"><g mask="url(#9f55d1174e)"><g transform="matrix(1, 0, 0, 1, 0.000000000000000111, 8)"><g clip-path="url(#a65f9afcd9)"><g clip-path="url(#8f5e58f0b2)"><path fill="#ffffff" d="M 197.25 3.328125 C 197.25 3.65625 197.1875 3.96875 197.0625 4.269531 C 196.9375 4.570312 196.761719 4.835938 196.53125 5.066406 C 196.300781 5.296875 196.035156 5.472656 195.734375 5.597656 C 195.433594 5.722656 195.121094 5.785156 194.796875 5.785156 C 194.46875 5.785156 194.15625 5.722656 193.855469 5.597656 C 193.554688 5.472656 193.289062 5.296875 193.058594 5.066406 C 192.828125 4.835938 192.652344 4.570312 192.527344 4.269531 C 192.402344 3.96875 192.339844 3.65625 192.339844 3.328125 C 192.339844 3.003906 192.402344 2.691406 192.527344 2.390625 C 192.652344 2.089844 192.828125 1.824219 193.058594 1.59375 C 193.289062 1.363281 193.554688 1.183594 193.855469 1.0625 C 194.15625 0.9375 194.46875 0.875 194.796875 0.875 C 195.121094 0.875 195.433594 0.9375 195.734375 1.0625 C 196.035156 1.183594 196.300781 1.363281 196.53125 1.59375 C 196.761719 1.824219 196.9375 2.089844 197.0625 2.390625 C 197.1875 2.691406 197.25 3.003906 197.25 3.328125 Z M 197.25 3.328125 " fill-opacity="1" fill-rule="nonzero"/></g><path fill="#ffffff" d="M 95.914062 13.316406 C 95.914062 13.640625 95.851562 13.953125 95.726562 14.253906 C 95.601562 14.554688 95.421875 14.820312 95.191406 15.050781 C 94.960938 15.28125 94.699219 15.460938 94.398438 15.585938 C 94.097656 15.707031 93.78125 15.769531 93.457031 15.769531 C 93.132812 15.769531 92.816406 15.707031 92.515625 15.585938 C 92.214844 15.460938 91.949219 15.28125 91.722656 15.050781 C 91.492188 14.820312 91.3125 14.554688 91.1875 14.253906 C 91.0625 13.953125 91 13.640625 91 13.316406 C 91 12.988281 91.0625 12.675781 91.1875 12.375 C 91.3125 12.074219 91.492188 11.808594 91.722656 11.578125 C 91.949219 11.347656 92.214844 11.171875 92.515625 11.046875 C 92.816406 10.921875 93.132812 10.859375 93.457031 10.859375 C 93.78125 10.859375 94.097656 10.921875 94.398438 11.046875 C 94.699219 11.171875 94.960938 11.347656 95.191406 11.578125 C 95.421875 11.808594 95.601562 12.074219 95.726562 12.375 C 95.851562 12.675781 95.914062 12.988281 95.914062 13.316406 Z M 95.914062 13.316406 " fill-opacity="1" fill-rule="nonzero"/><path fill="#ffffff" d="M 160.421875 58.613281 C 160.421875 58.9375 160.359375 59.25 160.234375 59.550781 C 160.109375 59.851562 159.933594 60.117188 159.703125 60.347656 C 159.472656 60.578125 159.207031 60.753906 158.90625 60.878906 C 158.605469 61.003906 158.292969 61.066406 157.96875 61.066406 C 157.640625 61.066406 157.328125 61.003906 157.027344 60.878906 C 156.726562 60.753906 156.460938 60.578125 156.230469 60.347656 C 156 60.117188 155.824219 59.851562 155.699219 59.550781 C 155.574219 59.25 155.511719 58.9375 155.511719 58.613281 C 155.511719 58.285156 155.574219 57.972656 155.699219 57.671875 C 155.824219 57.371094 156 57.105469 156.230469 56.875 C 156.460938 56.644531 156.726562 56.46875 157.027344 56.34375 C 157.328125 56.21875 157.640625 56.15625 157.96875 56.15625 C 158.292969 56.15625 158.605469 56.21875 158.90625 56.34375 C 159.207031 56.46875 159.472656 56.644531 159.703125 56.875 C 159.933594 57.105469 160.109375 57.371094 160.234375 57.671875 C 160.359375 57.972656 160.421875 58.285156 160.421875 58.613281 Z M 160.421875 58.613281 " fill-opacity="1" fill-rule="nonzero"/><path fill="#ffffff" d="M 185.804688 68.667969 C 185.804688 68.996094 185.742188 69.308594 185.617188 69.609375 C 185.492188 69.910156 185.316406 70.175781 185.085938 70.40625 C 184.855469 70.636719 184.589844 70.8125 184.289062 70.9375 C 183.988281 71.0625 183.675781 71.125 183.347656 71.125 C 183.023438 71.125 182.710938 71.0625 182.410156 70.9375 C 182.109375 70.8125 181.84375 70.636719 181.613281 70.40625 C 181.382812 70.175781 181.207031 69.910156 181.082031 69.609375 C 180.957031 69.308594 180.894531 68.996094 180.894531 68.667969 C 180.894531 68.34375 180.957031 68.03125 181.082031 67.730469 C 181.207031 67.429688 181.382812 67.164062 181.613281 66.933594 C 181.84375 66.703125 182.109375 66.527344 182.410156 66.402344 C 182.710938 66.277344 183.023438 66.214844 183.347656 66.214844 C 183.675781 66.214844 183.988281 66.277344 184.289062 66.402344 C 184.589844 66.527344 184.855469 66.703125 185.085938 66.933594 C 185.316406 67.164062 185.492188 67.429688 185.617188 67.730469 C 185.742188 68.03125 185.804688 68.34375 185.804688 68.667969 Z M 185.804688 68.667969 " fill-opacity="1" fill-rule="nonzero"/><g clip-path="url(#cff7358f81)"><path fill="#ffffff" d="M 102.886719 73.273438 L 113.667969 73.273438 L 113.667969 77.054688 L 102.886719 77.054688 Z M 102.886719 73.273438 " fill-opacity="1" fill-rule="nonzero"/></g><g clip-path="url(#17f1c719ba)"><path fill="#ffffff" d="M -25.910156 16.839844 L -18.152344 16.648438 L -10.394531 16.484375 L -2.636719 16.328125 L 1.238281 16.257812 C 1.878906 16.246094 2.53125 16.234375 3.171875 16.234375 C 3.8125 16.234375 4.464844 16.234375 5.105469 16.234375 C 7.691406 16.257812 10.277344 16.246094 12.863281 16.246094 L 36.121094 16.246094 L 35.707031 16.421875 L 49.417969 2.710938 L 163.777344 2.710938 L 166.054688 2.699219 C 166.816406 2.699219 167.574219 2.722656 168.332031 2.734375 L 177.464844 2.914062 C 183.550781 3.03125 189.636719 3.164062 195.71875 3.316406 C 189.636719 3.460938 183.550781 3.601562 177.464844 3.71875 L 168.332031 3.898438 C 167.574219 3.910156 166.816406 3.933594 166.054688 3.933594 L 163.777344 3.921875 L 49.65625 3.921875 L 50.070312 3.746094 L 36.359375 17.457031 L 12.863281 17.457031 C 10.277344 17.457031 7.691406 17.441406 5.105469 17.46875 C 4.464844 17.46875 3.8125 17.480469 3.171875 17.46875 C 2.53125 17.46875 1.878906 17.457031 1.238281 17.441406 L -2.636719 17.371094 L -10.394531 17.21875 L -18.152344 17.050781 Z M -25.910156 16.839844 " fill-opacity="1" fill-rule="nonzero"/></g><g clip-path="url(#e7435f0f43)"><path fill="#ffffff" d="M -25.765625 26.539062 C -20.632812 26.292969 -15.496094 26.125 -10.359375 25.949219 L 35.847656 25.949219 L 35.433594 26.125 L 48.753906 12.804688 L 48.933594 12.628906 L 74.46875 12.628906 C 75.40625 12.628906 76.34375 12.628906 77.277344 12.617188 C 78.214844 12.605469 79.152344 12.652344 80.089844 12.6875 L 82.902344 12.78125 C 86.648438 12.914062 90.398438 13.054688 94.144531 13.222656 C 90.398438 13.386719 86.648438 13.527344 82.902344 13.660156 L 80.089844 13.753906 C 79.152344 13.777344 78.214844 13.835938 77.277344 13.824219 C 76.34375 13.8125 75.40625 13.8125 74.46875 13.8125 L 49.167969 13.8125 L 49.585938 13.636719 L 36.265625 26.957031 L 36.085938 27.132812 L -10.371094 27.132812 C -15.496094 26.957031 -20.632812 26.789062 -25.765625 26.539062 Z M -25.765625 26.539062 " fill-opacity="1" fill-rule="nonzero"/></g><g clip-path="url(#56563a82da)"><path fill="#ffffff" d="M -25.210938 44.308594 C -22.066406 44.214844 -18.921875 44.128906 -15.769531 44.046875 L -11.046875 43.929688 L -6.328125 43.820312 L -1.605469 43.714844 C -0.0273438 43.667969 1.535156 43.703125 3.113281 43.703125 L 50.296875 43.703125 L 49.878906 43.878906 L 56.546875 37.214844 L 56.722656 37.039062 L 94.417969 37.039062 L 115.410156 58.03125 L 114.996094 57.851562 L 125.753906 57.851562 C 127.542969 57.851562 129.335938 57.863281 131.125 57.839844 C 132.917969 57.804688 134.707031 57.875 136.5 57.910156 L 147.257812 58.160156 L 152.628906 58.292969 L 158.003906 58.433594 L 152.628906 58.578125 L 147.257812 58.707031 L 136.5 58.957031 C 134.707031 58.992188 132.917969 59.050781 131.125 59.027344 C 129.335938 59.015625 127.542969 59.027344 125.753906 59.015625 L 114.746094 59.015625 L 114.570312 58.835938 L 93.753906 38.023438 L 94.167969 38.199219 L 56.972656 38.199219 L 57.386719 38.023438 L 50.542969 44.867188 L 3.089844 44.867188 C 1.511719 44.867188 -0.0546875 44.902344 -1.628906 44.851562 L -6.351562 44.746094 L -11.070312 44.640625 L -15.792969 44.519531 C -18.921875 44.484375 -22.066406 44.402344 -25.210938 44.308594 Z M -25.210938 44.308594 " fill-opacity="1" fill-rule="nonzero"/></g><g clip-path="url(#ff2fc1bc7d)"><path fill="#ffffff" d="M -24.664062 53.75 C -20.890625 53.652344 -17.121094 53.558594 -13.347656 53.476562 L -2.035156 53.238281 L 0.789062 53.179688 C 1.726562 53.167969 2.675781 53.144531 3.613281 53.132812 C 4.550781 53.132812 5.496094 53.132812 6.433594 53.144531 L 66.058594 53.144531 L 66.238281 53.320312 L 87.882812 74.96875 L 87.46875 74.789062 L 125.207031 74.789062 L 124.792969 74.96875 L 131.730469 68.027344 L 131.910156 67.851562 L 151.621094 67.851562 L 154.859375 67.839844 C 155.9375 67.839844 157.019531 67.863281 158.097656 67.886719 L 171.074219 68.148438 L 177.5625 68.289062 L 184.050781 68.445312 L 177.5625 68.597656 L 171.074219 68.742188 L 158.097656 69 C 157.019531 69.027344 155.9375 69.050781 154.859375 69.050781 L 151.621094 69.039062 L 132.160156 69.039062 L 132.574219 68.859375 L 125.457031 75.976562 L 87.21875 75.976562 L 87.039062 75.796875 L 65.394531 54.164062 L 65.808594 54.34375 L 6.445312 54.34375 C 5.507812 54.355469 4.5625 54.355469 3.625 54.355469 C 2.6875 54.34375 1.738281 54.316406 0.800781 54.304688 L -2.023438 54.246094 L -13.335938 54.011719 C -17.121094 53.9375 -20.890625 53.84375 -24.664062 53.75 Z M -24.664062 53.75 " fill-opacity="1" fill-rule="nonzero"/></g><g clip-path="url(#907c2b7137)"><path fill="#ffffff" d="M 162.972656 0.886719 L 165.464844 0.886719 L 165.464844 5.996094 L 162.972656 5.996094 Z M 162.972656 0.886719 " fill-opacity="1" fill-rule="nonzero"/></g><g clip-path="url(#3181da937f)"><path fill="#ffffff" d="M 166.328125 0.886719 L 168.820312 0.886719 L 168.820312 5.996094 L 166.328125 5.996094 Z M 166.328125 0.886719 " fill-opacity="1" fill-rule="nonzero"/></g><path fill="#ffffff" d="M 69.640625 34.132812 L 72.132812 34.132812 L 72.132812 39.242188 L 69.640625 39.242188 Z M 69.640625 34.132812 " fill-opacity="1" fill-rule="nonzero"/><path fill="#ffffff" d="M 72.996094 34.132812 L 75.488281 34.132812 L 75.488281 39.242188 L 72.996094 39.242188 Z M 72.996094 34.132812 " fill-opacity="1" fill-rule="nonzero"/></g></g></g></g></svg>