<svg width="34" height="34" viewBox="0 0 34 34" fill="none" xmlns="http://www.w3.org/2000/svg">
<path d="M13.7519 11.7483C13.1987 11.195 12.3017 11.195 11.7484 11.7483C11.1952 12.3015 11.1952 13.1985 11.7484 13.7517L14.9967 17L11.7484 20.2483C11.1952 20.8015 11.1952 21.6985 11.7484 22.2517C12.3017 22.805 13.1987 22.805 13.7519 22.2517L17.0002 19.0035L20.2484 22.2517C20.8017 22.805 21.6987 22.805 22.2519 22.2517C22.8051 21.6985 22.8051 20.8015 22.2519 20.2483L19.0036 17L22.2519 13.7517C22.8051 13.1985 22.8051 12.3015 22.2519 11.7483C21.6987 11.195 20.8017 11.195 20.2484 11.7483L17.0002 14.9965L13.7519 11.7483Z" fill="white"/>
<path fill-rule="evenodd" clip-rule="evenodd" d="M17.0002 2.83333C9.17613 2.83333 2.8335 9.17596 2.8335 17C2.8335 24.824 9.17613 31.1667 17.0002 31.1667C24.8242 31.1667 31.1668 24.824 31.1668 17C31.1668 9.17596 24.8242 2.83333 17.0002 2.83333ZM5.66683 17C5.66683 10.7408 10.7409 5.66666 17.0002 5.66666C23.2594 5.66666 28.3335 10.7408 28.3335 17C28.3335 23.2592 23.2594 28.3333 17.0002 28.3333C10.7409 28.3333 5.66683 23.2592 5.66683 17Z" fill="white"/>
</svg>
