<svg xmlns="http://www.w3.org/2000/svg" xmlns:xlink="http://www.w3.org/1999/xlink" zoomAndPan="magnify" preserveAspectRatio="xMidYMid meet" version="1.0" viewBox="4.91 133.17 365.31 108.57"><defs><clipPath id="ae10865344"><path d="M 89 133.167969 L 113.398438 133.167969 L 113.398438 158 L 89 158 Z M 89 133.167969 " clip-rule="nonzero"/></clipPath><clipPath id="de1b8a8d5a"><path d="M 89 161 L 113.398438 161 L 113.398438 186 L 89 186 Z M 89 161 " clip-rule="nonzero"/></clipPath><clipPath id="9554b73184"><path d="M 89 189 L 113.398438 189 L 113.398438 214 L 89 214 Z M 89 189 " clip-rule="nonzero"/></clipPath><clipPath id="208432aba0"><path d="M 89 217 L 113.398438 217 L 113.398438 241.738281 L 89 241.738281 Z M 89 217 " clip-rule="nonzero"/></clipPath><clipPath id="79d3ea3ec8"><path d="M 60 217 L 86 217 L 86 241.738281 L 60 241.738281 Z M 60 217 " clip-rule="nonzero"/></clipPath><clipPath id="5e8a726211"><path d="M 32 217 L 58 217 L 58 241.738281 L 32 241.738281 Z M 32 217 " clip-rule="nonzero"/></clipPath><clipPath id="64e228481d"><path d="M 4.914062 217 L 30 217 L 30 241.738281 L 4.914062 241.738281 Z M 4.914062 217 " clip-rule="nonzero"/></clipPath><clipPath id="b32fc768f5"><path d="M 130 205 L 161 205 L 161 240.808594 L 130 240.808594 Z M 130 205 " clip-rule="nonzero"/></clipPath><clipPath id="08d9713efe"><path d="M 174 215 L 200 215 L 200 240.808594 L 174 240.808594 Z M 174 215 " clip-rule="nonzero"/></clipPath><clipPath id="85c19bd437"><path d="M 227 204 L 253 204 L 253 240.808594 L 227 240.808594 Z M 227 204 " clip-rule="nonzero"/></clipPath><clipPath id="48a532e895"><path d="M 294 215 L 320 215 L 320 240.808594 L 294 240.808594 Z M 294 215 " clip-rule="nonzero"/></clipPath><clipPath id="ff278fedb0"><path d="M 323 204 L 350 204 L 350 240.808594 L 323 240.808594 Z M 323 204 " clip-rule="nonzero"/></clipPath><clipPath id="656a4a84af"><path d="M 351 215 L 370.105469 215 L 370.105469 240.808594 L 351 240.808594 Z M 351 215 " clip-rule="nonzero"/></clipPath></defs><g clip-path="url(#ae10865344)"><path fill="#00a359" d="M 113.484375 133.167969 L 89.027344 133.167969 L 89.027344 157.625 L 113.484375 157.625 Z M 113.484375 133.167969 " fill-opacity="1" fill-rule="nonzero"/></g><g clip-path="url(#de1b8a8d5a)"><path fill="#00a359" d="M 113.484375 161.203125 L 89.027344 161.203125 L 89.027344 185.664062 L 113.484375 185.664062 Z M 113.484375 161.203125 " fill-opacity="1" fill-rule="nonzero"/></g><g clip-path="url(#9554b73184)"><path fill="#00a359" d="M 113.484375 189.242188 L 89.027344 189.242188 L 89.027344 213.699219 L 113.484375 213.699219 Z M 113.484375 189.242188 " fill-opacity="1" fill-rule="nonzero"/></g><g clip-path="url(#208432aba0)"><path fill="#00a359" d="M 113.484375 217.28125 L 89.027344 217.28125 L 89.027344 241.738281 L 113.484375 241.738281 Z M 113.484375 217.28125 " fill-opacity="1" fill-rule="nonzero"/></g><path fill="#00b764" d="M 85.445312 161.203125 L 60.988281 161.203125 L 60.988281 185.664062 L 85.445312 185.664062 Z M 85.445312 161.203125 " fill-opacity="1" fill-rule="nonzero"/><path fill="#00b764" d="M 85.445312 189.242188 L 60.988281 189.242188 L 60.988281 213.699219 L 85.445312 213.699219 Z M 85.445312 189.242188 " fill-opacity="1" fill-rule="nonzero"/><g clip-path="url(#79d3ea3ec8)"><path fill="#00b764" d="M 85.445312 217.28125 L 60.988281 217.28125 L 60.988281 241.738281 L 85.445312 241.738281 Z M 85.445312 217.28125 " fill-opacity="1" fill-rule="nonzero"/></g><path fill="#00e17b" d="M 57.410156 189.242188 L 32.949219 189.242188 L 32.949219 213.699219 L 57.410156 213.699219 Z M 57.410156 189.242188 " fill-opacity="1" fill-rule="nonzero"/><g clip-path="url(#5e8a726211)"><path fill="#00e17b" d="M 57.410156 217.28125 L 32.949219 217.28125 L 32.949219 241.738281 L 57.410156 241.738281 Z M 57.410156 217.28125 " fill-opacity="1" fill-rule="nonzero"/></g><g clip-path="url(#64e228481d)"><path fill="#00ff8b" d="M 29.371094 217.28125 L 4.914062 217.28125 L 4.914062 241.738281 L 29.371094 241.738281 Z M 29.371094 217.28125 " fill-opacity="1" fill-rule="nonzero"/></g><g clip-path="url(#b32fc768f5)"><path fill="#ffffff" d="M 146.820312 233.113281 C 148.371094 233.113281 149.882812 232.757812 151.359375 232.046875 C 152.835938 231.335938 154.328125 230.152344 155.835938 228.476562 L 160.550781 232.957031 C 158.65625 235.414062 156.496094 237.273438 154.0625 238.527344 C 151.636719 239.769531 149.144531 240.390625 146.578125 240.390625 C 144.273438 240.390625 142.105469 239.914062 140.066406 238.96875 C 138.054688 238.039062 136.300781 236.761719 134.800781 235.128906 C 133.273438 233.480469 132.101562 231.609375 131.277344 229.515625 C 130.4375 227.375 130.015625 225.097656 130.015625 222.683594 C 130.015625 220.261719 130.445312 217.992188 131.324219 215.875 C 132.175781 213.789062 133.371094 211.925781 134.910156 210.28125 C 136.441406 208.65625 138.230469 207.382812 140.269531 206.46875 C 142.316406 205.523438 144.503906 205.046875 146.824219 205.046875 C 148.976562 205.046875 151.019531 205.457031 152.957031 206.269531 C 154.90625 207.066406 156.808594 208.398438 158.671875 210.261719 L 154.441406 215.429688 C 153.078125 214.175781 151.792969 213.335938 150.585938 212.902344 C 149.371094 212.46875 148.113281 212.253906 146.824219 212.257812 C 145.503906 212.257812 144.261719 212.535156 143.082031 213.078125 C 141.917969 213.621094 140.898438 214.359375 140.023438 215.296875 C 139.125 216.265625 138.4375 217.367188 137.964844 218.601562 C 137.46875 219.917969 137.226562 221.277344 137.234375 222.683594 C 137.234375 224.136719 137.476562 225.492188 137.964844 226.746094 C 138.453125 227.972656 139.136719 229.074219 140.023438 230.050781 C 140.894531 231 141.910156 231.75 143.078125 232.289062 C 144.261719 232.839844 145.503906 233.113281 146.824219 233.113281 Z M 146.820312 233.113281 " fill-opacity="1" fill-rule="nonzero"/></g><path fill="#ffffff" d="M 164.316406 204.472656 L 170.960938 204.472656 L 170.960938 239.769531 L 164.316406 239.769531 Z M 164.316406 204.472656 " fill-opacity="1" fill-rule="nonzero"/><g clip-path="url(#08d9713efe)"><path fill="#ffffff" d="M 186.8125 215.144531 C 188.507812 215.144531 190.113281 215.476562 191.617188 216.140625 C 193.121094 216.777344 194.441406 217.679688 195.582031 218.847656 C 196.722656 220.019531 197.609375 221.355469 198.238281 222.863281 C 198.914062 224.421875 199.246094 226.046875 199.238281 227.742188 C 199.238281 229.492188 198.902344 231.128906 198.238281 232.648438 C 197.605469 234.152344 196.71875 235.488281 195.582031 236.664062 C 194.4375 237.824219 193.113281 238.722656 191.617188 239.371094 C 190.085938 240.027344 188.484375 240.351562 186.816406 240.34375 C 185.070312 240.34375 183.445312 240.019531 181.941406 239.371094 C 180.449219 238.71875 179.128906 237.820312 177.976562 236.664062 C 176.835938 235.492188 175.945312 234.152344 175.296875 232.648438 C 174.644531 231.128906 174.324219 229.492188 174.324219 227.746094 C 174.324219 226.015625 174.644531 224.390625 175.296875 222.867188 C 175.9375 221.359375 176.832031 220.019531 177.976562 218.851562 C 179.121094 217.6875 180.441406 216.785156 181.941406 216.144531 C 183.492188 215.464844 185.117188 215.128906 186.8125 215.144531 Z M 186.8125 234.507812 C 187.609375 234.507812 188.351562 234.351562 189.050781 234.023438 C 189.765625 233.691406 190.386719 233.234375 190.921875 232.652344 C 191.453125 232.074219 191.855469 231.414062 192.128906 230.671875 C 192.4375 229.890625 192.59375 229.007812 192.59375 228.03125 C 192.59375 227.074219 192.4375 226.179688 192.128906 225.347656 C 191.851562 224.539062 191.4375 223.808594 190.886719 223.152344 C 190.371094 222.53125 189.757812 222.027344 189.050781 221.644531 C 188.351562 221.273438 187.605469 221.085938 186.8125 221.089844 C 186.007812 221.085938 185.246094 221.269531 184.53125 221.644531 C 183.820312 222.027344 183.210938 222.53125 182.695312 223.152344 C 182.140625 223.808594 181.722656 224.539062 181.433594 225.347656 C 181.128906 226.21875 180.980469 227.113281 180.988281 228.03125 C 180.988281 229.007812 181.132812 229.890625 181.433594 230.671875 C 181.742188 231.460938 182.164062 232.132812 182.695312 232.691406 C 183.226562 233.257812 183.835938 233.699219 184.53125 234.023438 C 185.242188 234.347656 186 234.511719 186.816406 234.511719 Z M 186.8125 234.507812 " fill-opacity="1" fill-rule="nonzero"/></g><path fill="#ffffff" d="M 217.835938 215.832031 L 224.476562 215.832031 L 224.476562 239.769531 L 218.808594 239.769531 L 217.835938 237.925781 C 217.019531 238.5 216.140625 238.941406 215.199219 239.257812 C 214.226562 239.601562 213.175781 239.769531 212.054688 239.769531 C 211.183594 239.769531 210.195312 239.644531 209.089844 239.390625 C 207.957031 239.117188 206.921875 238.628906 205.988281 237.929688 C 205.027344 237.21875 204.21875 236.242188 203.554688 235 C 202.886719 233.746094 202.558594 232.113281 202.558594 230.117188 L 202.558594 215.832031 L 209.265625 215.832031 L 209.265625 229.875 C 209.265625 230.617188 209.382812 231.242188 209.621094 231.757812 C 209.851562 232.28125 210.171875 232.691406 210.574219 233 C 210.984375 233.300781 211.445312 233.523438 211.96875 233.667969 C 212.484375 233.816406 213.015625 233.890625 213.5625 233.890625 C 213.972656 233.890625 214.425781 233.816406 214.914062 233.667969 C 215.410156 233.523438 215.878906 233.285156 216.308594 232.957031 C 216.761719 232.625 217.125 232.210938 217.394531 231.714844 C 217.6875 231.199219 217.835938 230.582031 217.835938 229.875 Z M 217.835938 215.832031 " fill-opacity="1" fill-rule="nonzero"/><g clip-path="url(#85c19bd437)"><path fill="#ffffff" d="M 252.964844 204.539062 L 252.964844 239.769531 L 247.273438 239.769531 L 246.320312 237.683594 C 245.578125 238.472656 244.554688 239.113281 243.242188 239.613281 C 241.9375 240.105469 240.585938 240.347656 239.191406 240.34375 C 237.476562 240.34375 235.894531 240.019531 234.453125 239.371094 C 233.019531 238.722656 231.773438 237.820312 230.710938 236.664062 C 229.648438 235.472656 228.828125 234.132812 228.253906 232.648438 C 227.660156 231.128906 227.367188 229.492188 227.367188 227.742188 C 227.355469 226.0625 227.648438 224.433594 228.253906 222.863281 C 228.824219 221.375 229.644531 220.035156 230.710938 218.847656 C 231.765625 217.683594 233.015625 216.78125 234.449219 216.140625 C 235.894531 215.476562 237.476562 215.144531 239.191406 215.144531 C 240.695312 215.144531 242.03125 215.320312 243.199219 215.675781 C 244.378906 216.03125 245.417969 216.628906 246.320312 217.472656 L 246.320312 204.539062 Z M 246.320312 227.855469 C 246.320312 226.605469 246.15625 225.542969 245.832031 224.683594 C 245.507812 223.828125 245.058594 223.140625 244.484375 222.621094 C 243.90625 222.085938 243.242188 221.703125 242.492188 221.46875 C 241.699219 221.210938 240.886719 221.085938 240.054688 221.089844 C 239.179688 221.089844 238.371094 221.269531 237.617188 221.625 C 236.871094 221.972656 236.214844 222.445312 235.648438 223.042969 C 235.082031 223.636719 234.640625 224.347656 234.320312 225.171875 C 233.988281 226 233.828125 226.855469 233.832031 227.746094 C 233.832031 228.675781 233.992188 229.554688 234.320312 230.363281 C 234.640625 231.164062 235.085938 231.867188 235.648438 232.46875 C 236.207031 233.0625 236.867188 233.535156 237.617188 233.890625 C 238.371094 234.234375 239.179688 234.402344 240.054688 234.402344 C 241.78125 234.402344 243.242188 233.867188 244.4375 232.804688 C 245.644531 231.726562 246.277344 230.074219 246.320312 227.855469 Z M 246.320312 227.855469 " fill-opacity="1" fill-rule="nonzero"/></g><path fill="#ffffff" d="M 277.964844 233.15625 L 291.980469 233.15625 L 291.980469 239.769531 L 270.632812 239.769531 L 270.632812 205.535156 L 277.964844 205.535156 Z M 277.964844 233.15625 " fill-opacity="1" fill-rule="nonzero"/><g clip-path="url(#48a532e895)"><path fill="#ffffff" d="M 319.636719 215.832031 L 319.636719 239.769531 L 313.898438 239.769531 L 313.234375 237.21875 C 312.304688 238.476562 311.183594 239.3125 309.871094 239.726562 C 308.550781 240.140625 307.199219 240.347656 305.816406 240.347656 C 304.101562 240.347656 302.527344 240.019531 301.101562 239.371094 C 299.683594 238.710938 298.445312 237.808594 297.382812 236.664062 C 296.296875 235.484375 295.46875 234.148438 294.902344 232.648438 C 294.308594 231.128906 294.015625 229.492188 294.015625 227.746094 C 294.003906 226.0625 294.296875 224.4375 294.902344 222.867188 C 295.464844 221.363281 296.292969 220.027344 297.382812 218.851562 C 298.441406 217.699219 299.679688 216.792969 301.101562 216.144531 C 302.53125 215.476562 304.101562 215.144531 305.816406 215.144531 C 307.351562 215.144531 308.761719 215.386719 310.046875 215.878906 C 311.324219 216.351562 312.386719 217.121094 313.234375 218.183594 L 313.898438 215.832031 Z M 312.992188 227.855469 C 312.992188 226.601562 312.820312 225.542969 312.484375 224.683594 C 312.140625 223.828125 311.691406 223.140625 311.132812 222.621094 C 310.566406 222.082031 309.910156 221.699219 309.164062 221.464844 C 308.371094 221.207031 307.558594 221.082031 306.726562 221.089844 C 305.851562 221.089844 305.042969 221.265625 304.289062 221.621094 C 303.539062 221.976562 302.871094 222.453125 302.296875 223.042969 C 301.703125 223.660156 301.25 224.367188 300.945312 225.171875 C 300.617188 225.996094 300.453125 226.855469 300.460938 227.742188 C 300.460938 228.675781 300.621094 229.554688 300.945312 230.363281 C 301.261719 231.152344 301.710938 231.855469 302.296875 232.46875 C 302.871094 233.0625 303.539062 233.535156 304.289062 233.890625 C 305.042969 234.234375 305.851562 234.398438 306.726562 234.398438 C 308.464844 234.398438 309.9375 233.867188 311.132812 232.804688 C 312.339844 231.726562 312.960938 230.074219 312.992188 227.855469 Z M 312.992188 227.855469 " fill-opacity="1" fill-rule="nonzero"/></g><g clip-path="url(#ff278fedb0)"><path fill="#ffffff" d="M 337.746094 215.144531 C 339.429688 215.144531 340.984375 215.476562 342.417969 216.140625 C 343.859375 216.785156 345.113281 217.6875 346.183594 218.847656 C 347.269531 220.027344 348.097656 221.363281 348.664062 222.863281 C 349.277344 224.433594 349.582031 226.058594 349.570312 227.742188 C 349.570312 229.492188 349.265625 231.128906 348.664062 232.648438 C 348.09375 234.144531 347.265625 235.484375 346.183594 236.664062 C 345.109375 237.816406 343.851562 238.71875 342.417969 239.371094 C 340.984375 240.019531 339.429688 240.34375 337.746094 240.34375 C 336.34375 240.347656 334.984375 240.105469 333.671875 239.613281 C 332.371094 239.113281 331.351562 238.472656 330.617188 237.679688 L 329.664062 239.769531 L 323.972656 239.769531 L 323.972656 204.539062 L 330.617188 204.539062 L 330.617188 217.761719 C 332.445312 216.019531 334.824219 215.144531 337.746094 215.144531 Z M 336.839844 234.398438 C 337.707031 234.398438 338.519531 234.234375 339.273438 233.890625 C 340.027344 233.535156 340.691406 233.0625 341.265625 232.46875 C 341.84375 231.867188 342.289062 231.160156 342.617188 230.363281 C 342.949219 229.519531 343.109375 228.648438 343.105469 227.742188 C 343.105469 226.84375 342.9375 225.984375 342.617188 225.171875 C 342.3125 224.371094 341.859375 223.660156 341.265625 223.042969 C 340.6875 222.449219 340.023438 221.976562 339.273438 221.621094 C 338.503906 221.261719 337.691406 221.082031 336.839844 221.089844 C 335.964844 221.089844 335.15625 221.21875 334.402344 221.464844 C 333.65625 221.695312 333 222.082031 332.429688 222.621094 C 331.867188 223.140625 331.425781 223.828125 331.101562 224.683594 C 330.777344 225.542969 330.617188 226.601562 330.617188 227.855469 C 330.617188 228.980469 330.777344 229.957031 331.101562 230.785156 C 331.421875 231.597656 331.867188 232.269531 332.429688 232.804688 C 332.992188 233.324219 333.648438 233.722656 334.402344 234 C 335.191406 234.273438 336.003906 234.40625 336.839844 234.398438 Z M 336.839844 234.398438 " fill-opacity="1" fill-rule="nonzero"/></g><g clip-path="url(#656a4a84af)"><path fill="#ffffff" d="M 367.570312 227.210938 C 369.34375 228.472656 370.226562 230.261719 370.226562 232.578125 C 370.226562 233.644531 369.972656 234.644531 369.476562 235.574219 C 368.964844 236.535156 368.285156 237.355469 367.4375 238.035156 C 366.5625 238.746094 365.542969 239.300781 364.378906 239.699219 C 363.183594 240.109375 361.949219 240.308594 360.683594 240.300781 C 359.691406 240.300781 358.71875 240.167969 357.761719 239.902344 C 356.847656 239.664062 355.976562 239.316406 355.152344 238.859375 C 354.371094 238.417969 353.671875 237.878906 353.046875 237.238281 C 352.464844 236.625 352.019531 235.921875 351.71875 235.132812 C 352.46875 234.777344 353.292969 234.390625 354.175781 233.957031 C 354.96875 233.566406 355.757812 233.164062 356.546875 232.757812 C 356.839844 233.246094 357.289062 233.703125 357.894531 234.113281 C 358.5 234.507812 359.335938 234.710938 360.398438 234.710938 C 361.488281 234.710938 362.292969 234.453125 362.8125 233.933594 C 363.328125 233.417969 363.585938 232.929688 363.585938 232.46875 C 363.585938 232.160156 363.410156 231.871094 363.054688 231.605469 C 362.683594 231.316406 362.277344 231.097656 361.835938 230.9375 C 361.199219 230.671875 360.667969 230.535156 360.242188 230.515625 C 359.753906 230.492188 359.273438 230.40625 358.804688 230.25 C 357.078125 229.839844 355.753906 229.285156 354.839844 228.585938 C 353.921875 227.894531 353.25 227.199219 352.824219 226.5 C 352.410156 225.792969 352.183594 225.121094 352.140625 224.484375 C 352.09375 223.832031 352.074219 223.320312 352.074219 222.929688 C 352.074219 221.898438 352.292969 220.910156 352.738281 219.980469 C 353.195312 219.042969 353.8125 218.226562 354.597656 217.539062 C 355.414062 216.820312 356.328125 216.265625 357.34375 215.875 C 358.417969 215.457031 359.53125 215.25 360.6875 215.253906 C 361.6875 215.253906 362.640625 215.402344 363.542969 215.699219 C 364.4375 215.980469 365.257812 216.378906 366 216.898438 C 366.738281 217.402344 367.359375 218.003906 367.882812 218.714844 C 368.414062 219.421875 368.8125 220.21875 369.078125 221.089844 L 363.921875 222.820312 C 363.726562 222.242188 363.328125 221.777344 362.722656 221.421875 C 362.144531 221.066406 361.519531 220.890625 360.839844 220.890625 C 360.160156 220.890625 359.609375 221.121094 359.179688 221.578125 C 358.765625 222.019531 358.558594 222.476562 358.558594 222.929688 C 358.558594 223.480469 358.757812 223.90625 359.160156 224.21875 C 359.566406 224.515625 360.011719 224.726562 360.484375 224.859375 C 360.839844 224.921875 361.183594 224.972656 361.527344 225.015625 C 361.863281 225.058594 362.195312 225.121094 362.523438 225.191406 C 363.640625 225.449219 364.613281 225.738281 365.425781 226.058594 C 366.25 226.386719 366.964844 226.769531 367.570312 227.210938 Z M 367.570312 227.210938 " fill-opacity="1" fill-rule="nonzero"/></g><path fill="#ffffff" d="M 132.617188 183.738281 L 148.753906 183.738281 C 162.203125 183.738281 173.199219 172.800781 173.199219 159.246094 C 173.199219 145.699219 162.203125 134.753906 148.753906 134.753906 L 132.617188 134.753906 Z M 143.375 174.1875 L 143.375 144.3125 L 148.671875 144.3125 C 156.410156 144.3125 162.445312 150.757812 162.445312 159.246094 C 162.445312 167.738281 156.410156 174.1875 148.671875 174.1875 Z M 143.375 174.1875 " fill-opacity="1" fill-rule="nonzero"/><path fill="#ffffff" d="M 185.09375 145.613281 C 188.1875 145.613281 190.796875 143 190.796875 139.902344 C 190.796875 136.71875 188.1875 134.183594 185.09375 134.183594 C 182 134.183594 179.394531 136.71875 179.394531 139.902344 C 179.394531 143.003906 182 145.613281 185.09375 145.613281 Z M 179.878906 183.738281 L 190.222656 183.738281 L 190.222656 151.082031 L 179.878906 151.082031 Z M 179.878906 183.738281 " fill-opacity="1" fill-rule="nonzero"/><path fill="#ffffff" d="M 209.292969 184.390625 C 216.628906 184.390625 221.109375 179.902344 221.109375 173.777344 C 221.109375 167.25 215.734375 164.636719 211.089844 162.839844 C 208.722656 161.859375 207.582031 161.371094 207.582031 160.144531 C 207.582031 159.085938 208.398438 158.273438 210.191406 158.273438 C 212.308594 158.273438 214.265625 159.414062 215.246094 160.632812 L 220.460938 154.761719 C 218.011719 152.308594 214.023438 150.433594 209.460938 150.433594 C 202.039062 150.433594 197.316406 155.332031 197.316406 160.882812 C 197.316406 167.410156 203.835938 169.621094 207.582031 171.003906 C 210.515625 172.148438 211.496094 172.964844 211.496094 174.105469 C 211.496094 175.414062 210.355469 176.144531 208.640625 176.144531 C 206.929688 176.144531 204.648438 175.492188 203.183594 172.71875 L 195.527344 176.554688 C 197.480469 181.617188 203.507812 184.394531 209.292969 184.394531 Z M 209.292969 184.390625 " fill-opacity="1" fill-rule="nonzero"/><path fill="#ffffff" d="M 245.800781 159.167969 L 245.800781 151.082031 L 238.054688 151.082031 L 238.054688 138.515625 L 227.710938 138.515625 L 227.710938 151.082031 L 222.25 151.082031 L 222.25 159.167969 L 227.707031 159.167969 L 227.707031 172.0625 C 227.707031 179.003906 233.574219 184.394531 240.5 184.394531 C 242.699219 184.394531 244.902344 183.898438 245.714844 183.328125 L 245.714844 175.25 L 241.808594 175.25 C 239.605469 175.25 238.054688 173.535156 238.054688 170.839844 L 238.054688 159.167969 Z M 245.800781 159.167969 " fill-opacity="1" fill-rule="nonzero"/><path fill="#ffffff" d="M 256.308594 145.613281 C 259.402344 145.613281 262.011719 143 262.011719 139.902344 C 262.011719 136.71875 259.402344 134.183594 256.308594 134.183594 C 253.214844 134.183594 250.605469 136.71875 250.605469 139.902344 C 250.605469 143.003906 253.214844 145.613281 256.308594 145.613281 Z M 251.09375 183.738281 L 261.4375 183.738281 L 261.4375 151.082031 L 251.09375 151.082031 Z M 251.09375 183.738281 " fill-opacity="1" fill-rule="nonzero"/><path fill="#ffffff" d="M 289.714844 150.433594 C 285.964844 150.433594 282.710938 152.226562 280.425781 155.085938 L 280.425781 151.082031 L 269.992188 151.082031 L 269.992188 183.738281 L 280.425781 183.738281 L 280.425781 164.800781 C 280.425781 161.859375 282.871094 159.660156 285.886719 159.660156 C 288.898438 159.660156 291.019531 161.859375 291.019531 164.800781 L 291.019531 183.738281 L 301.367188 183.738281 L 301.367188 163.085938 C 301.367188 155.902344 296.152344 150.433594 289.714844 150.433594 Z M 289.714844 150.433594 " fill-opacity="1" fill-rule="nonzero"/><path fill="#ffffff" d="M 324.917969 184.390625 C 334.695312 184.390625 341.375 178.675781 342.761719 170.511719 L 332.003906 170.511719 C 330.945312 173.289062 328.257812 175.085938 324.917969 175.164062 C 320.433594 175.085938 317.175781 171.820312 317.175781 167.410156 C 317.175781 163.003906 320.433594 159.742188 324.917969 159.660156 C 328.257812 159.742188 330.945312 161.535156 332.003906 164.308594 L 342.761719 164.308594 C 341.375 156.144531 334.695312 150.433594 324.917969 150.433594 C 313.996094 150.433594 306.742188 157.617188 306.742188 167.410156 C 306.742188 177.207031 313.996094 184.390625 324.917969 184.390625 Z M 324.917969 184.390625 " fill-opacity="1" fill-rule="nonzero"/><path fill="#ffffff" d="M 367.777344 159.167969 L 367.777344 151.082031 L 360.03125 151.082031 L 360.03125 138.515625 L 349.6875 138.515625 L 349.6875 151.082031 L 344.226562 151.082031 L 344.226562 159.167969 L 349.683594 159.167969 L 349.683594 172.0625 C 349.683594 179.003906 355.554688 184.394531 362.480469 184.394531 C 364.675781 184.394531 366.878906 183.898438 367.695312 183.328125 L 367.695312 175.25 L 363.785156 175.25 C 361.582031 175.25 360.03125 173.535156 360.03125 170.839844 L 360.03125 159.167969 Z M 367.777344 159.167969 " fill-opacity="1" fill-rule="nonzero"/></svg>