<svg xmlns="http://www.w3.org/2000/svg" width="123.02" height="26.28" viewBox="0 0 123.02 26.28"><defs><style>.cls-1{fill:#747474;}.cls-2{fill:#f05225;}.cls-3{fill:#7fbb42;}.cls-4{fill:#33a0da;}.cls-5{fill:#fdb813;}</style></defs><g id="Layer_2" data-name="Layer 2"><g id="Layer_1-2" data-name="Layer 1"><path class="cls-1" d="M43.43,15.14l-.73,2.07h-.06a14.35,14.35,0,0,0-.72-2L38,5.3H34.14V21h2.55V11.33c0-.61,0-1.31,0-2.16,0-.43-.06-.76-.08-1h.06A8,8,0,0,0,37,9.51L41.74,21h1.79L48.22,9.41c.1-.26.2-.79.31-1.24h.06c-.06,1.16-.11,2.2-.13,2.83V21h2.71V5.26h-3.7ZM53.74,9.7h2.65V21H53.74Zm1.35-4.77A1.6,1.6,0,0,0,54,5.38a1.52,1.52,0,0,0,0,2.18A1.62,1.62,0,0,0,55.09,8a1.67,1.67,0,0,0,1.12-.43,1.45,1.45,0,0,0,.46-1.08,1.51,1.51,0,0,0-.46-1.1,1.49,1.49,0,0,0-1.12-.45M65.78,9.6a6.88,6.88,0,0,0-1.49-.17,6.41,6.41,0,0,0-3.22.8A5.27,5.27,0,0,0,59,12.41a6.88,6.88,0,0,0-.74,3.26,6,6,0,0,0,.72,2.91,4.9,4.9,0,0,0,2,2,6,6,0,0,0,2.91.71,6.47,6.47,0,0,0,3.2-.75l0,0V18.09l-.1.08a4.36,4.36,0,0,1-1.28.67,3.79,3.79,0,0,1-1.26.25,3.14,3.14,0,0,1-2.49-1A3.76,3.76,0,0,1,61,15.44,3.86,3.86,0,0,1,62,12.69a3.28,3.28,0,0,1,2.49-1,4.33,4.33,0,0,1,2.52.86l.1.08V10l0,0a6.05,6.05,0,0,0-1.26-.4m8.74-.09a2.79,2.79,0,0,0-1.79.64,3.67,3.67,0,0,0-1,1.52h0v-2H69V21h2.65V15.22a3.89,3.89,0,0,1,.65-2.39,2,2,0,0,1,1.71-.91,6.7,6.7,0,0,1,.8.1,2.25,2.25,0,0,1,.63.26l.1.09V9.72l-.06,0a1.94,1.94,0,0,0-1-.19m7.21-.06a5.85,5.85,0,0,0-4.38,1.63,6.07,6.07,0,0,0-1.57,4.44,5.8,5.8,0,0,0,1.55,4.22,6.35,6.35,0,0,0,8.43-.1,6.05,6.05,0,0,0,1.57-4.38A5.94,5.94,0,0,0,85.85,11a5.38,5.38,0,0,0-4.12-1.55m2.12,8.68a2.67,2.67,0,0,1-2.22.94,2.78,2.78,0,0,1-2.28-1,4,4,0,0,1-.82-2.71,4.27,4.27,0,0,1,.82-2.77,2.8,2.8,0,0,1,2.26-1,2.71,2.71,0,0,1,2.2.94,4.18,4.18,0,0,1,.81,2.75,4.7,4.7,0,0,1-.77,2.81m9.39-3.75a6.52,6.52,0,0,1-1.61-.83,1.18,1.18,0,0,1-.3-.86,1,1,0,0,1,.42-.81,2,2,0,0,1,1.17-.31,5.39,5.39,0,0,1,1.36.2,3.68,3.68,0,0,1,1.18.55l.1.09V9.92l-.06,0a8.21,8.21,0,0,0-1.2-.35A8.35,8.35,0,0,0,93,9.43a4.72,4.72,0,0,0-3.12,1,3,3,0,0,0-1.2,2.49,3.3,3.3,0,0,0,.26,1.38,3.16,3.16,0,0,0,.82,1.06,6.8,6.8,0,0,0,1.63.92c.61.26,1.08.47,1.36.63a2.35,2.35,0,0,1,.61.49,1.07,1.07,0,0,1,.17.63c0,.75-.57,1.12-1.74,1.12a4.41,4.41,0,0,1-1.46-.27,5.48,5.48,0,0,1-1.49-.75l-.1-.08v2.59l.06,0a8.15,8.15,0,0,0,1.43.44,8.38,8.38,0,0,0,1.52.19,5,5,0,0,0,3.28-1,3.12,3.12,0,0,0,1.25-2.57,2.85,2.85,0,0,0-.66-1.93,8.25,8.25,0,0,0-2.38-1.41m10-4.93a5.85,5.85,0,0,0-4.38,1.63,6.19,6.19,0,0,0-1.56,4.44,5.83,5.83,0,0,0,1.54,4.22,6.37,6.37,0,0,0,8.44-.1,6.05,6.05,0,0,0,1.57-4.38A5.9,5.9,0,0,0,107.38,11a5.36,5.36,0,0,0-4.12-1.55m2.1,8.68a2.67,2.67,0,0,1-2.22.94,2.76,2.76,0,0,1-2.28-1,4,4,0,0,1-.81-2.71,4.27,4.27,0,0,1,.81-2.77,2.8,2.8,0,0,1,2.26-1,2.74,2.74,0,0,1,2.2.94,4.18,4.18,0,0,1,.82,2.75,4.44,4.44,0,0,1-.78,2.81M123,11.88V9.7h-2.66V6.36l-.09,0-2.52.75-.06,0V9.7h-4V8.27a2.28,2.28,0,0,1,.45-1.49,1.63,1.63,0,0,1,1.25-.49,3.07,3.07,0,0,1,1.18.27l.1.06V4.32l-.06,0a5,5,0,0,0-3.61.28A3.53,3.53,0,0,0,111.56,6a4.12,4.12,0,0,0-.53,2.1V9.7h-1.86v2.16H111V21h2.66v-9.1h4v5.8q0,3.59,3.36,3.59a7.1,7.1,0,0,0,1.12-.12,4,4,0,0,0,.83-.27l0,0V18.68l-.1.08a1.65,1.65,0,0,1-.55.25,1.84,1.84,0,0,1-.53.08,1.4,1.4,0,0,1-1.16-.43,2.22,2.22,0,0,1-.36-1.45V11.88Z"/><path class="cls-2" d="M0,0H12.49V12.49H0Z"/><path class="cls-3" d="M13.79,0H26.28V12.49H13.79Z"/><path class="cls-4" d="M0,13.79H12.49V26.28H0Z"/><path class="cls-5" d="M13.79,13.79H26.28V26.28H13.79Z"/></g></g></svg>