<svg width="118" height="35" viewBox="0 0 118 35" fill="none" xmlns="http://www.w3.org/2000/svg">
<g clip-path="url(#clip0_81_302)">
<mask id="mask0_81_302" style="mask-type:luminance" maskUnits="userSpaceOnUse" x="27" y="0" width="8" height="9">
<path d="M27.1079 0H34.9732V8.00507H27.1079V0Z" fill="white"/>
</mask>
<g mask="url(#mask0_81_302)">
<path d="M35.0012 -0.00050354H27.1171V7.88368H35.0012V-0.00050354Z" fill="#00A359"/>
</g>
<mask id="mask1_81_302" style="mask-type:luminance" maskUnits="userSpaceOnUse" x="27" y="8" width="8" height="10">
<path d="M27.1079 8.97208H34.9732V17.0313H27.1079V8.97208Z" fill="white"/>
</mask>
<g mask="url(#mask1_81_302)">
<path d="M35.001 9.03738H27.1168V16.9228H35.001V9.03738Z" fill="#00A359"/>
</g>
<mask id="mask2_81_302" style="mask-type:luminance" maskUnits="userSpaceOnUse" x="27" y="17" width="8" height="10">
<path d="M27.1079 17.9982H34.9732V26.0574H27.1079V17.9982Z" fill="white"/>
</mask>
<g mask="url(#mask2_81_302)">
<path d="M35.001 18.0763H27.1168V25.9605H35.001V18.0763Z" fill="#00A359"/>
</g>
<mask id="mask3_81_302" style="mask-type:luminance" maskUnits="userSpaceOnUse" x="27" y="27" width="8" height="8">
<path d="M27.1079 27.0247H34.9732V34.9996H27.1079V27.0247Z" fill="white"/>
</mask>
<g mask="url(#mask3_81_302)">
<path d="M35.001 27.1153H27.1168V34.9995H35.001V27.1153Z" fill="#00A359"/>
</g>
<path d="M25.9621 9.03743H18.0779V16.9229H25.9621V9.03743Z" fill="#00B764"/>
<path d="M25.9621 18.0762H18.0779V25.9603H25.9621V18.0762Z" fill="#00B764"/>
<mask id="mask4_81_302" style="mask-type:luminance" maskUnits="userSpaceOnUse" x="17" y="27" width="10" height="8">
<path d="M17.7594 27.0247H26.141V34.9996H17.7594V27.0247Z" fill="white"/>
</mask>
<g mask="url(#mask4_81_302)">
<path d="M25.9622 27.1153H18.078V34.9995H25.9622V27.1153Z" fill="#00B764"/>
</g>
<path d="M16.9245 18.0762H9.03906V25.9603H16.9245V18.0762Z" fill="#00E17B"/>
<mask id="mask5_81_302" style="mask-type:luminance" maskUnits="userSpaceOnUse" x="8" y="27" width="10" height="8">
<path d="M8.73291 27.0247H17.1145V34.9996H8.73291V27.0247Z" fill="white"/>
</mask>
<g mask="url(#mask5_81_302)">
<path d="M16.9245 27.1153H9.03906V34.9995H16.9245V27.1153Z" fill="#00E17B"/>
</g>
<mask id="mask6_81_302" style="mask-type:luminance" maskUnits="userSpaceOnUse" x="0" y="27" width="9" height="8">
<path d="M0.0012207 27.0247H8.08814V34.9996H0.0012207V27.0247Z" fill="white"/>
</mask>
<g mask="url(#mask6_81_302)">
<path d="M7.8854 27.1153H0.0012207V34.9995H7.8854V27.1153Z" fill="#00FF8B"/>
</g>
<mask id="mask7_81_302" style="mask-type:luminance" maskUnits="userSpaceOnUse" x="40" y="23" width="11" height="12">
<path d="M40.3251 23.1564H50.3185V34.7H40.3251V23.1564Z" fill="white"/>
</mask>
<g mask="url(#mask7_81_302)">
<path d="M45.7475 32.219C46.2474 32.219 46.7348 32.1044 47.2108 31.8752C47.6868 31.646 48.1678 31.2645 48.6539 30.7243L50.1738 32.1686C49.563 32.9607 48.8667 33.5601 48.0822 33.9643C47.3002 34.3648 46.4968 34.565 45.6694 34.565C44.9265 34.565 44.2276 34.4114 43.5703 34.1066C42.9217 33.8069 42.3563 33.3951 41.8728 32.8688C41.3804 32.3374 41.0026 31.7342 40.7369 31.0592C40.4662 30.3692 40.3302 29.635 40.3302 28.8568C40.3302 28.0761 40.4687 27.3444 40.752 26.6619C41.0266 25.9895 41.4119 25.3888 41.908 24.8587C42.4017 24.3348 42.9784 23.9243 43.6357 23.6296C44.2956 23.3249 45.0008 23.1713 45.7488 23.1713C46.4426 23.1713 47.1012 23.3035 47.7258 23.5654C48.3542 23.8223 48.9674 24.2517 49.5681 24.8524L48.2043 26.5184C47.7648 26.1141 47.3505 25.8434 46.9614 25.7036C46.5698 25.5638 46.1643 25.4946 45.7488 25.4958C45.3231 25.4958 44.9227 25.5853 44.5424 25.7603C44.1671 25.9353 43.8385 26.1733 43.5564 26.4755C43.2668 26.7878 43.0451 27.1429 42.8928 27.5409C42.7329 27.9652 42.6548 28.4035 42.6573 28.8568C42.6573 29.3252 42.7354 29.7622 42.8928 30.1664C43.0502 30.5618 43.2706 30.9169 43.5564 31.2317C43.8372 31.5377 44.1646 31.7795 44.5411 31.9533C44.9227 32.1308 45.3231 32.219 45.7488 32.219H45.7475Z" fill="white"/>
</g>
<path d="M51.3876 22.9861H53.5296V34.3647H51.3876V22.9861Z" fill="white"/>
<mask id="mask8_81_302" style="mask-type:luminance" maskUnits="userSpaceOnUse" x="54" y="26" width="9" height="9">
<path d="M54.5094 26.38H62.891V34.6999H54.5094V26.38Z" fill="white"/>
</mask>
<g mask="url(#mask8_81_302)">
<path d="M58.6397 26.4262C59.1862 26.4262 59.7038 26.5332 60.1886 26.7473C60.6734 26.9526 61.099 27.2435 61.4667 27.62C61.8344 27.9978 62.1203 28.4284 62.323 28.9145C62.5409 29.4169 62.6479 29.9408 62.6454 30.4873C62.6454 31.0514 62.5371 31.5791 62.323 32.0689C62.119 32.5537 61.8332 32.9844 61.4667 33.3634C61.0978 33.7374 60.6709 34.0271 60.1886 34.2361C59.695 34.4476 59.1787 34.5522 58.641 34.5496C58.0781 34.5496 57.5542 34.4451 57.0694 34.2361C56.5884 34.0258 56.1628 33.7362 55.7913 33.3634C55.4236 32.9857 55.1365 32.5537 54.9274 32.0689C54.7172 31.5791 54.6139 31.0514 54.6139 30.4886C54.6139 29.9307 54.7172 29.4069 54.9274 28.9158C55.134 28.4297 55.4223 27.9978 55.7913 27.6212C56.1603 27.246 56.5859 26.9551 57.0694 26.7486C57.5694 26.5295 58.0932 26.4212 58.6397 26.4262ZM58.6397 32.6683C58.8966 32.6683 59.1359 32.618 59.3613 32.5122C59.5917 32.4051 59.7919 32.2578 59.9645 32.0702C60.1357 31.8838 60.2654 31.671 60.3536 31.4317C60.453 31.1799 60.5034 30.8953 60.5034 30.5805C60.5034 30.272 60.453 29.9836 60.3536 29.7154C60.2642 29.4547 60.1307 29.2192 59.9531 29.0077C59.7869 28.8075 59.5892 28.645 59.3613 28.5216C59.1359 28.402 58.8954 28.3415 58.6397 28.3428C58.3803 28.3415 58.1348 28.4007 57.9043 28.5216C57.6751 28.645 57.4787 28.8075 57.3125 29.0077C57.1337 29.2192 56.9989 29.4547 56.9057 29.7154C56.8075 29.9962 56.7597 30.2846 56.7622 30.5805C56.7622 30.8953 56.8088 31.1799 56.9057 31.4317C57.0052 31.6861 57.1412 31.9027 57.3125 32.0828C57.4837 32.2654 57.6802 32.4077 57.9043 32.5122C58.1335 32.6167 58.3778 32.6696 58.641 32.6696L58.6397 32.6683Z" fill="white"/>
</g>
<path d="M68.6408 26.6479H70.7815V34.3646H68.9543L68.6408 33.7702C68.3776 33.9553 68.0942 34.0976 67.7908 34.1996C67.4772 34.3105 67.1385 34.3646 66.7771 34.3646C66.4962 34.3646 66.1777 34.3243 65.8213 34.2425C65.4561 34.1543 65.1224 33.9969 64.8214 33.7715C64.5117 33.5423 64.251 33.2275 64.0369 32.8271C63.8216 32.4228 63.7158 31.8965 63.7158 31.253V26.6479H65.878V31.1749C65.878 31.4142 65.9157 31.6157 65.9925 31.7819C66.0668 31.9506 66.1701 32.0828 66.2998 32.1823C66.432 32.2793 66.5806 32.3511 66.7494 32.3977C66.9156 32.4455 67.0868 32.4694 67.2631 32.4694C67.3954 32.4694 67.5414 32.4455 67.6988 32.3977C67.8588 32.3511 68.0099 32.2742 68.1484 32.1685C68.2945 32.0614 68.4116 31.9279 68.4985 31.768C68.5929 31.6018 68.6408 31.4028 68.6408 31.1749V26.6479Z" fill="white"/>
<mask id="mask9_81_302" style="mask-type:luminance" maskUnits="userSpaceOnUse" x="71" y="22" width="9" height="13">
<path d="M71.595 22.834H79.9766V34.7H71.595V22.834Z" fill="white"/>
</mask>
<g mask="url(#mask9_81_302)">
<path d="M79.9651 23.0074V34.3646H78.1304L77.8231 33.6922C77.5839 33.9465 77.254 34.1531 76.8308 34.3142C76.4103 34.4729 75.9746 34.551 75.525 34.5497C74.9722 34.5497 74.4622 34.4452 73.9975 34.2362C73.5354 34.0271 73.1337 33.7362 72.7912 33.3635C72.4486 32.9794 72.1842 32.5475 71.9991 32.069C71.8077 31.5791 71.7132 31.0515 71.7132 30.4874C71.7095 29.9459 71.8039 29.4208 71.9991 28.9146C72.1829 28.4348 72.4474 28.0029 72.7912 27.6201C73.1312 27.2448 73.5341 26.9539 73.9963 26.7474C74.4622 26.5333 74.9722 26.4263 75.525 26.4263C76.0098 26.4263 76.4405 26.483 76.817 26.5975C77.1973 26.7121 77.5322 26.9048 77.8231 27.1768V23.0074H79.9651ZM77.8231 30.5239C77.8231 30.1209 77.7702 29.7784 77.6657 29.5014C77.5612 29.2256 77.4164 29.004 77.2313 28.8365C77.0449 28.664 76.8308 28.5406 76.5891 28.465C76.3334 28.3819 76.0715 28.3416 75.8033 28.3429C75.5212 28.3429 75.2606 28.4008 75.0175 28.5154C74.777 28.6275 74.5655 28.7798 74.3829 28.9725C74.2003 29.1639 74.058 29.3931 73.9547 29.6588C73.8477 29.9257 73.796 30.2015 73.7973 30.4886C73.7973 30.7883 73.8489 31.0717 73.9547 31.3323C74.058 31.5905 74.2015 31.8171 74.3829 32.0111C74.5629 32.2025 74.7757 32.3548 75.0175 32.4694C75.2606 32.5803 75.5212 32.6344 75.8033 32.6344C76.3599 32.6344 76.8308 32.4619 77.2162 32.1194C77.6053 31.7718 77.8093 31.2392 77.8231 30.5239Z" fill="white"/>
</g>
<path d="M88.0243 32.2331H92.5425V34.365H85.6606V23.3289H88.0243V32.2331Z" fill="white"/>
<mask id="mask10_81_302" style="mask-type:luminance" maskUnits="userSpaceOnUse" x="93" y="26" width="9" height="9">
<path d="M93.1936 26.38H101.575V34.6999H93.1936V26.38Z" fill="white"/>
</mask>
<g mask="url(#mask10_81_302)">
<path d="M101.458 26.6481V34.3648H99.6081L99.394 33.5425C99.0943 33.948 98.7329 34.2175 98.3098 34.351C97.8842 34.4844 97.4485 34.5512 97.0027 34.5512C96.4499 34.5512 95.9424 34.4454 95.4828 34.2364C95.0256 34.0236 94.6265 33.7327 94.2839 33.3637C93.9339 32.9834 93.6669 32.5527 93.4843 32.0692C93.2929 31.5793 93.1985 31.0517 93.1985 30.4888C93.1947 29.9461 93.2891 29.4222 93.4843 28.916C93.6657 28.4312 93.9326 28.0005 94.2839 27.6215C94.6252 27.25 95.0244 26.9579 95.4828 26.7489C95.9436 26.5335 96.4499 26.4265 97.0027 26.4265C97.4976 26.4265 97.9522 26.5046 98.3664 26.6632C98.7782 26.8156 99.1207 27.0637 99.394 27.4062L99.6081 26.6481H101.458ZM99.3159 30.5241C99.3159 30.1199 99.2605 29.7786 99.1522 29.5016C99.0414 29.2258 98.8966 29.0042 98.7165 28.8367C98.5339 28.6629 98.3224 28.5395 98.0819 28.464C97.8262 28.3808 97.5643 28.3405 97.2961 28.3431C97.014 28.3431 96.7533 28.3997 96.5103 28.5143C96.2685 28.6289 96.0532 28.7825 95.8681 28.9727C95.6767 29.1717 95.5306 29.3996 95.4324 29.659C95.3266 29.9247 95.2737 30.2017 95.2762 30.4876C95.2762 30.7885 95.3279 31.0719 95.4324 31.3325C95.5344 31.5869 95.6792 31.8136 95.8681 32.0113C96.0532 32.2027 96.2685 32.355 96.5103 32.4696C96.7533 32.5804 97.014 32.6333 97.2961 32.6333C97.8564 32.6333 98.3312 32.4621 98.7165 32.1196C99.1056 31.772 99.3058 31.2393 99.3159 30.5241Z" fill="white"/>
</g>
<mask id="mask11_81_302" style="mask-type:luminance" maskUnits="userSpaceOnUse" x="102" y="22" width="10" height="13">
<path d="M102.542 22.834H111.246V34.7H102.542V22.834Z" fill="white"/>
</mask>
<g mask="url(#mask11_81_302)">
<path d="M107.296 26.4263C107.839 26.4263 108.34 26.5333 108.802 26.7474C109.267 26.9552 109.671 27.2461 110.016 27.6201C110.366 28.0004 110.633 28.431 110.815 28.9146C111.013 29.4208 111.111 29.9446 111.108 30.4874C111.108 31.0515 111.009 31.5791 110.815 32.069C110.632 32.5513 110.365 32.9832 110.016 33.3635C109.67 33.735 109.264 34.0259 108.802 34.2362C108.34 34.4452 107.839 34.5497 107.296 34.5497C106.844 34.551 106.406 34.4729 105.982 34.3142C105.563 34.1531 105.234 33.9465 104.998 33.6909L104.69 34.3646H102.856V23.0074H104.998V27.27C105.587 26.7084 106.354 26.4263 107.296 26.4263ZM107.004 32.6331C107.283 32.6331 107.545 32.5803 107.788 32.4694C108.031 32.3548 108.245 32.2025 108.43 32.0111C108.617 31.8171 108.76 31.5892 108.866 31.3323C108.973 31.0603 109.025 30.7795 109.024 30.4874C109.024 30.1977 108.969 29.9207 108.866 29.6588C108.768 29.4006 108.622 29.1715 108.43 28.9725C108.244 28.7811 108.03 28.6287 107.788 28.5141C107.54 28.3983 107.278 28.3404 107.004 28.3429C106.722 28.3429 106.461 28.3844 106.218 28.4638C105.977 28.5381 105.766 28.6627 105.582 28.8365C105.401 29.004 105.258 29.2256 105.154 29.5014C105.049 29.7784 104.998 30.1197 104.998 30.5239C104.998 30.8866 105.049 31.2014 105.154 31.4683C105.257 31.7303 105.401 31.9468 105.582 32.1194C105.763 32.2868 105.975 32.4153 106.218 32.5047C106.472 32.5928 106.734 32.6357 107.004 32.6331Z" fill="white"/>
</g>
<mask id="mask12_81_302" style="mask-type:luminance" maskUnits="userSpaceOnUse" x="111" y="26" width="7" height="9">
<path d="M111.569 26.38H117.728V34.6999H111.569V26.38Z" fill="white"/>
</mask>
<g mask="url(#mask12_81_302)">
<path d="M116.91 30.3164C117.482 30.7231 117.767 31.2998 117.767 32.0466C117.767 32.3903 117.685 32.7127 117.525 33.0124C117.36 33.3222 117.141 33.5866 116.867 33.8057C116.585 34.0349 116.257 34.2137 115.881 34.3422C115.496 34.4744 115.098 34.5386 114.69 34.5361C114.37 34.5361 114.057 34.4933 113.748 34.4077C113.454 34.3308 113.173 34.2188 112.907 34.0714C112.655 33.9291 112.43 33.7554 112.228 33.5489C112.041 33.3511 111.897 33.1245 111.8 32.8701C112.042 32.7555 112.308 32.6309 112.592 32.4911C112.848 32.3652 113.102 32.2355 113.357 32.1045C113.451 32.2619 113.596 32.4092 113.791 32.5414C113.986 32.6686 114.256 32.7341 114.598 32.7341C114.95 32.7341 115.209 32.651 115.376 32.4835C115.543 32.3173 115.626 32.1599 115.626 32.0113C115.626 31.9118 115.569 31.8186 115.455 31.733C115.335 31.6398 115.204 31.5693 115.062 31.5177C114.856 31.432 114.685 31.388 114.548 31.3817C114.39 31.3741 114.236 31.3464 114.084 31.296C113.528 31.1638 113.101 30.985 112.806 30.7596C112.51 30.5367 112.294 30.3126 112.157 30.0872C112.023 29.8592 111.95 29.6427 111.936 29.4374C111.921 29.2271 111.915 29.0621 111.915 28.9362C111.915 28.6038 111.985 28.2852 112.129 27.9855C112.276 27.6833 112.475 27.4201 112.728 27.1984C112.991 26.9667 113.286 26.7879 113.613 26.662C113.96 26.5273 114.319 26.4605 114.691 26.4618C115.014 26.4618 115.321 26.5096 115.612 26.6053C115.9 26.696 116.165 26.8244 116.404 26.9919C116.642 27.1544 116.842 27.3483 117.011 27.5775C117.182 27.8054 117.311 28.0623 117.396 28.3431L115.734 28.901C115.671 28.7146 115.543 28.5647 115.347 28.4501C115.161 28.3355 114.96 28.2789 114.741 28.2789C114.521 28.2789 114.344 28.3532 114.205 28.5005C114.072 28.6428 114.005 28.7901 114.005 28.9362C114.005 29.1138 114.069 29.251 114.199 29.3518C114.33 29.4475 114.474 29.5155 114.626 29.5583C114.741 29.5784 114.851 29.5948 114.962 29.6087C115.07 29.6225 115.177 29.6427 115.283 29.6653C115.643 29.7484 115.957 29.8416 116.219 29.9449C116.485 30.0506 116.715 30.1741 116.91 30.3164Z" fill="white"/>
</g>
<path d="M41.1687 16.302H46.3707C50.7063 16.302 54.2511 12.7761 54.2511 8.40648C54.2511 4.0394 50.7063 0.510971 46.3707 0.510971H41.1687V16.302ZM44.6367 13.2231V3.59236H46.3442C48.8388 3.59236 50.7844 5.67013 50.7844 8.40648C50.7844 11.1441 48.8388 13.2231 46.3442 13.2231H44.6367Z" fill="white"/>
<path d="M58.0857 4.01174C59.083 4.01174 59.9242 3.1693 59.9242 2.17071C59.9242 1.14442 59.083 0.327164 58.0857 0.327164C57.0883 0.327164 56.2484 1.14442 56.2484 2.17071C56.2484 3.17056 57.0883 4.01174 58.0857 4.01174ZM56.4046 16.302H59.7391V5.77469H56.4046V16.302Z" fill="white"/>
<path d="M65.8866 16.5122C68.2515 16.5122 69.6958 15.0653 69.6958 13.0908C69.6958 10.9866 67.9631 10.1442 66.4658 9.56491C65.7027 9.24883 65.335 9.09143 65.335 8.69602C65.335 8.35477 65.5982 8.09284 66.1762 8.09284C66.8587 8.09284 67.4896 8.46054 67.8057 8.85343L69.4868 6.96077C68.6972 6.16996 67.4115 5.56552 65.9407 5.56552C63.5481 5.56552 62.0257 7.14462 62.0257 8.93402C62.0257 11.0382 64.1274 11.751 65.335 12.1967C66.2807 12.5657 66.5968 12.8289 66.5968 13.1966C66.5968 13.6184 66.2291 13.8539 65.6763 13.8539C65.1247 13.8539 64.3893 13.6436 63.9171 12.7496L61.449 13.9861C62.0786 15.6181 64.0216 16.5135 65.8866 16.5135V16.5122Z" fill="white"/>
<path d="M77.6556 8.38142V5.77477H75.1585V1.72375H71.824V5.77477H70.0636V8.38142H71.8228V12.5382C71.8228 14.7759 73.7142 16.5137 75.9468 16.5137C76.6558 16.5137 77.366 16.3538 77.6279 16.1699V13.5658H76.3687C75.6585 13.5658 75.1585 13.013 75.1585 12.1441V8.38142H77.6556Z" fill="white"/>
<path d="M81.043 4.01174C82.0403 4.01174 82.8815 3.1693 82.8815 2.17071C82.8815 1.14442 82.0403 0.327164 81.043 0.327164C80.0456 0.327164 79.2045 1.14442 79.2045 2.17071C79.2045 3.17056 80.0456 4.01174 81.043 4.01174ZM79.3619 16.302H82.6964V5.77469H79.3619V16.302Z" fill="white"/>
<path d="M91.8121 5.56552C90.6032 5.56552 89.5542 6.14352 88.8176 7.06529V5.77456H85.4541V16.3019H88.8176V10.1971C88.8176 9.24883 89.6059 8.53988 90.578 8.53988C91.5489 8.53988 92.2327 9.24883 92.2327 10.1971V16.3019H95.5684V9.64424C95.5684 7.32847 93.8873 5.56552 91.8121 5.56552Z" fill="white"/>
<path d="M103.16 16.5122C106.312 16.5122 108.466 14.6699 108.913 12.0381H105.445C105.103 12.9334 104.237 13.5127 103.16 13.5378C101.715 13.5127 100.665 12.4599 100.665 11.0382C100.665 9.6178 101.715 8.56632 103.16 8.53988C104.237 8.56632 105.103 9.14432 105.445 10.0384H108.913C108.466 7.40655 106.312 5.56552 103.16 5.56552C99.6396 5.56552 97.3011 7.88129 97.3011 11.0382C97.3011 14.1964 99.6396 16.5122 103.16 16.5122Z" fill="white"/>
<path d="M116.977 8.38142V5.77477H114.48V1.72375H111.145V5.77477H109.385V8.38142H111.144V12.5382C111.144 14.7759 113.037 16.5137 115.269 16.5137C115.977 16.5137 116.687 16.3538 116.951 16.1699V13.5658H115.69C114.98 13.5658 114.48 13.013 114.48 12.1441V8.38142H116.977Z" fill="white"/>
</g>
<defs>
<clipPath id="clip0_81_302">
<rect width="117.933" height="35" fill="white"/>
</clipPath>
</defs>
</svg>
