<svg width="40" height="40" viewBox="0 0 40 40" fill="none" xmlns="http://www.w3.org/2000/svg">
<path fill-rule="evenodd" clip-rule="evenodd" d="M20 12.0834C20.6903 12.0834 21.25 12.643 21.25 13.3334V18.75H26.6666C27.357 18.75 27.9166 19.3097 27.9166 20C27.9166 20.6904 27.357 21.25 26.6666 21.25H21.25V26.6667C21.25 27.3571 20.6903 27.9167 20 27.9167C19.3096 27.9167 18.75 27.3571 18.75 26.6667V21.25H13.3333C12.643 21.25 12.0833 20.6904 12.0833 20C12.0833 19.3097 12.643 18.75 13.3333 18.75H18.75V13.3334C18.75 12.643 19.3096 12.0834 20 12.0834Z" fill="#6BE3AA"/>
</svg>
