<svg width="24" height="24" viewBox="0 0 24 24" fill="none" xmlns="http://www.w3.org/2000/svg">
<path fill-rule="evenodd" clip-rule="evenodd" d="M7.75 2C7.75 1.58579 7.41421 1.25 7 1.25C6.58579 1.25 6.25 1.58579 6.25 2V3.25H5C3.48122 3.25 2.25 4.48122 2.25 6V19C2.25 20.5188 3.48122 21.75 5 21.75H19C20.5188 21.75 21.75 20.5188 21.75 19V6C21.75 4.48122 20.5188 3.25 19 3.25H17.75V2C17.75 1.58579 17.4142 1.25 17 1.25C16.5858 1.25 16.25 1.58579 16.25 2V3.25H7.75V2ZM3.75 6C3.75 5.30964 4.30964 4.75 5 4.75H19C19.6904 4.75 20.25 5.30964 20.25 6V7.25H3.75V6ZM3.75 8.75H20.25V19C20.25 19.6904 19.6904 20.25 19 20.25H5C4.30964 20.25 3.75 19.6904 3.75 19V8.75ZM10.082 17.8294C10.1953 17.9427 10.3587 17.9994 10.572 17.9994H14.042C14.2487 17.9994 14.4087 17.946 14.522 17.8394C14.6353 17.726 14.692 17.566 14.692 17.3594C14.692 17.1527 14.6353 16.996 14.522 16.8894C14.4087 16.7827 14.2487 16.7294 14.042 16.7294H13.132V11.4894C13.132 11.276 13.072 11.1194 12.952 11.0194C12.8387 10.9127 12.682 10.8594 12.482 10.8594C12.342 10.8594 12.1987 10.886 12.052 10.9394C11.912 10.9927 11.772 11.0627 11.632 11.1494L10.242 11.9894C10.0953 12.0827 9.99534 12.196 9.94201 12.3294C9.88867 12.456 9.87534 12.586 9.90201 12.7194C9.93534 12.846 9.99867 12.956 10.092 13.0494C10.1853 13.1427 10.2953 13.1994 10.422 13.2194C10.5553 13.2394 10.6987 13.2027 10.852 13.1094L11.582 12.6644V16.7294H10.572C10.3587 16.7294 10.1953 16.7827 10.082 16.8894C9.96867 16.996 9.912 17.1527 9.912 17.3594C9.912 17.5594 9.96867 17.716 10.082 17.8294Z" fill="white"/>
</svg>
