<svg width="100" height="101" viewBox="0 0 100 101" fill="none" xmlns="http://www.w3.org/2000/svg">
<path d="M4.75 10.5C4.75 7.73857 6.98857 5.5 9.75 5.5H51C53.7614 5.5 56 7.73857 56 10.5V17.375C56 20.1364 58.2385 22.375 61 22.375H63.5505C66.2922 22.375 68.5217 24.5781 68.5402 27.3197C68.5755 32.5654 68.6098 40.8287 68.5264 46.2511C68.5213 46.5861 68.5518 46.9188 68.6043 47.2497C70.1455 56.9826 63.4713 63.8866 64.125 79.25C64.7347 93.5781 57.394 95.2929 56.1713 95.4789C56.0543 95.4966 55.9408 95.5 55.8225 95.5H9.75C6.98857 95.5 4.75 93.2614 4.75 90.5V10.5Z" fill="#E2F3EC"/>
<path d="M4.75 8V93C4.75 94.3808 5.86929 95.5 7.25 95.5C8.63071 95.5 9.75 94.3808 9.75 93V8C9.75 6.61929 8.63071 5.5 7.25 5.5C5.86929 5.5 4.75 6.61929 4.75 8Z" fill="#C5E8D9"/>
<path d="M95.3125 78.625V72.375L90.125 71.6406C89.7589 70.2006 89.1853 68.8216 88.4219 67.5469L91.5781 63.3438L87.1562 58.9219L82.9531 62.0781C81.6784 61.3148 80.2994 60.7411 78.8594 60.375L78.125 55.1875H71.875L71.1406 60.375C69.7006 60.7411 68.3216 61.3148 67.0469 62.0781L62.8438 58.9219L58.4219 63.3438L61.5781 67.5469C60.8148 68.8216 60.2411 70.2006 59.875 71.6406L54.6875 72.375V78.625L59.875 79.3594C60.2411 80.7994 60.8148 82.1784 61.5781 83.4531L58.4219 87.6562L62.8438 92.0781L67.0469 88.9219C68.3216 89.6853 69.7006 90.2589 71.1406 90.625L71.6094 93.9844L71.875 95.8125H78.125L78.8594 90.625C80.2994 90.2589 81.6784 89.6853 82.9531 88.9219L87.1562 92.0781L91.5781 87.6562L88.4219 83.4531C89.1853 82.1784 89.7589 80.7994 90.125 79.3594L95.3125 78.625ZM75 83.3125C74.4751 83.3162 73.9513 83.2639 73.4375 83.1562C71.6714 82.7976 70.0836 81.8395 68.9431 80.4441C67.8026 79.0489 67.1796 77.3021 67.1796 75.5C67.1796 73.6979 67.8026 71.9511 68.9431 70.5559C70.0836 69.1605 71.6714 68.2024 73.4375 67.8438C73.9513 67.7361 74.4751 67.6838 75 67.6875C77.072 67.6875 79.0591 68.5106 80.5243 69.9758C81.9894 71.4409 82.8125 73.428 82.8125 75.5C82.8125 77.572 81.9894 79.5591 80.5243 81.0243C79.0591 82.4894 77.072 83.3125 75 83.3125Z" fill="#E2F3EC"/>
<path d="M73.4375 17.6875H64.0625C63.2345 17.685 62.441 17.355 61.8555 16.7695C61.27 16.184 60.94 15.3905 60.9375 14.5625V5.1875L73.4375 17.6875Z" fill="#E2F3EC"/>
<path d="M6.25 89.5625V11.4375C6.25 10.1943 6.74386 9.00201 7.62294 8.12294C8.50201 7.24386 9.6943 6.75 10.9375 6.75H59.375V14.5625C59.375 15.8057 59.8689 16.998 60.748 17.8771C61.627 18.7561 62.8192 19.25 64.0625 19.25H71.875V40.1875C71.875 41.0505 72.5745 41.75 73.4375 41.75C74.3005 41.75 75 41.0505 75 40.1875V17.6875C74.9999 17.2731 74.8353 16.8757 74.5423 16.5829L62.0423 4.08281C61.7493 3.78976 61.3519 3.62509 60.9375 3.625H10.9375C8.86626 3.62747 6.88056 4.45137 5.41596 5.91596C3.95137 7.38056 3.12747 9.36626 3.125 11.4375V89.5625C3.12747 91.6338 3.95137 93.6195 5.41596 95.084C6.88056 96.5486 8.86626 97.3725 10.9375 97.375H57.8125C58.6755 97.375 59.375 96.6755 59.375 95.8125C59.375 94.9495 58.6755 94.25 57.8125 94.25H10.9375C9.6943 94.25 8.50201 93.7561 7.62294 92.877C6.74386 91.998 6.25 90.8057 6.25 89.5625ZM62.5 14.5625V8.95937L69.6656 16.125H64.0625C63.6481 16.125 63.2506 15.9604 62.9576 15.6674C62.6646 15.3744 62.5 14.9769 62.5 14.5625Z" fill="#40986E"/>
<path d="M73.4375 45.5C74.3005 45.5 75 46.1995 75 47.0625C75 47.9255 74.3005 48.625 73.4375 48.625C72.5745 48.625 71.875 47.9255 71.875 47.0625C71.875 46.1995 72.5745 45.5 73.4375 45.5Z" fill="#40986E"/>
<path d="M95.5344 70.8281L91.3437 70.2296C91.0605 69.3485 90.7057 68.492 90.2827 67.6688L92.8219 64.2844C93.0475 63.9835 93.157 63.6112 93.1303 63.2361C93.1036 62.861 92.9425 62.5081 92.6766 62.2421L88.2579 57.8235C87.992 57.5579 87.6394 57.3971 87.2646 57.3704C86.8897 57.3437 86.518 57.453 86.2173 57.6781L82.8312 60.2156C82.0077 59.7935 81.1514 59.4392 80.2704 59.1562L79.6719 54.9656C79.6185 54.5935 79.4326 54.253 79.1485 54.0068C78.8644 53.7605 78.501 53.625 78.125 53.625H71.875C71.499 53.625 71.1356 53.7605 70.8515 54.0068C70.5674 54.253 70.3815 54.5935 70.3281 54.9656L69.7296 59.1562C68.8486 59.4389 67.9921 59.7932 67.1688 60.2156L63.7827 57.6781C63.482 57.453 63.1103 57.3437 62.7354 57.3704C62.3606 57.3971 62.008 57.5579 61.7421 57.8235L57.3235 62.2421C57.0575 62.5081 56.8964 62.861 56.8698 63.2361C56.843 63.6112 56.9525 63.9835 57.1781 64.2844L59.7172 67.6688C59.2943 68.492 58.9395 69.3485 58.6562 70.2296L54.4656 70.8281C54.0935 70.8815 53.753 71.0674 53.5068 71.3515C53.2605 71.6356 53.125 71.999 53.125 72.375V78.625C53.125 79.001 53.2605 79.3644 53.5068 79.6485C53.753 79.9326 54.0935 80.1185 54.4656 80.1719L58.6562 80.7704C58.9395 81.6515 59.2943 82.508 59.7172 83.3312L57.1781 86.7156C56.9525 87.0165 56.843 87.3887 56.8698 87.7639C56.8964 88.139 57.0575 88.4919 57.3235 88.7579L61.7421 93.1766C62.008 93.4421 62.3606 93.6029 62.7354 93.6296C63.1103 93.6562 63.482 93.547 63.7827 93.3219L67.1688 90.7844C67.9921 91.2068 68.8486 91.5611 69.7296 91.8437L70.3281 96.0344C70.3815 96.4065 70.5674 96.747 70.8515 96.9933C71.1356 97.2395 71.499 97.375 71.875 97.375H78.125C78.501 97.375 78.8644 97.2395 79.1485 96.9933C79.4326 96.747 79.6185 96.4065 79.6719 96.0344L80.2704 91.8437C81.1514 91.5607 82.0077 91.2065 82.8312 90.7844L86.2173 93.3219C86.518 93.547 86.8897 93.6562 87.2646 93.6296C87.6394 93.6029 87.992 93.4421 88.2579 93.1766L92.6766 88.7579C92.9425 88.4919 93.1036 88.139 93.1303 87.7639C93.157 87.3887 93.0475 87.0165 92.8219 86.7156L90.2827 83.3312C90.7057 82.508 91.0605 81.6515 91.3437 80.7704L95.5344 80.1719C95.9065 80.1185 96.247 79.9326 96.4933 79.6485C96.7395 79.3644 96.875 79.001 96.875 78.625V72.375C96.875 71.999 96.7395 71.6356 96.4933 71.3515C96.247 71.0674 95.9065 70.8815 95.5344 70.8281ZM93.75 77.2702L89.9015 77.8204C89.5956 77.8641 89.3096 77.9976 89.0796 78.204C88.8496 78.4104 88.686 78.6804 88.6094 78.9797C88.2796 80.2741 87.7655 81.5144 87.0829 82.6625C86.925 82.9288 86.8498 83.2359 86.8668 83.545C86.8838 83.854 86.9921 84.1511 87.1781 84.3984L89.5094 87.5079L87.0094 90.0079L83.8984 87.6765C83.651 87.4911 83.3543 87.3831 83.0455 87.3665C82.7368 87.3498 82.43 87.4251 82.164 87.5829C81.0169 88.2655 79.777 88.7786 78.4829 89.1063C78.1826 89.1824 77.9119 89.3461 77.7049 89.5764C77.4979 89.8068 77.3641 90.0934 77.3204 90.4L76.7702 94.25H73.2298L72.6813 90.4015C72.6375 90.095 72.5036 89.8084 72.2966 89.578C72.0896 89.3476 71.8189 89.184 71.5187 89.1077C70.2246 88.7801 68.9848 88.267 67.8375 87.5844C67.5716 87.4266 67.2649 87.3514 66.9561 87.368C66.6474 87.3848 66.3505 87.4926 66.1031 87.6781L62.9921 90.0094L60.4922 87.5094L62.8235 84.4C63.0095 84.1526 63.1179 83.8556 63.1349 83.5465C63.1518 83.2375 63.0766 82.9304 62.9187 82.664C62.2361 81.5159 61.722 80.2756 61.3923 78.9813C61.3156 78.6819 61.1519 78.412 60.9219 78.2056C60.6919 77.9993 60.4059 77.8657 60.1 77.8219L56.25 77.2702V73.7298L60.0985 73.1796C60.4044 73.1359 60.6904 73.0024 60.9204 72.796C61.1504 72.5896 61.314 72.3196 61.3906 72.0203C61.7204 70.7259 62.2345 69.4856 62.9171 68.3375C63.075 68.0713 63.1502 67.7641 63.1332 67.455C63.1162 67.146 63.0079 66.8489 62.8219 66.6016L60.4906 63.4921L62.9906 60.9922L66.1016 63.3235C66.349 63.5089 66.6457 63.6169 66.9545 63.6335C67.2632 63.6503 67.57 63.5749 67.836 63.4171C68.9831 62.7345 70.2231 62.2214 71.5171 61.8938C71.8174 61.8176 72.0881 61.6539 72.2951 61.4236C72.5021 61.1932 72.6359 60.9066 72.6796 60.6L73.2298 56.75H76.7702L77.3187 60.5985C77.3625 60.905 77.4964 61.1916 77.7034 61.422C77.9104 61.6524 78.1811 61.816 78.4813 61.8923C79.7754 62.2199 81.0153 62.733 82.1625 63.4156C82.4284 63.5734 82.7351 63.6486 83.0439 63.632C83.3526 63.6152 83.6495 63.5074 83.8969 63.3219L87.0079 60.9906L89.5079 63.4906L87.1765 66.6C86.9905 66.8474 86.8821 67.1444 86.8651 67.4535C86.8483 67.7625 86.9234 68.0696 87.0813 68.336C87.7639 69.4841 88.278 70.7244 88.6077 72.0187C88.6844 72.3181 88.8481 72.588 89.0781 72.7944C89.3081 73.0007 89.5941 73.1343 89.9 73.1781L93.75 73.7298V77.2702Z" fill="#40986E"/>
<path d="M75 66.125C73.1458 66.125 71.3333 66.6749 69.7915 67.705C68.2499 68.7351 67.0483 70.1993 66.3387 71.9124C65.629 73.6254 65.4434 75.5104 65.8052 77.329C66.1669 79.1475 67.0598 80.818 68.3709 82.1291C69.682 83.4402 71.3525 84.3331 73.171 84.6949C74.9897 85.0566 76.8747 84.871 78.5877 84.1614C80.3008 83.4517 81.7649 82.2501 82.795 80.7085C83.8252 79.1668 84.375 77.3542 84.375 75.5C84.3725 73.0144 83.384 70.6312 81.6264 68.8736C79.8688 67.116 77.4857 66.1275 75 66.125ZM75 81.75C73.7639 81.75 72.5555 81.3835 71.5278 80.6966C70.4999 80.0099 69.6988 79.0337 69.2258 77.8917C68.7528 76.7497 68.629 75.4931 68.8702 74.2806C69.1113 73.0683 69.7065 71.9546 70.5807 71.0806C71.4547 70.2065 72.5683 69.6112 73.7808 69.3701C74.9932 69.1289 76.2498 69.2527 77.3918 69.7257C78.5339 70.1988 79.5099 70.9999 80.1967 72.0276C80.8835 73.0555 81.25 74.2639 81.25 75.5C81.25 77.1576 80.5915 78.7472 79.4194 79.9194C78.2474 81.0915 76.6577 81.75 75 81.75Z" fill="#40986E"/>
<path d="M12.5 63C12.5 62.137 13.1995 61.4375 14.0625 61.4375H39.0625C39.9255 61.4375 40.625 62.137 40.625 63C40.625 63.863 39.9255 64.5625 39.0625 64.5625H14.0625C13.1995 64.5625 12.5 63.863 12.5 63Z" fill="#40986E"/>
<path d="M12.5 24.5625C12.5 23.6995 13.1995 23 14.0625 23H39.0625C39.9255 23 40.625 23.6995 40.625 24.5625C40.625 25.4255 39.9255 26.125 39.0625 26.125H14.0625C13.1995 26.125 12.5 25.4255 12.5 24.5625Z" fill="#40986E"/>
<path d="M12.5 49.5625C12.5 48.6995 13.1995 48 14.0625 48H39.0625C39.9255 48 40.625 48.6995 40.625 49.5625C40.625 50.4255 39.9255 51.125 39.0625 51.125H14.0625C13.1995 51.125 12.5 50.4255 12.5 49.5625Z" fill="#40986E"/>
<path d="M43.75 63C43.75 62.137 44.4495 61.4375 45.3125 61.4375H48.4375C49.3005 61.4375 50 62.137 50 63C50 63.863 49.3005 64.5625 48.4375 64.5625H45.3125C44.4495 64.5625 43.75 63.863 43.75 63Z" fill="#40986E"/>
<path d="M43.75 24.5625C43.75 23.6995 44.4495 23 45.3125 23H48.4375C49.3005 23 50 23.6995 50 24.5625C50 25.4255 49.3005 26.125 48.4375 26.125H45.3125C44.4495 26.125 43.75 25.4255 43.75 24.5625Z" fill="#40986E"/>
<path d="M53.5 43.3125C53.5 42.4495 54.1995 41.75 55.0625 41.75H61.9375C62.8004 41.75 63.5 42.4495 63.5 43.3125C63.5 44.1755 62.8004 44.875 61.9375 44.875H55.0625C54.1995 44.875 53.5 44.1755 53.5 43.3125Z" fill="#40986E"/>
<path d="M12.5 69.25C12.5 68.387 13.1995 67.6875 14.0625 67.6875H48.4375C49.3005 67.6875 50 68.387 50 69.25C50 70.113 49.3005 70.8125 48.4375 70.8125H14.0625C13.1995 70.8125 12.5 70.113 12.5 69.25Z" fill="#40986E"/>
<path d="M12.5 30.8125C12.5 29.9495 13.1995 29.25 14.0625 29.25H48.4375C49.3005 29.25 50 29.9495 50 30.8125C50 31.6755 49.3005 32.375 48.4375 32.375H14.0625C13.1995 32.375 12.5 31.6755 12.5 30.8125Z" fill="#40986E"/>
<path d="M53.5 30.8125C53.5 29.9495 54.1995 29.25 55.0625 29.25H61.9375C62.8004 29.25 63.5 29.9495 63.5 30.8125C63.5 31.6755 62.8004 32.375 61.9375 32.375H55.0625C54.1995 32.375 53.5 31.6755 53.5 30.8125Z" fill="#40986E"/>
<path d="M12.5 75.5C12.5 74.637 13.1995 73.9375 14.0625 73.9375C14.9255 73.9375 15.625 74.637 15.625 75.5C15.625 76.363 14.9255 77.0625 14.0625 77.0625C13.1995 77.0625 12.5 76.363 12.5 75.5Z" fill="#40986E"/>
<path d="M12.5 37.0625C12.5 36.1995 13.1995 35.5 14.0625 35.5C14.9255 35.5 15.625 36.1995 15.625 37.0625C15.625 37.9255 14.9255 38.625 14.0625 38.625C13.1995 38.625 12.5 37.9255 12.5 37.0625Z" fill="#40986E"/>
<path d="M18.75 75.5C18.75 74.637 19.4495 73.9375 20.3125 73.9375H48.4375C49.3005 73.9375 50 74.637 50 75.5C50 76.363 49.3005 77.0625 48.4375 77.0625H20.3125C19.4495 77.0625 18.75 76.363 18.75 75.5Z" fill="#40986E"/>
<path d="M18.75 37.0625C18.75 36.1995 19.4495 35.5 20.3125 35.5H61.9385C62.8014 35.5 63.501 36.1995 63.501 37.0625C63.501 37.9255 62.8014 38.625 61.9385 38.625H20.3125C19.4495 38.625 18.75 37.9255 18.75 37.0625Z" fill="#40986E"/>
<path d="M12.5 81.75C12.5 80.887 13.1995 80.1875 14.0625 80.1875H48.4375C49.3005 80.1875 50 80.887 50 81.75C50 82.613 49.3005 83.3125 48.4375 83.3125H14.0625C13.1995 83.3125 12.5 82.613 12.5 81.75Z" fill="#40986E"/>
<path d="M12.5 43.3125C12.5 42.4495 13.1995 41.75 14.0625 41.75H48.4375C49.3005 41.75 50 42.4495 50 43.3125C50 44.1755 49.3005 44.875 48.4375 44.875H14.0625C13.1995 44.875 12.5 44.1755 12.5 43.3125Z" fill="#40986E"/>
</svg>
