<svg width="100" height="100" viewBox="0 0 100 100" fill="none" xmlns="http://www.w3.org/2000/svg">
<g clip-path="url(#clip0_824_4685)">
<mask id="mask0_824_4685" style="mask-type:luminance" maskUnits="userSpaceOnUse" x="0" y="0" width="100" height="100">
<path d="M100 0H0V100H100V0Z" fill="white"/>
</mask>
<g mask="url(#mask0_824_4685)">
<path d="M82.5536 28.6772L83.0051 29.1042C91.1821 36.8368 94.8516 48.2052 92.7386 59.2593C89.3187 77.1502 72.0429 88.8811 54.1521 85.4613L52.4203 85.1301C50.0165 84.6706 47.5708 84.4665 45.1241 84.5209L28.6953 84.8865C21.9919 85.0356 15.6499 81.8548 11.7605 76.3931C6.46698 68.9596 6.80336 58.903 12.5818 51.8399L23.6965 38.2539C26.4998 34.8273 29.813 31.8518 33.52 29.4314L40.4626 24.8986C53.6778 16.2703 71.0863 17.8331 82.5536 28.6772Z" fill="#EEF5F1"/>
<mask id="mask1_824_4685" style="mask-type:luminance" maskUnits="userSpaceOnUse" x="1" y="1" width="98" height="98">
<path d="M99 1H1V99H99V1Z" fill="white"/>
</mask>
<g mask="url(#mask1_824_4685)">
<path d="M66.8769 73.0149H33.1218C29.7322 73.0149 26.9844 70.2671 26.9844 66.8775V33.1224C26.9844 29.7328 29.7322 26.985 33.1218 26.985H66.8771C70.2667 26.985 73.0145 29.7328 73.0145 33.1224V66.8777C73.0143 70.2671 70.2665 73.0149 66.8769 73.0149Z" fill="#C5E8D9"/>
<path d="M66.8792 68.4121H33.1241C32.2767 68.4121 31.5898 67.7251 31.5898 66.8778V33.1224C31.5898 32.2751 32.2767 31.5881 33.1241 31.5881H66.8794C67.7268 31.5881 68.4137 32.2751 68.4137 33.1224V66.8778C68.4137 67.7251 67.7268 68.4121 66.8792 68.4121Z" fill="#C5E8D9"/>
<path d="M8.57214 40.7934C10.2666 40.7934 11.6403 39.4197 11.6403 37.7252C11.6403 36.0307 10.2666 34.657 8.57214 34.657C6.87761 34.657 5.50391 36.0307 5.50391 37.7252C5.50391 39.4197 6.87761 40.7934 8.57214 40.7934Z" fill="#C5E8D9"/>
<path d="M91.4276 65.3431C93.1221 65.3431 94.4958 63.9694 94.4958 62.2749C94.4958 60.5804 93.1221 59.2067 91.4276 59.2067C89.7331 59.2067 88.3594 60.5804 88.3594 62.2749C88.3594 63.9694 89.7331 65.3431 91.4276 65.3431Z" fill="#C5E8D9"/>
<path d="M5.50573 79.1511C7.20026 79.1511 8.57396 77.7774 8.57396 76.0829C8.57396 74.3883 7.20026 73.0146 5.50573 73.0146C3.81119 73.0146 2.4375 74.3883 2.4375 76.0829C2.4375 77.7774 3.81119 79.1511 5.50573 79.1511Z" fill="#C5E8D9"/>
<path d="M94.494 26.9855C96.1885 26.9855 97.5622 25.6118 97.5622 23.9172C97.5622 22.2227 96.1885 20.849 94.494 20.849C92.7995 20.849 91.4258 22.2227 91.4258 23.9172C91.4258 25.6118 92.7995 26.9855 94.494 26.9855Z" fill="#C5E8D9"/>
<path d="M62.2753 11.6413C63.9698 11.6413 65.3435 10.2677 65.3435 8.57311C65.3435 6.87858 63.9698 5.50488 62.2753 5.50488C60.5807 5.50488 59.207 6.87858 59.207 8.57311C59.207 10.2677 60.5807 11.6413 62.2753 11.6413Z" fill="#C5E8D9"/>
<path d="M37.7245 94.496C39.419 94.496 40.7928 93.1223 40.7928 91.4277C40.7928 89.7332 39.419 88.3595 37.7245 88.3595C36.0299 88.3595 34.6562 89.7332 34.6562 91.4277C34.6562 93.1223 36.0299 94.496 37.7245 94.496Z" fill="#C5E8D9"/>
<path d="M23.916 8.57262C25.6105 8.57262 26.9842 7.19892 26.9842 5.50439C26.9842 3.80985 25.6105 2.43616 23.916 2.43616C22.2214 2.43616 20.8477 3.80985 20.8477 5.50439C20.8477 7.19892 22.2214 8.57262 23.916 8.57262Z" fill="#C5E8D9"/>
<path d="M76.0839 97.5643C77.7784 97.5643 79.1521 96.1906 79.1521 94.4961C79.1521 92.8015 77.7784 91.4279 76.0839 91.4279C74.3893 91.4279 73.0156 92.8015 73.0156 94.4961C73.0156 96.1906 74.3893 97.5643 76.0839 97.5643Z" fill="#C5E8D9"/>
<path d="M50.0002 63.0628C50.4377 63.0628 50.8542 63.2495 51.145 63.5752C52.1473 64.699 53.6173 65.3432 55.1786 65.3432C57.8637 65.3432 60.1188 63.4635 60.3121 61.0646C60.3525 60.5648 60.6358 60.1162 61.0688 59.8629C62.7589 58.8762 63.8093 57.1545 63.8093 55.3701C63.8093 54.0823 63.2728 52.8311 62.2974 51.8467C61.7056 51.2489 61.7056 50.2854 62.2974 49.6874C63.2728 48.703 63.8093 47.4518 63.8093 46.164C63.8093 43.8469 62.1177 41.8046 59.6003 41.0816C58.8167 40.8569 58.3462 40.0567 58.529 39.262C58.5979 38.9622 58.6308 38.718 58.6308 38.4925C58.6308 36.3775 56.695 34.6567 54.3156 34.6567C53.0854 34.6567 51.9077 35.1295 51.0881 35.9535C50.5097 36.5319 49.4908 36.5319 48.9124 35.9535C48.0928 35.1293 46.9151 34.6567 45.6849 34.6567C43.3056 34.6567 41.3697 36.3777 41.3697 38.4925C41.3697 38.7457 41.3982 39.0005 41.4522 39.2484C41.626 40.0394 41.157 40.8292 40.3778 41.0531C37.8741 41.7745 36.1914 43.8281 36.1914 46.164C36.1914 47.2811 36.593 48.3583 37.3527 49.2807C37.8036 49.8298 37.8201 50.6165 37.3902 51.1829C36.6066 52.2182 36.1914 53.4013 36.1914 54.6029C36.1914 56.5177 37.2283 58.3525 38.9664 59.5115C39.389 59.7933 39.6451 60.2666 39.6497 60.7754C39.6708 63.2941 41.9918 65.3431 44.8221 65.3431C46.3834 65.3431 47.8534 64.6988 48.8558 63.5751C49.1461 63.2493 49.5626 63.0628 50.0002 63.0628Z" fill="#FDFDFD"/>
<path d="M97.5638 48.5645H74.4501V45.2984H80.6863C81.4791 45.2984 82.1218 44.6556 82.1218 43.8628C82.1218 43.07 81.4791 42.4273 80.6863 42.4273H74.4501V39.1609H78.7797C80.3926 39.1609 81.9092 38.5329 83.0495 37.3924L92.4908 27.9511C93.106 28.2575 93.788 28.4206 94.4954 28.4206C95.6986 28.4206 96.8296 27.9521 97.6804 27.1014C98.5312 26.2506 98.9998 25.1196 98.9998 23.9165C98.9998 22.7133 98.5312 21.5823 97.6804 20.7315C96.8298 19.8807 95.6986 19.4121 94.4954 19.4121C93.2922 19.4121 92.1612 19.8807 91.3104 20.7313C90.4596 21.5821 89.9911 22.7131 89.9911 23.9163C89.9911 24.6237 90.1541 25.3057 90.4606 25.9209L81.0193 35.3621C80.4212 35.9603 79.6257 36.2899 78.7795 36.2899H74.4499V33.1225C74.4499 28.9468 71.0526 25.5497 66.8771 25.5497H63.7097V12.8414C65.4913 12.2405 66.7784 10.5548 66.7784 8.57301C66.7784 6.08933 64.7577 4.06886 62.2742 4.06886C59.7907 4.06886 57.77 6.08952 57.77 8.57301C57.77 10.5548 59.0571 12.2403 60.8387 12.8414V25.5495H57.5725V19.3133C57.5725 18.5205 56.9298 17.8778 56.137 17.8778C55.3442 17.8778 54.7014 18.5205 54.7014 19.3133V25.5495H51.4351V2.43579C51.4351 1.64298 50.7924 1.00024 49.9996 1.00024C49.2068 1.00024 48.564 1.64298 48.564 2.43579V25.5495H45.2979V19.3133C45.2979 18.5205 44.6551 17.8778 43.8623 17.8778C43.0695 17.8778 42.4268 18.5205 42.4268 19.3133V25.5495H39.1606V21.2201C39.1606 19.6072 38.5325 18.0906 37.3919 16.9503L27.9473 7.50573C28.7817 5.82117 28.502 3.72069 27.1011 2.3196C25.3448 0.563461 22.4873 0.563652 20.7312 2.3196C18.975 4.07575 18.975 6.93324 20.7312 8.68958C21.6093 9.56755 22.7627 10.0066 23.9162 10.0066C24.6029 10.0066 25.2885 9.8472 25.9173 9.53578L35.3618 18.9805C35.9602 19.5786 36.2896 20.3741 36.2896 21.2201V25.5495H33.1222C32.4819 25.5495 31.8451 25.6299 31.2296 25.7882C30.4618 25.9857 29.9996 26.7684 30.1971 27.5363C30.3947 28.3042 31.1775 28.7665 31.9452 28.5688C32.3271 28.4706 32.7229 28.4206 33.122 28.4206H66.8771C69.4697 28.4206 71.5788 30.5299 71.5788 33.1223V66.8776C71.5788 67.2763 71.529 67.6719 71.431 68.0534C71.2337 68.8213 71.6961 69.6038 72.4639 69.8011C72.5837 69.832 72.7039 69.8467 72.8224 69.8467C73.4619 69.8467 74.0451 69.4162 74.2116 68.7681C74.3697 68.1533 74.4499 67.5171 74.4499 66.8774V63.71H87.1581C87.7589 65.4916 89.4446 66.7787 91.4264 66.7787C93.9101 66.7787 95.9306 64.7582 95.9306 62.2745C95.9306 59.7908 93.9099 57.7703 91.4264 57.7703C89.4446 57.7703 87.7591 59.0574 87.1581 60.839H74.4499V57.5726H80.6861C81.4789 57.5726 82.1216 56.9299 82.1216 56.1371C82.1216 55.3443 81.4789 54.7015 80.6861 54.7015H74.4499V51.4356H97.5638C98.3566 51.4356 98.9994 50.7929 98.9994 50C98.9994 49.2072 98.3566 48.5645 97.5638 48.5645ZM93.3405 22.7617C93.649 22.4532 94.059 22.2834 94.4952 22.2834C94.9314 22.2834 95.3414 22.4532 95.65 22.7617C95.9585 23.0703 96.1283 23.4802 96.1283 23.9165C96.1283 24.3527 95.9585 24.7627 95.65 25.0712C95.3414 25.3798 94.9314 25.5495 94.4952 25.5495C94.059 25.5495 93.649 25.3798 93.3405 25.0712C93.0319 24.7627 92.8621 24.3527 92.8621 23.9165C92.8621 23.4802 93.0319 23.0701 93.3405 22.7617ZM62.2742 6.93994C63.1748 6.93994 63.9073 7.67264 63.9073 8.57301C63.9073 9.47338 63.1746 10.2061 62.2742 10.2061C61.3738 10.2061 60.6411 9.47338 60.6411 8.57301C60.6411 7.67264 61.3736 6.93994 62.2742 6.93994ZM22.761 6.65934C22.1242 6.02253 22.1242 4.98645 22.761 4.34984C23.0795 4.03134 23.4976 3.87228 23.916 3.87228C24.3342 3.87228 24.7524 4.03153 25.0707 4.34984C25.7075 4.98665 25.7075 6.02272 25.0707 6.65953C24.4341 7.29595 23.398 7.29614 22.761 6.65934ZM91.4266 60.6416C92.3272 60.6416 93.0597 61.3743 93.0597 62.2747C93.0597 63.1753 92.327 63.9078 91.4266 63.9078C90.5262 63.9078 89.7935 63.1751 89.7935 62.2747C89.7933 61.3741 90.526 60.6416 91.4266 60.6416Z" fill="#40986E"/>
<path d="M74.0823 90.4642L64.6377 81.0195C64.0394 80.4214 63.71 79.6259 63.71 78.7799V74.4505H66.8774C67.5176 74.4505 68.1542 74.3701 68.7696 74.2118C69.5373 74.0143 69.9996 73.2316 69.802 72.4637C69.6045 71.696 68.8222 71.2337 68.0539 71.4313C67.6723 71.5294 67.2764 71.5792 66.8774 71.5792H33.1222C30.5297 71.5792 28.4206 69.4699 28.4206 66.8775V33.1224C28.4206 32.7233 28.4703 32.3275 28.5685 31.946C28.7662 31.1783 28.304 30.3956 27.5363 30.1979C26.7683 30.0002 25.9857 30.4624 25.7882 31.2302C25.6297 31.8453 25.5495 32.482 25.5495 33.1224V36.2898H12.8411C12.2403 34.5082 10.5546 33.2212 8.57277 33.2212C6.08909 33.2212 4.06861 35.2416 4.06861 37.7253C4.06861 40.209 6.08928 42.2295 8.57277 42.2295C10.5546 42.2295 12.2401 40.9425 12.8411 39.1609H25.5493V42.4272H19.3131C18.5203 42.4272 17.8776 43.0699 17.8776 43.8627C17.8776 44.6555 18.5203 45.2983 19.3131 45.2983H25.5493V48.5644H2.43554C1.64274 48.5644 1 49.2072 1 50C1 50.7928 1.64274 51.4355 2.43554 51.4355H25.5493V54.7017H19.3131C18.5203 54.7017 17.8776 55.3444 17.8776 56.1372C17.8776 56.93 18.5203 57.5727 19.3131 57.5727H25.5493V60.8391H21.2197C19.6067 60.8391 18.0902 61.4671 16.9498 62.6077L7.50855 72.0489C6.89338 71.7425 6.2114 71.5794 5.50396 71.5794C4.30079 71.5794 3.16977 72.048 2.31898 72.8986C1.46856 73.7494 1 74.8806 1 76.0836C1 77.2865 1.46856 78.4178 2.31936 79.2686C3.16996 80.1193 4.30117 80.5877 5.50435 80.5877C6.70752 80.5877 7.83854 80.1192 8.68933 79.2686C9.54013 78.4178 10.0087 77.2867 10.0087 76.0836C10.0087 75.3761 9.84561 74.6941 9.53917 74.079L18.9804 64.6377C19.5786 64.0396 20.3741 63.71 21.2203 63.71H25.5499V66.8773C25.5499 71.053 28.9471 74.4501 33.1226 74.4501H36.29V87.1583C34.5084 87.7591 33.2214 89.4448 33.2214 91.4266C33.2214 93.9103 35.2421 95.9308 37.7255 95.9308C40.209 95.9308 42.2297 93.9101 42.2297 91.4266C42.2297 89.4448 40.9427 87.7593 39.1611 87.1583V74.4501H42.4272V80.6863C42.4272 81.4791 43.07 82.1218 43.8628 82.1218C44.6556 82.1218 45.2983 81.4791 45.2983 80.6863V74.4501H48.5643V97.5642C48.5643 98.357 49.207 98.9998 49.9998 98.9998C50.7926 98.9998 51.4353 98.357 51.4353 97.5642V74.4505H54.7015V80.6867C54.7015 81.4795 55.3442 82.1222 56.137 82.1222C56.9298 82.1222 57.5726 81.4795 57.5726 80.6867V74.4505H60.8387V78.7799C60.8387 80.3929 61.4669 81.9094 62.6075 83.0498L72.052 92.4943C71.2177 94.1788 71.4973 96.2793 72.8984 97.6804C73.7764 98.5586 74.93 98.9975 76.0834 98.9975C77.2368 98.9975 78.3904 98.5586 79.2684 97.6804C81.0245 95.9243 81.0245 93.0668 79.2684 91.3106C77.8675 89.9095 75.7668 89.6299 74.0823 90.4642ZM8.57277 39.3584C7.6722 39.3584 6.9397 38.6257 6.9397 37.7253C6.9397 36.8248 7.6724 36.0923 8.57277 36.0923C9.47314 36.0923 10.2058 36.825 10.2058 37.7253C10.206 38.6259 9.47333 39.3584 8.57277 39.3584ZM6.6589 77.2383C6.35036 77.5469 5.94037 77.7166 5.50415 77.7166C5.06794 77.7166 4.65795 77.5469 4.3494 77.2383C4.04086 76.9298 3.87108 76.5198 3.87108 76.0836C3.87108 75.6473 4.04086 75.2374 4.3494 74.9288C4.65795 74.6203 5.06794 74.4505 5.50415 74.4505C5.94037 74.4505 6.35036 74.6203 6.6589 74.9288C6.96745 75.2374 7.13723 75.6473 7.13723 76.0836C7.13723 76.5198 6.96745 76.93 6.6589 77.2383ZM37.7252 93.0601C36.8246 93.0601 36.0921 92.3274 36.0921 91.427C36.0921 90.5266 36.8248 89.7939 37.7252 89.7939C38.6255 89.7939 39.3582 90.5266 39.3582 91.427C39.3582 92.3274 38.6257 93.0601 37.7252 93.0601ZM77.2383 95.6504C76.6015 96.2872 75.5655 96.287 74.9286 95.6504C74.2918 95.0136 74.2918 93.9775 74.9286 93.3409C75.2471 93.0226 75.6654 92.8633 76.0836 92.8633C76.5018 92.8633 76.92 93.0226 77.2383 93.3409C77.875 93.9775 77.875 95.0136 77.2383 95.6504Z" fill="#40986E"/>
<path d="M38.2098 60.7369V60.7403C38.2098 64.07 41.1767 66.779 44.8238 66.779C46.9197 66.779 48.7895 65.8834 50.0021 64.4903C51.2146 65.8834 53.0845 66.779 55.1803 66.779C58.6901 66.779 61.5687 64.2697 61.7804 61.113C63.9121 59.8761 65.2464 57.7096 65.2464 55.3703C65.2464 53.6495 64.5127 52.008 63.25 50.7673C64.5125 49.5266 65.2464 47.885 65.2464 46.1644C65.2464 43.0943 63.0008 40.4936 59.9266 39.6486C60.0175 39.2732 60.0681 38.8872 60.0681 38.4927C60.0681 35.586 57.4881 33.2212 54.3173 33.2212C52.5996 33.2212 51.0567 33.9158 50.0021 35.0137C48.9474 33.9158 47.4043 33.2212 45.6868 33.2212C42.5158 33.2212 39.936 35.586 39.936 38.4927C39.936 38.8872 39.9866 39.2732 40.0775 39.6486C37.0033 40.4935 34.7578 43.0941 34.7578 46.1644C34.7578 47.6648 35.2887 49.0805 36.2697 50.2496C35.3105 51.4912 34.7578 52.9985 34.7578 54.6033C34.7574 57.0441 36.0616 59.3232 38.2098 60.7369ZM42.1986 42.2303C42.2115 42.2306 42.2243 42.2324 42.2369 42.2324C42.5646 42.2324 42.894 42.1208 43.1637 41.8924C43.714 41.4266 43.8244 40.636 43.455 40.0414C43.4441 40.0237 43.4342 40.0058 43.4227 39.9887C43.4168 39.9801 43.4097 39.9719 43.4035 39.9633C43.3813 39.9321 43.3586 39.9014 43.3339 39.872L43.3318 39.8693C43.0923 39.5862 42.8066 39.1176 42.8066 38.4925C42.8066 37.1689 44.0985 36.0921 45.6862 36.0921C47.274 36.0921 48.5659 37.1689 48.5659 38.4925C48.5659 39.2853 49.2087 39.928 50.0015 39.928C50.7943 39.928 51.437 39.2853 51.437 38.4925C51.437 37.1689 52.729 36.0921 54.3167 36.0921C55.9044 36.0921 57.1964 37.1689 57.1964 38.4925C57.1964 38.8462 57.1038 39.1479 56.9811 39.3959C56.1646 39.4731 55.3748 39.6704 54.6251 39.9866C53.8945 40.2946 53.5521 41.1366 53.86 41.8672C54.168 42.5976 55.01 42.9404 55.7406 42.6322C56.3611 42.3706 57.0287 42.236 57.7251 42.2306C57.7389 42.231 57.7525 42.2324 57.7662 42.2324C57.7791 42.2324 57.7917 42.2306 57.8045 42.2303C60.3278 42.2467 62.3747 44.0048 62.3747 46.164C62.3747 47.5213 61.549 48.7673 60.1657 49.4976C59.6948 49.746 59.4001 50.2347 59.4001 50.7671C59.4001 51.2996 59.6948 51.7883 60.1657 52.0367C61.549 52.7668 62.3747 54.013 62.3747 55.3703C62.3747 56.3822 61.9044 57.3475 61.1101 58.0693C60.3554 56.6718 59.0215 55.5594 57.3361 55.0299C56.5801 54.7924 55.7741 55.2129 55.5364 55.9692C55.2986 56.7256 55.7193 57.5314 56.4756 57.7689C57.9391 58.2289 58.9225 59.4231 58.9225 60.7405C58.9225 62.4871 57.2435 63.9081 55.1796 63.9081C53.1158 63.9081 51.4368 62.4871 51.4368 60.7405V51.5345C51.4368 49.7879 53.1158 48.3671 55.1796 48.3671C55.9724 48.3671 56.6151 47.7244 56.6151 46.9316C56.6151 46.1388 55.9724 45.496 55.1796 45.496C53.7911 45.496 52.5018 45.8896 51.4368 46.5597V44.726C51.4368 43.9332 50.7941 43.2905 50.0013 43.2905C49.2085 43.2905 48.5658 43.9332 48.5658 44.726V52.6956C48.0826 52.3924 47.5528 52.1414 46.9798 51.9613C46.2229 51.7236 45.4175 52.1443 45.18 52.9004C44.9423 53.6568 45.3628 54.4626 46.119 54.7003C47.5825 55.1603 48.5658 56.3545 48.5658 57.6717V60.7403C48.5658 62.4869 46.8867 63.9079 44.823 63.9079C42.7591 63.9079 41.0801 62.4869 41.0801 60.7403C41.0801 59.9917 41.3974 59.264 41.9736 58.6913C42.5359 58.1324 42.5386 57.2234 41.9797 56.6611C41.4208 56.0987 40.512 56.0961 39.9496 56.655C39.6057 56.997 39.3096 57.3706 39.0634 57.7678C38.1569 56.9103 37.6277 55.7822 37.6277 54.6029C37.6277 52.476 39.2969 50.6075 41.687 50.0591C42.4597 49.8819 42.9425 49.1117 42.7652 48.339C42.588 47.5661 41.8176 47.0835 41.045 47.2608C40.0829 47.4815 39.197 47.8499 38.4115 48.3336C37.9022 47.6939 37.6279 46.9448 37.6279 46.164C37.6285 44.0048 39.6753 42.2469 42.1986 42.2303Z" fill="#40986E"/>
</g>
</g>
</g>
<defs>
<clipPath id="clip0_824_4685">
<rect width="100" height="100" fill="white"/>
</clipPath>
</defs>
</svg>
