<svg width="101" height="100" viewBox="0 0 101 100" fill="none" xmlns="http://www.w3.org/2000/svg">
<mask id="mask0_824_4891" style="mask-type:luminance" maskUnits="userSpaceOnUse" x="0" y="0" width="101" height="100">
<path d="M100.332 0H0.332031V100H100.332V0Z" fill="white"/>
</mask>
<g mask="url(#mask0_824_4891)">
<path d="M48.2728 71.4531L46.2523 70.2822C38.8742 66.0067 34.332 58.1249 34.332 49.5975C34.332 36.3942 45.0354 25.6908 58.2387 25.6908H62.8652C64.6924 25.6908 66.5154 25.5153 68.309 25.1666L82.8013 22.35C87.4434 21.4477 92.2424 22.7308 95.8149 25.8293C101.449 30.7163 102.766 38.9414 98.939 45.3432L92.5975 55.9506C90.9794 58.6571 88.9465 61.0928 86.5729 63.1688L80.6973 68.3076C71.6793 76.1948 58.6386 77.4599 48.2728 71.4531Z" fill="#EEF5F1"/>
<mask id="mask1_824_4891" style="mask-type:luminance" maskUnits="userSpaceOnUse" x="10" y="10" width="81" height="80">
<path d="M90.5 10H10.5V90H90.5V10Z" fill="white"/>
</mask>
<g mask="url(#mask1_824_4891)">
<path d="M81.1653 12.6667V36.0134C73.7956 30.1111 63.4226 29.7554 55.6659 35.139C47.9091 40.5225 44.6139 50.3646 47.5653 59.3334H13.1653C12.429 59.3334 11.832 58.7364 11.832 58V12.6667C11.832 11.9303 12.429 11.3334 13.1653 11.3334H79.832C80.5684 11.3334 81.1653 11.9303 81.1653 12.6667Z" fill="#E2F3EC"/>
<path d="M65.8526 31.4334C65.186 31.3707 64.5193 31.3334 63.8353 31.3334C56.9923 31.3328 50.5644 34.6149 46.5521 40.1582C42.5398 45.7015 41.4302 52.8331 43.5686 59.3334H47.5686C45.5422 53.1657 46.4345 46.4109 49.9929 40.981C53.5514 35.5511 59.3887 32.037 65.8526 31.4334Z" fill="#C5E8D9"/>
<path d="M79.832 11.3334H75.832C76.5684 11.3334 77.1653 11.9303 77.1653 12.6667V33.4947C78.5882 34.183 79.9298 35.0277 81.1653 36.0134V12.6667C81.1653 11.9303 80.5684 11.3334 79.832 11.3334Z" fill="#C5E8D9"/>
<path d="M89.168 52.6666C89.168 62.6236 82.2802 71.2564 72.5717 73.4673C62.8633 75.6783 52.9166 70.8793 48.6051 61.9042C44.2936 52.9291 46.7641 42.165 54.5578 35.9682C62.3514 29.7715 73.3953 29.7901 81.168 36.0133C86.2247 40.0619 89.168 46.1888 89.168 52.6666Z" fill="#E2F3EC"/>
<path d="M81.1654 36.0134C77.3859 32.9762 72.6806 31.3246 67.832 31.3334C67.1653 31.3334 66.4987 31.3734 65.8493 31.4334C76.7774 32.5033 85.1085 41.6936 85.104 52.6739C85.0995 63.6543 76.761 72.8378 65.832 73.8987C66.4987 73.9601 67.1573 74.0001 67.832 74.0001C76.8905 74.0001 84.9613 68.2794 87.9614 59.7322C90.9615 51.1849 88.2366 41.675 81.1654 36.0134Z" fill="#C5E8D9"/>
<path d="M56.9918 71.0534L40.9385 87.1067C38.8527 89.1864 35.4775 89.1864 33.3918 87.1067C31.3121 85.021 31.3121 81.6457 33.3918 79.56L39.0585 73.9067L43.7651 69.1867L49.4451 63.5067" fill="#E2F3EC"/>
<path d="M54.9374 69.1067L36.9374 87.1067C36.4325 87.6124 35.8307 88.0111 35.168 88.2787C37.1521 89.0809 39.4236 88.6195 40.9374 87.1067L56.9907 71.0534" fill="#C5E8D9"/>
<path d="M11.832 58C11.832 58.7364 12.429 59.3334 13.1653 59.3334H17.1653C16.429 59.3334 15.832 58.7364 15.832 58V12.6667C15.832 11.9303 16.429 11.3334 17.1653 11.3334H13.1653C12.429 11.3334 11.832 11.9303 11.832 12.6667V58Z" fill="white"/>
<path d="M10.5 47.3334H13.1667V58H10.5V47.3334Z" fill="white"/>
<path d="M11.8333 54C12.5697 54 13.1667 53.4031 13.1667 52.6667C13.1667 51.9303 12.5697 51.3334 11.8333 51.3334C11.097 51.3334 10.5 51.9303 10.5 52.6667C10.5 53.4031 11.097 54 11.8333 54Z" fill="#40986E"/>
<path d="M13.1667 60.6667H42.5C43.2364 60.6667 43.8333 60.0698 43.8333 59.3334C43.8333 58.597 43.2364 58.0001 42.5 58.0001H13.1667C13.1351 57.2825 12.5515 56.7128 11.8333 56.6987H11.8053C11.0872 56.7016 10.5051 57.2819 10.5 58.0001C10.5 59.4728 11.6939 60.6667 13.1667 60.6667Z" fill="#40986E"/>
<path d="M10.5 30.0493V47.3333C10.5 48.0697 11.097 48.6667 11.8333 48.6667C12.5697 48.6667 13.1667 48.0697 13.1667 47.3333V30.0493V27.3333C13.1667 26.597 12.5697 26 11.8333 26C11.097 26 10.5 26.597 10.5 27.3333V30.0493Z" fill="#40986E"/>
<path d="M10.5 20.6667C10.5 21.403 11.097 22 11.8333 22C12.5697 22 13.1667 21.403 13.1667 20.6667V12.6667H79.8333V30C79.8333 30.7364 80.4303 31.3333 81.1667 31.3333C81.903 31.3333 82.5 30.7364 82.5 30V12.6667C82.5 11.1939 81.3061 10 79.8333 10H13.1667C11.6939 10 10.5 11.1939 10.5 12.6667V20.6667Z" fill="#40986E"/>
<path d="M18.4974 19.3334C19.2338 19.3334 19.8308 18.7365 19.8308 18.0001C19.8308 17.2637 19.2338 16.6667 18.4974 16.6667C17.7611 16.6667 17.1641 17.2637 17.1641 18.0001C17.1641 18.7365 17.7611 19.3334 18.4974 19.3334Z" fill="#40986E"/>
<path d="M23.8333 19.3334C24.5697 19.3334 25.1667 18.7365 25.1667 18.0001C25.1667 17.2637 24.5697 16.6667 23.8333 16.6667C23.097 16.6667 22.5 17.2637 22.5 18.0001C22.5 18.7365 23.097 19.3334 23.8333 19.3334Z" fill="#40986E"/>
<path d="M29.1653 19.3334C29.9017 19.3334 30.4987 18.7365 30.4987 18.0001C30.4987 17.2637 29.9017 16.6667 29.1653 16.6667C28.429 16.6667 27.832 17.2637 27.832 18.0001C27.832 18.7365 28.429 19.3334 29.1653 19.3334Z" fill="#40986E"/>
<path d="M17.5583 42.9427C18.0789 43.4632 18.9229 43.4632 19.4436 42.9427L27.8343 34.552L32.2249 38.9427C32.7456 39.4632 33.5896 39.4632 34.1103 38.9427L43.8343 29.2187L48.2249 33.6094C48.7456 34.1299 49.5896 34.1299 50.1103 33.6094L61.1676 22.552L65.5583 26.9427C66.0789 27.4632 66.9229 27.4632 67.4436 26.9427L75.4436 18.9427C75.7902 18.6079 75.9292 18.1122 75.8072 17.646C75.6852 17.1798 75.3211 16.8158 74.855 16.6938C74.3888 16.5717 73.893 16.7107 73.5583 17.0574L66.5009 24.1147L62.1103 19.724C61.5896 19.2035 60.7456 19.2035 60.2249 19.724L49.1676 30.7814L44.7769 26.3907C44.2563 25.8702 43.4123 25.8702 42.8916 26.3907L33.1676 36.1147L28.7769 31.724C28.2563 31.2035 27.4123 31.2035 26.8916 31.724L17.5583 41.0574C17.0378 41.578 17.0378 42.422 17.5583 42.9427Z" fill="#40986E"/>
<path d="M67.8335 30C59.884 29.9926 52.5128 34.1541 48.4122 40.9643C44.3117 47.7746 44.0824 56.2363 47.8082 63.2587L42.8242 68.244C42.3024 68.7646 42.3016 69.6096 42.8222 70.1313C43.3428 70.6531 44.1878 70.654 44.7095 70.1333L49.2428 65.6C50.7809 67.8044 52.6961 69.7201 54.9002 71.2587L39.9975 86.164C38.4327 87.7148 35.9113 87.7178 34.3428 86.1707C32.7779 84.6072 32.7743 82.0719 34.3348 80.504L40.0015 74.8507C40.5076 74.3282 40.5016 73.4966 39.988 72.9815C39.4744 72.4665 38.6427 72.4581 38.1188 72.9627L32.4442 78.624C29.8483 81.2327 29.8525 85.4499 32.4535 88.0534C35.0632 90.643 39.2732 90.643 41.8828 88.0534L57.2415 72.692C65.575 77.1111 75.7742 75.9073 82.8499 69.6695C89.9256 63.4317 92.3986 53.464 89.0592 44.6422C85.7199 35.8204 77.2662 29.9888 67.8335 30ZM67.8335 72.6667C56.7878 72.6667 47.8335 63.7124 47.8335 52.6667C47.8335 41.621 56.7878 32.6667 67.8335 32.6667C78.8792 32.6667 87.8335 41.621 87.8335 52.6667C87.821 63.7072 78.874 72.6542 67.8335 72.6667Z" fill="#40986E"/>
<path d="M63.4707 37.276C56.5946 39.239 51.8479 45.5159 51.832 52.6666C51.832 53.403 52.429 54 53.1653 54C53.9017 54 54.4987 53.403 54.4987 52.6666C54.511 46.7094 58.465 41.4796 64.1934 39.844C64.6521 39.7149 65.0071 39.3509 65.1247 38.8891C65.2422 38.4272 65.1045 37.9378 64.7633 37.6051C64.4222 37.2723 63.9294 37.1469 63.4707 37.276Z" fill="#40986E"/>
</g>
</g>
</svg>
