<svg width="100" height="100" viewBox="0 0 100 100" fill="none" xmlns="http://www.w3.org/2000/svg">
<g clip-path="url(#clip0_824_4851)">
<mask id="mask0_824_4851" style="mask-type:luminance" maskUnits="userSpaceOnUse" x="0" y="0" width="100" height="100">
<path d="M100 0H0V100H100V0Z" fill="white"/>
</mask>
<g mask="url(#mask0_824_4851)">
<path d="M6.01626 51.5894L7.33052 48.7026C7.99134 47.2511 8.33328 45.6748 8.33328 44.0799C8.33328 36.2956 16.1039 30.9042 23.3956 33.6294L53.1148 44.7365C56.1612 45.8751 59.5128 45.8951 62.5725 44.793C72.1403 41.3467 82.0028 49.1373 80.8655 59.2431L79.3333 72.8583C76.6352 83.7357 67.3855 91.7394 56.2332 92.8466L46.0772 93.8549C38.5779 94.5994 31.0343 92.9669 24.5138 89.1884L16.553 84.5753C5.07956 77.9266 0.521761 63.6582 6.01626 51.5894Z" fill="#EEF5F1"/>
<path d="M69.943 51.25H77.893C78.1879 52.084 78.7681 52.787 79.5311 53.2346C80.2941 53.6822 81.1908 53.8456 82.0627 53.696C82.9345 53.5464 83.7255 53.0934 84.2956 52.4171C84.8658 51.7408 85.1785 50.8846 85.1785 50C85.1785 49.1154 84.8658 48.2593 84.2956 47.5829C83.7255 46.9066 82.9345 46.4536 82.0627 46.304C81.1908 46.1544 80.2941 46.3179 79.5311 46.7655C78.7681 47.2131 78.1879 47.916 77.893 48.75H69.943C69.6803 48.0261 69.201 47.4006 68.5703 46.9586C67.9396 46.5166 67.1882 46.2794 66.418 46.2794C65.6479 46.2794 64.8964 46.5166 64.2657 46.9586C63.635 47.4006 63.1558 48.0261 62.893 48.75H54.943C54.6989 48.0643 54.2655 47.4619 53.693 47.0125L61.9305 38.75H77.893C78.1879 39.584 78.7681 40.287 79.5311 40.7346C80.2941 41.1822 81.1908 41.3456 82.0627 41.196C82.9345 41.0464 83.7255 40.5934 84.2956 39.9171C84.8658 39.2408 85.1785 38.3846 85.1785 37.5C85.1785 36.6154 84.8658 35.7593 84.2956 35.0829C83.7255 34.4066 82.9345 33.9536 82.0627 33.804C81.1908 33.6544 80.2941 33.8179 79.5311 34.2655C78.7681 34.7131 78.1879 35.416 77.893 36.25H61.418C61.2535 36.2491 61.0904 36.2806 60.9381 36.3428C60.7858 36.405 60.6473 36.4967 60.5305 36.6125L50.843 46.3125C50.1777 46.4165 49.5528 46.6978 49.0337 47.1267C48.5146 47.5556 48.1206 48.1163 47.893 48.75H40.168V42.5C40.169 42.3355 40.1374 42.1724 40.0752 42.0201C40.013 41.8678 39.9214 41.7293 39.8055 41.6125L32.3055 34.1125C32.1887 33.9967 32.0502 33.905 31.8979 33.8428C31.7456 33.7806 31.5825 33.7491 31.418 33.75H16.418C16.0865 33.75 15.7685 33.8817 15.5341 34.1161C15.2997 34.3506 15.168 34.6685 15.168 35V65C15.168 65.3315 15.2997 65.6495 15.5341 65.8839C15.7685 66.1183 16.0865 66.25 16.418 66.25H38.918C39.2495 66.25 39.5675 66.1183 39.8019 65.8839C40.0363 65.6495 40.168 65.3315 40.168 65V51.25H47.893C48.1558 51.974 48.635 52.5994 49.2657 53.0415C49.8964 53.4835 50.6479 53.7206 51.418 53.7206C52.1882 53.7206 52.9396 53.4835 53.5703 53.0415C54.201 52.5994 54.6803 51.974 54.943 51.25H62.893C63.1112 51.8954 63.5012 52.4691 64.0209 52.9096C64.5407 53.35 65.1706 53.6406 65.843 53.75L75.5305 63.45C75.7763 63.6613 76.0945 63.7689 76.418 63.75H77.893C78.1879 64.584 78.7681 65.287 79.5311 65.7346C80.2941 66.1822 81.1908 66.3456 82.0627 66.196C82.9345 66.0464 83.7255 65.5934 84.2956 64.9171C84.8658 64.2408 85.1785 63.3846 85.1785 62.5C85.1785 61.6154 84.8658 60.7593 84.2956 60.083C83.7255 59.4066 82.9345 58.9536 82.0627 58.804C81.1908 58.6544 80.2941 58.8179 79.5311 59.2655C78.7681 59.7131 78.1879 60.416 77.893 61.25H76.9305L68.668 52.9875C69.2497 52.5415 69.6921 51.9388 69.943 51.25ZM81.418 36.25C81.6652 36.25 81.9069 36.3233 82.1125 36.4607C82.318 36.598 82.4782 36.7933 82.5729 37.0217C82.6675 37.2501 82.6922 37.5014 82.644 37.7439C82.5958 37.9864 82.4767 38.2091 82.3019 38.3839C82.1271 38.5587 81.9043 38.6778 81.6619 38.726C81.4194 38.7742 81.1681 38.7495 80.9396 38.6549C80.7112 38.5603 80.516 38.4 80.3787 38.1945C80.2413 37.9889 80.168 37.7472 80.168 37.5C80.168 37.1685 80.2997 36.8506 80.5341 36.6161C80.7685 36.3817 81.0865 36.25 81.418 36.25ZM32.668 38.0125L35.9055 41.25H32.668V38.0125ZM37.668 63.75H17.668V36.25H30.168V42.5C30.168 42.8315 30.2997 43.1495 30.5341 43.3839C30.7685 43.6183 31.0865 43.75 31.418 43.75H37.668V63.75ZM81.418 61.25C81.6652 61.25 81.9069 61.3233 82.1125 61.4607C82.318 61.598 82.4782 61.7933 82.5729 62.0217C82.6675 62.2501 82.6922 62.5014 82.644 62.7439C82.5958 62.9864 82.4767 63.2091 82.3019 63.3839C82.1271 63.5587 81.9043 63.6778 81.6619 63.726C81.4194 63.7742 81.1681 63.7495 80.9396 63.6549C80.7112 63.5603 80.516 63.4 80.3787 63.1945C80.2413 62.9889 80.168 62.7473 80.168 62.5C80.168 62.1685 80.2997 61.8506 80.5341 61.6161C80.7685 61.3817 81.0865 61.25 81.418 61.25ZM81.418 48.75C81.6652 48.75 81.9069 48.8233 82.1125 48.9607C82.318 49.098 82.4782 49.2933 82.5729 49.5217C82.6675 49.7501 82.6922 50.0014 82.644 50.2439C82.5958 50.4864 82.4767 50.7091 82.3019 50.8839C82.1271 51.0587 81.9043 51.1778 81.6619 51.226C81.4194 51.2742 81.1681 51.2495 80.9396 51.1549C80.7112 51.0603 80.516 50.9 80.3787 50.6945C80.2413 50.4889 80.168 50.2472 80.168 50C80.168 49.6685 80.2997 49.3506 80.5341 49.1161C80.7685 48.8817 81.0865 48.75 81.418 48.75ZM66.418 48.75C66.6652 48.75 66.9069 48.8233 67.1125 48.9607C67.318 49.098 67.4782 49.2933 67.5729 49.5217C67.6675 49.7501 67.6922 50.0014 67.644 50.2439C67.5958 50.4864 67.4767 50.7091 67.3019 50.8839C67.1271 51.0587 66.9043 51.1778 66.6619 51.226C66.4194 51.2742 66.1681 51.2495 65.9396 51.1549C65.7112 51.0603 65.516 50.9 65.3787 50.6945C65.2413 50.4889 65.168 50.2472 65.168 50C65.168 49.6685 65.2997 49.3506 65.5341 49.1161C65.7685 48.8817 66.0865 48.75 66.418 48.75ZM51.418 51.25C51.1708 51.25 50.9291 51.1767 50.7235 51.0394C50.518 50.902 50.3578 50.7068 50.2632 50.4784C50.1685 50.25 50.1438 49.9986 50.192 49.7562C50.2403 49.5137 50.3593 49.291 50.5341 49.1161C50.7089 48.9413 50.9317 48.8223 51.1741 48.774C51.4166 48.7258 51.668 48.7506 51.8964 48.8452C52.1248 48.9398 52.32 49.1 52.4573 49.3056C52.5947 49.5111 52.668 49.7528 52.668 50C52.668 50.3315 52.5363 50.6495 52.3019 50.8839C52.0675 51.1183 51.7495 51.25 51.418 51.25Z" fill="#40986E"/>
<path d="M37.668 63.75H17.668V36.25H30.168V42.5C30.168 42.8315 30.2997 43.1495 30.5341 43.3839C30.7685 43.6183 31.0865 43.75 31.418 43.75H37.668V63.75Z" fill="#C5E8D9"/>
<path d="M26.418 48.75C26.418 48.4185 26.2863 48.1005 26.0519 47.8661C25.8175 47.6317 25.4995 47.5 25.168 47.5C24.505 47.5 23.8691 47.7634 23.4002 48.2322C22.9314 48.7011 22.668 49.337 22.668 50V51.25C22.668 51.5815 22.5363 51.8995 22.3019 52.1339C22.0675 52.3683 21.7495 52.5 21.418 52.5C21.0865 52.5 20.7685 52.6317 20.5341 52.8661C20.2997 53.1005 20.168 53.4185 20.168 53.75C20.168 54.0815 20.2997 54.3995 20.5341 54.6339C20.7685 54.8683 21.0865 55 21.418 55C21.7495 55 22.0675 55.1317 22.3019 55.3661C22.5363 55.6005 22.668 55.9185 22.668 56.25V57.5C22.668 58.163 22.9314 58.7989 23.4002 59.2678C23.8691 59.7366 24.505 60 25.168 60C25.4995 60 25.8175 59.8683 26.0519 59.6339C26.2863 59.3995 26.418 59.0815 26.418 58.75C26.418 58.4185 26.2863 58.1005 26.0519 57.8661C25.8175 57.6317 25.4995 57.5 25.168 57.5V56.25C25.1625 55.3249 24.8152 54.4345 24.193 53.75C24.8152 53.0655 25.1625 52.1751 25.168 51.25V50C25.4995 50 25.8175 49.8683 26.0519 49.6339C26.2863 49.3995 26.418 49.0815 26.418 48.75Z" fill="#40986E"/>
<path d="M33.918 52.5C33.5865 52.5 33.2685 52.3683 33.0341 52.1339C32.7997 51.8995 32.668 51.5815 32.668 51.25V50C32.668 49.337 32.4046 48.7011 31.9358 48.2322C31.4669 47.7634 30.831 47.5 30.168 47.5C29.8365 47.5 29.5185 47.6317 29.2841 47.8661C29.0497 48.1005 28.918 48.4185 28.918 48.75C28.918 49.0815 29.0497 49.3995 29.2841 49.6339C29.5185 49.8683 29.8365 50 30.168 50V51.25C30.1735 52.1751 30.5208 53.0655 31.143 53.75C30.5208 54.4345 30.1735 55.3249 30.168 56.25V57.5C29.8365 57.5 29.5185 57.6317 29.2841 57.8661C29.0497 58.1005 28.918 58.4185 28.918 58.75C28.918 59.0815 29.0497 59.3995 29.2841 59.6339C29.5185 59.8683 29.8365 60 30.168 60C30.831 60 31.4669 59.7366 31.9358 59.2678C32.4046 58.7989 32.668 58.163 32.668 57.5V56.25C32.668 55.9185 32.7997 55.6005 33.0341 55.3661C33.2685 55.1317 33.5865 55 33.918 55C34.2495 55 34.5675 54.8683 34.8019 54.6339C35.0363 54.3995 35.168 54.0815 35.168 53.75C35.168 53.4185 35.0363 53.1005 34.8019 52.8661C34.5675 52.6317 34.2495 52.5 33.918 52.5Z" fill="#40986E"/>
</g>
</g>
<defs>
<clipPath id="clip0_824_4851">
<rect width="100" height="100" fill="white"/>
</clipPath>
</defs>
</svg>
