<svg width="101" height="100" viewBox="0 0 101 100" fill="none" xmlns="http://www.w3.org/2000/svg">
<path opacity="0.11" d="M69.8431 12.518C86.5676 21.5407 103.661 41.5838 98.8372 54.2413C95.6129 62.7355 88.9304 74.7475 67.3325 86C41.8705 99.2762 44.6195 88.4999 28.8325 73.9998C6.43108 53.4244 11.7087 -18.8419 69.8431 12.518Z" fill="#3AAA35"/>
<mask id="mask0_824_4731" style="mask-type:luminance" maskUnits="userSpaceOnUse" x="32" y="31" width="42" height="41">
<path d="M73.3359 31H32.3359V72H73.3359V31Z" fill="white"/>
</mask>
<g mask="url(#mask0_824_4731)">
<path d="M72.7564 62.3592L70.8861 61.2273C70.9044 60.9927 70.9135 60.7575 70.9135 60.5232C70.9135 60.2889 70.9044 60.0538 70.8861 59.8192L72.7564 58.6873C73.3116 58.3513 73.4996 57.6353 73.1811 57.07L70.6808 52.6327C70.3623 52.0674 69.6522 51.8572 69.0774 52.1581L69.017 52.1898V32.2013C69.017 31.5379 68.4792 31.0001 67.8159 31.0001H33.5371C32.8737 31.0001 32.3359 31.5379 32.3359 32.2013V54.9423C32.3359 55.6057 32.8737 56.1435 33.5371 56.1435H36.4082V59.6018C36.4082 60.0526 36.6607 60.4656 37.0621 60.671C37.2347 60.7594 37.4223 60.8029 37.6093 60.8029C37.857 60.8029 38.1034 60.7264 38.3118 60.5761L44.5056 56.1112H51.0901L50.5499 57.0699C50.2314 57.6352 50.4194 58.3513 50.9746 58.6872L52.8449 59.8191C52.8266 60.0537 52.8175 60.2888 52.8175 60.5231C52.8175 60.7574 52.8266 60.9926 52.8449 61.2272L50.9746 62.3591C50.4194 62.695 50.2314 63.4111 50.5499 63.9763L53.0501 68.4137C53.3686 68.979 54.0786 69.1891 54.6535 68.8883L56.5897 67.8751C57.0503 68.2064 57.5392 68.4924 58.053 68.7309L58.1183 70.836C58.1385 71.4846 58.6701 71.9999 59.3189 71.9999H64.4119C65.0608 71.9999 65.5924 71.4846 65.6125 70.836L65.6779 68.7309C66.1917 68.4924 66.6805 68.2064 67.1411 67.8751L69.0773 68.8882C69.6523 69.1891 70.3621 68.9789 70.6807 68.4136L73.1809 63.9762C73.4996 63.4111 73.3115 62.695 72.7564 62.3592ZM44.1178 53.7089C43.8657 53.7089 43.6199 53.7883 43.4154 53.9357L38.8106 57.2552V54.9424C38.8106 54.2791 38.2728 53.7413 37.6094 53.7413H34.7382V33.4025H66.6146V52.8228C66.3139 52.6369 66.0038 52.467 65.6828 52.3176L65.6125 50.056C65.5924 49.4074 65.0607 48.8921 64.4119 48.8921H59.3189C58.67 48.8921 58.1385 49.4074 58.1183 50.056L58.0481 52.3176C57.536 52.5558 57.0488 52.8409 56.5896 53.1713L54.6534 52.158C54.0785 51.8573 53.3686 52.0673 53.05 52.6327L52.4437 53.7088L44.1178 53.7089ZM68.4156 59.3957C68.479 59.7674 68.5111 60.1468 68.5111 60.5232C68.5111 60.8997 68.479 61.279 68.4156 61.6507C68.3325 62.1372 68.5556 62.6249 68.9778 62.8804L70.5166 63.8115L69.1596 66.2199L67.5655 65.3857C67.1274 65.1565 66.594 65.219 66.2209 65.543C65.5928 66.0885 64.8786 66.5063 64.0981 66.7847C63.6327 66.9507 63.3164 67.3848 63.301 67.8788L63.2477 69.5976H60.4835L60.4301 67.8788C60.4148 67.3848 60.0985 66.9507 59.633 66.7847C58.8525 66.5063 58.1383 66.0885 57.5103 65.543C57.1372 65.219 56.6038 65.1566 56.1657 65.3856L54.5715 66.2199L53.2146 63.8115L54.7533 62.8803C55.1755 62.6249 55.3986 62.1371 55.3156 61.6506C55.2522 61.2789 55.22 60.8996 55.22 60.5231C55.22 60.1467 55.2522 59.7674 55.3156 59.3956C55.3986 58.9092 55.1756 58.4214 54.7533 58.166L53.2146 57.2347L54.5715 54.8264L56.1657 55.6606C56.6037 55.8897 57.1372 55.8274 57.5103 55.5032C58.1373 54.9587 58.85 54.5414 59.6289 54.263C60.094 54.0968 60.41 53.6629 60.4253 53.1693L60.4835 51.2944H63.2477L63.3059 53.1693C63.3212 53.6629 63.6373 54.0968 64.1023 54.263C64.8812 54.5414 65.594 54.9587 66.2209 55.5032C66.594 55.8273 67.1276 55.8897 67.5655 55.6606L69.1596 54.8264L70.5166 57.2347L68.9778 58.166C68.5556 58.4216 68.3325 58.9093 68.4156 59.3957Z" fill="#40986E"/>
<path d="M68.4158 59.3957C68.4792 59.7674 68.5113 60.1468 68.5113 60.5232C68.5113 60.8997 68.4792 61.279 68.4158 61.6507C68.3327 62.1372 68.5558 62.6249 68.978 62.8804L70.5168 63.8115L69.1598 66.2199L67.5657 65.3857C67.1276 65.1565 66.5942 65.219 66.2211 65.543C65.593 66.0885 64.8788 66.5063 64.0983 66.7847C63.6329 66.9507 63.3166 67.3848 63.3012 67.8788L63.2479 69.5976H60.4837L60.4303 67.8788C60.415 67.3848 60.0987 66.9507 59.6332 66.7847C58.8527 66.5063 58.1385 66.0885 57.5105 65.543C57.1374 65.219 56.604 65.1566 56.1659 65.3856L54.5717 66.2199L53.2148 63.8115L54.7535 62.8803C55.1757 62.6249 55.3988 62.1371 55.3158 61.6506C55.2524 61.2789 55.2202 60.8996 55.2202 60.5231C55.2202 60.1467 55.2524 59.7674 55.3158 59.3956C55.3988 58.9092 55.1758 58.4214 54.7535 58.166L53.2148 57.2347L54.5717 54.8264L56.1659 55.6606C56.6039 55.8897 57.1374 55.8274 57.5105 55.5032C58.1375 54.9587 58.8502 54.5414 59.6291 54.263C60.0942 54.0968 60.4102 53.6629 60.4255 53.1693L60.4837 51.2944H63.2479L63.3061 53.1693C63.3214 53.6629 63.6375 54.0968 64.1025 54.263C64.8814 54.5414 65.5942 54.9587 66.2211 55.5032C66.5942 55.8273 67.1278 55.8897 67.5657 55.6606L69.1598 54.8264L70.5168 57.2347L68.978 58.166C68.5558 58.4216 68.3327 58.9093 68.4158 59.3957Z" fill="#40986E" fill-opacity="0.5"/>
<path d="M55.4423 48.8645C55.4423 48.2011 54.9045 47.6633 54.2412 47.6633H38.9707C38.3073 47.6633 37.7695 48.2011 37.7695 48.8645C37.7695 49.5279 38.3073 50.0657 38.9707 50.0657H54.2412C54.9045 50.0657 55.4423 49.5279 55.4423 48.8645Z" fill="#40986E"/>
<path d="M61.8669 56.5741C59.6895 56.5741 57.918 58.3457 57.918 60.5231C57.918 62.7007 59.6895 64.4722 61.8669 64.4722C64.0444 64.4722 65.8159 62.7006 65.8159 60.5231C65.8159 58.3456 64.0444 56.5741 61.8669 56.5741ZM61.8669 62.0699C61.0142 62.0699 60.3204 61.376 60.3204 60.5231C60.3204 59.6703 61.0142 58.9764 61.8669 58.9764C62.7198 58.9764 63.4136 59.6703 63.4136 60.5231C63.4136 61.376 62.7198 62.0699 61.8669 62.0699Z" fill="#40986E"/>
<path d="M61.8668 62.0699C61.0141 62.0699 60.3203 61.376 60.3203 60.5231C60.3203 59.6703 61.0141 58.9764 61.8668 58.9764C62.7197 58.9764 63.4135 59.6703 63.4135 60.5231C63.4135 61.376 62.7197 62.0699 61.8668 62.0699Z" fill="white"/>
<path d="M38.9707 44.723H62.1695C62.8329 44.723 63.3707 44.1852 63.3707 43.5218C63.3707 42.8585 62.8329 42.3207 62.1695 42.3207H38.9707C38.3073 42.3207 37.7695 42.8585 37.7695 43.5218C37.7695 44.1852 38.3073 44.723 38.9707 44.723Z" fill="#40986E"/>
<path d="M38.9707 39.3801H62.1695C62.8329 39.3801 63.3707 38.8423 63.3707 38.179C63.3707 37.5156 62.8329 36.9778 62.1695 36.9778H38.9707C38.3073 36.9778 37.7695 37.5156 37.7695 38.179C37.7695 38.8423 38.3073 39.3801 38.9707 39.3801Z" fill="#40986E"/>
</g>
<mask id="mask1_824_4731" style="mask-type:luminance" maskUnits="userSpaceOnUse" x="6" y="6" width="89" height="88">
<path d="M6.62109 38.2873L38.6211 93.7129L94.0467 61.7129L62.0467 6.28727L6.62109 38.2873Z" fill="white"/>
</mask>
<g mask="url(#mask1_824_4731)">
<path d="M19.816 46.0194C19.1283 45.9573 18.5207 46.4644 18.4587 47.152C17.8648 53.7371 19.3043 60.2547 22.6214 66.0001C24.6979 69.5967 27.3977 72.7043 30.6457 75.2367C31.1901 75.6611 31.9755 75.5638 32.3999 75.0195C32.8244 74.4752 32.7274 73.69 32.1828 73.2651C29.1898 70.9315 26.7014 68.0667 24.7865 64.7501C21.7284 59.4533 20.4013 53.4457 20.9486 47.3766C20.9725 47.11 20.9111 46.8555 20.7868 46.6402C20.5904 46.2999 20.237 46.0574 19.816 46.0194Z" fill="#40986E"/>
<path d="M34.3336 22.2873C28.7948 25.4851 24.3889 30.2007 21.5921 35.9245C21.2889 36.5449 21.5463 37.2934 22.1664 37.5965C22.7866 37.8996 23.5351 37.6425 23.8382 37.0222C26.416 31.747 30.4774 27.4004 35.5836 24.4524C41.0135 21.3174 47.1231 20.0115 53.3127 20.6497C53.3762 21.3033 53.5754 21.9536 53.9245 22.5583C55.2341 24.8265 58.1449 25.6064 60.4132 24.2969C62.6814 22.9873 63.4613 20.0765 62.1518 17.8083C60.8422 15.54 57.9314 14.7601 55.6632 16.0696C54.7852 16.5765 54.1314 17.3238 53.7343 18.1803C46.9616 17.4468 40.2725 18.8585 34.3336 22.2873ZM59.9867 19.0583C60.607 20.1327 60.2376 21.5115 59.1632 22.1318C58.0887 22.7521 56.7099 22.3827 56.0896 21.3083C55.4693 20.2338 55.8387 18.855 56.9132 18.2347C57.9876 17.6144 59.3664 17.9838 59.9867 19.0583Z" fill="#40986E"/>
<path d="M68.4839 26.7352C71.477 29.0686 73.9654 31.9334 75.8803 35.2501C84.0135 49.3372 79.1696 67.4146 65.0825 75.5478C59.6527 78.6828 53.5431 79.9886 47.3535 79.3504C47.29 78.6969 47.0908 78.0466 46.7416 77.4419C45.4321 75.1737 42.5212 74.3937 40.253 75.7033C37.9848 77.0129 37.2048 79.9237 38.5144 82.1919C39.8239 84.4602 42.7348 85.2401 45.003 83.9306C45.8809 83.4237 46.5348 82.6764 46.9318 81.8199C53.7046 82.5534 60.3937 81.1417 66.3325 77.7129C73.7349 73.4391 79.0299 66.5385 81.2422 58.2824C83.4545 50.026 82.3191 41.4024 78.0454 34.0001C75.9689 30.4035 73.2691 27.2959 70.0211 24.7635C69.4767 24.3391 68.6913 24.4363 68.2669 24.9807C67.8423 25.5253 67.9397 26.3109 68.4839 26.7352ZM40.6795 80.9419C40.0591 79.8675 40.4286 78.4887 41.503 77.8684C42.5774 77.2481 43.9563 77.6175 44.5766 78.6919C45.1969 79.7663 44.8274 81.1452 43.753 81.7655C42.6786 82.3858 41.2998 82.0163 40.6795 80.9419Z" fill="#40986E"/>
<path d="M21.8002 41.1059C21.6359 40.8212 21.3599 40.6082 21.0423 40.5231C20.7247 40.4381 20.3785 40.4834 20.0938 40.6478C19.808 40.8128 19.5956 41.0899 19.5105 41.4075C19.4254 41.7251 19.472 42.0707 19.6363 42.3553C19.8006 42.64 20.0766 42.8531 20.3942 42.9382C20.7118 43.0232 21.058 42.9778 21.3438 42.8128C21.6285 42.6485 21.8398 42.372 21.926 42.0538C22.0111 41.7362 21.9646 41.3906 21.8002 41.1059Z" fill="#40986E"/>
</g>
</svg>
