<svg width="101" height="100" viewBox="0 0 101 100" fill="none" xmlns="http://www.w3.org/2000/svg">
<path opacity="0.11" d="M69.9005 12.6442C86.9663 21.758 104.409 42.0037 99.4862 54.789C96.1961 63.369 87.2049 60.5698 65.1663 71.936C39.1846 85.3463 34.5634 98.0665 21.8299 96.0354C9.73697 94.1085 -1.45185 80.0342 0.569925 70.6991C3.32004 58.0049 28.9124 61.5332 35.1159 45.5841C40.6412 31.3796 24.4545 17.9953 30.3942 9.46741C36.0954 1.30405 56.5392 5.50942 69.9005 12.6442Z" fill="#3AAA35"/>
<mask id="mask0_824_4769" style="mask-type:luminance" maskUnits="userSpaceOnUse" x="18" y="18" width="65" height="64">
<path d="M82.332 18H18.332V82H82.332V18Z" fill="white"/>
</mask>
<g mask="url(#mask0_824_4769)">
<path d="M76.082 31.875H64.2072V29.1784C65.8375 28.6499 67.0197 27.1167 67.0197 25.3126C67.0197 23.0725 65.1973 21.2501 62.9572 21.2501C60.7171 21.2501 58.8947 23.0725 58.8947 25.3126C58.8947 27.1167 60.0768 28.65 61.7072 29.1784V31.875H49.8322C46.386 31.875 43.5822 34.6787 43.5822 38.125V48.7499H24.582C21.1358 48.7499 18.332 51.5537 18.332 54.9999V67.4999C18.332 70.5182 20.4828 73.0436 23.332 73.6243V77.4999C23.332 77.9331 23.5562 78.3355 23.9249 78.5633C24.1255 78.6874 24.3534 78.7499 24.582 78.7499C24.773 78.7499 24.9646 78.7061 25.141 78.6179L34.877 73.7499H50.8318C54.2781 73.7499 57.0818 70.9462 57.0818 67.4999V59.3749H65.787L75.523 64.2429C75.6995 64.3312 75.8909 64.3749 76.0821 64.3749C76.3106 64.3749 76.5385 64.3123 76.7394 64.1883C77.1078 63.9605 77.3321 63.5582 77.3321 63.1249V59.2493C80.1814 58.6685 82.3321 56.1431 82.3321 53.1249V38.125C82.332 34.6787 79.5283 31.875 76.082 31.875ZM62.9572 23.75C63.8188 23.75 64.5197 24.4509 64.5197 25.3125C64.5197 26.1741 63.8188 26.875 62.9572 26.875C62.0956 26.875 61.3947 26.1741 61.3947 25.3125C61.3947 24.4509 62.0956 23.75 62.9572 23.75ZM54.5818 67.4999C54.5818 69.5677 52.8996 71.2499 50.8318 71.2499H34.582C34.388 71.2499 34.1966 71.295 34.023 71.3819L25.832 75.4774V72.4999C25.832 71.8096 25.2724 71.2499 24.582 71.2499C22.5142 71.2499 20.832 69.5677 20.832 67.4999V54.9999C20.832 52.9322 22.5142 51.2499 24.582 51.2499H43.5822V53.1249C43.5822 56.5712 46.386 59.3749 49.8322 59.3749H54.5818V67.4999ZM79.832 53.1249C79.832 55.1927 78.1498 56.8749 76.082 56.8749C75.3918 56.8749 74.832 57.4347 74.832 58.1249V61.1023L66.6412 57.0068C66.4675 56.9201 66.2762 56.8748 66.082 56.8748H49.8322C47.7645 56.8748 46.0822 55.1926 46.0822 53.1248V38.125C46.0822 36.0572 47.7645 34.375 49.8322 34.375H76.082C78.1498 34.375 79.832 36.0572 79.832 38.125V53.1249Z" fill="#40986E"/>
<path d="M79.8318 53.1249C79.8318 55.1927 78.1496 56.8749 76.0818 56.8749C75.3916 56.8749 74.8318 57.4347 74.8318 58.1249V61.1023L66.641 57.0068C66.4673 56.9201 66.276 56.8748 66.0818 56.8748H49.832C47.7643 56.8748 46.082 55.1926 46.082 53.1248V38.125C46.082 36.0572 47.7643 34.375 49.832 34.375H76.0818C78.1496 34.375 79.8318 36.0572 79.8318 38.125V53.1249Z" fill="#AACFBD"/>
<path d="M54.5818 67.4999C54.5818 69.5677 52.8996 71.2499 50.8318 71.2499H34.582C34.388 71.2499 34.1966 71.295 34.023 71.3819L25.832 75.4774V72.4999C25.832 71.8096 25.2724 71.2499 24.582 71.2499C22.5142 71.2499 20.832 69.5677 20.832 67.4999V54.9999C20.832 52.9322 22.5142 51.2499 24.582 51.2499H43.5822V53.1249C43.5822 56.5712 46.386 59.3749 49.8322 59.3749H54.5818V67.4999Z" fill="white"/>
<path d="M69.2071 38.125H56.7071C52.5715 38.125 49.207 41.4895 49.207 45.625C49.207 49.7605 52.5715 53.125 56.7071 53.125H69.2071C73.3426 53.125 76.7071 49.7605 76.7071 45.625C76.7071 41.4895 73.3426 38.125 69.2071 38.125ZM69.2071 50.625H56.7071C53.95 50.625 51.707 48.382 51.707 45.625C51.707 42.868 53.95 40.625 56.7071 40.625H69.2071C71.9641 40.625 74.2071 42.868 74.2071 45.625C74.2071 48.382 71.9641 50.625 69.2071 50.625Z" fill="#40986E"/>
<path d="M69.2071 50.625H56.7071C53.95 50.625 51.707 48.382 51.707 45.625C51.707 42.868 53.95 40.625 56.7071 40.625H69.2071C71.9641 40.625 74.2071 42.868 74.2071 45.625C74.2071 48.382 71.9641 50.625 69.2071 50.625Z" fill="white"/>
<path d="M56.7074 43.75C55.6719 43.75 54.832 44.5895 54.832 45.625C54.832 46.6605 55.6719 47.5 56.7074 47.5C57.7429 47.5 58.5824 46.6605 58.5824 45.625C58.5824 44.5895 57.7429 43.75 56.7074 43.75Z" fill="#40986E"/>
<path d="M69.2075 43.75H69.2065C68.171 43.75 67.332 44.5895 67.332 45.625C67.332 46.6605 68.172 47.5 69.2075 47.5C70.243 47.5 71.0825 46.6605 71.0825 45.625C71.0825 44.5895 70.243 43.75 69.2075 43.75Z" fill="#40986E"/>
<path d="M32.0825 59.9999C31.3922 59.9999 30.832 60.5596 30.832 61.2499C30.832 61.9401 31.3921 62.4999 32.0825 62.4999C32.7729 62.4999 33.3325 61.9401 33.3325 61.2499C33.3325 60.5596 32.7729 59.9999 32.0825 59.9999Z" fill="#40986E"/>
<path d="M37.7075 59.9999C37.0172 59.9999 36.457 60.5596 36.457 61.2499C36.457 61.9401 37.0171 62.4999 37.7075 62.4999C38.3979 62.4999 38.9575 61.9401 38.9575 61.2499C38.9575 60.5596 38.3979 59.9999 37.7075 59.9999Z" fill="#40986E"/>
<path d="M43.3325 59.9999C42.6422 59.9999 42.082 60.5596 42.082 61.2499C42.082 61.9401 42.6421 62.4999 43.3325 62.4999C44.0229 62.4999 44.5825 61.9401 44.5825 61.2499C44.5825 60.5596 44.0229 59.9999 43.3325 59.9999Z" fill="#40986E"/>
</g>
</svg>
