<svg width="100" height="100" viewBox="0 0 100 100" fill="none" xmlns="http://www.w3.org/2000/svg">
<g clip-path="url(#clip0_824_4813)">
<path opacity="0.11" d="M69.5685 10.5631C86.6343 20.1763 104.077 41.5313 99.1542 55.0172C95.8641 64.0673 86.8729 61.1147 64.8343 73.1037C38.8526 87.2488 34.2314 100.666 21.4979 98.5237C9.40494 96.4912 -1.78388 81.6457 0.237894 71.799C2.98801 58.4093 28.5804 62.1309 34.7839 45.3079C40.3092 30.325 24.1225 16.2074 30.0622 7.2122C35.7634 -1.39846 56.2072 3.03734 69.5685 10.5631Z" fill="#3AAA35"/>
<mask id="mask0_824_4813" style="mask-type:luminance" maskUnits="userSpaceOnUse" x="10" y="10" width="80" height="80">
<path d="M90 10H10V90H90V10Z" fill="white"/>
</mask>
<g mask="url(#mask0_824_4813)">
<path d="M65.7522 15.0928H34.25C29.8663 15.0928 26.3125 18.6465 26.3125 23.0303C26.3125 27.414 29.8663 30.9678 34.25 30.9678H45.0836C45.3738 30.9678 45.6524 31.0815 45.8596 31.2846L49.2253 34.5842C49.6563 35.0067 50.3461 35.0067 50.7771 34.5842L54.1428 31.2846C54.35 31.0815 54.6286 30.9678 54.9188 30.9678H65.7524C70.1361 30.9678 73.6899 27.414 73.6899 23.0303C73.6899 18.6465 70.1361 15.0928 65.7522 15.0928Z" fill="#40986E" fill-opacity="0.3"/>
<path d="M26.5502 60.3856H12.9811C11.9819 60.3856 11.1719 59.5756 11.1719 58.5764V45.0074C11.1719 44.0081 11.9819 43.1981 12.9811 43.1981H26.5502C27.5494 43.1981 28.3594 44.0081 28.3594 45.0074V58.5764C28.3594 59.5756 27.5494 60.3856 26.5502 60.3856Z" fill="#D3E6DD"/>
<path d="M26.5502 43.1981H23.9062V54.1281C23.9062 55.1274 23.0962 55.9374 22.097 55.9374H11.1719V58.5764C11.1719 59.5756 11.9819 60.3856 12.9811 60.3856H26.5502C27.5494 60.3856 28.3594 59.5756 28.3594 58.5764V45.0074C28.3594 44.0081 27.5494 43.1981 26.5502 43.1981Z" fill="#D3E6DD"/>
<path d="M87.0189 60.3856H73.4498C72.4506 60.3856 71.6406 59.5756 71.6406 58.5764V45.0074C71.6406 44.0081 72.4506 43.1981 73.4498 43.1981H87.0189C88.0181 43.1981 88.8281 44.0081 88.8281 45.0074V58.5764C88.8281 59.5756 88.0181 60.3856 87.0189 60.3856Z" fill="#D3E6DD"/>
<path d="M87.0189 43.1981H84.375V54.1281C84.375 55.1274 83.565 55.9374 82.5658 55.9374H71.6406V58.5764C71.6406 59.5756 72.4506 60.3856 73.4498 60.3856H87.0189C88.0181 60.3856 88.8281 59.5756 88.8281 58.5764V45.0074C88.8281 44.0081 88.0181 43.1981 87.0189 43.1981Z" fill="#D3E6DD"/>
<path d="M87.0189 43.1981H73.4498C72.4506 43.1981 71.6406 44.0081 71.6406 45.0074V45.6663L78.955 52.9806C79.6616 53.6872 80.807 53.6872 81.5136 52.9806L88.828 45.6663V45.0074C88.8281 44.0081 88.0181 43.1981 87.0189 43.1981Z" fill="#D3E6DD"/>
<path d="M87.0189 43.1981H84.375V50.1194L88.8281 45.6663V45.0074C88.8281 44.0081 88.0181 43.1981 87.0189 43.1981Z" fill="#D3E6DD"/>
<path d="M47.0078 50.8294V50.4592C47.0078 49.8119 46.4833 49.2874 45.8359 49.2874C45.1886 49.2874 44.6641 49.8119 44.6641 50.4592V50.8294C44.6641 51.4767 45.1886 52.0013 45.8359 52.0013C46.4833 52.0013 47.0078 51.4766 47.0078 50.8294Z" fill="#40986E"/>
<path d="M55.3359 50.8294V50.4592C55.3359 49.8119 54.8114 49.2874 54.1641 49.2874C53.5167 49.2874 52.9922 49.8119 52.9922 50.4592V50.8294C52.9922 51.4767 53.5167 52.0013 54.1641 52.0013C54.8114 52.0013 55.3359 51.4766 55.3359 50.8294Z" fill="#40986E"/>
<path d="M65.2545 24.2023C65.9019 24.2023 66.4264 23.6778 66.4264 23.0304C66.4264 22.3831 65.9019 21.8585 65.2545 21.8585H61.543C60.8956 21.8585 60.3711 22.3831 60.3711 23.0304C60.3711 23.6778 60.8956 24.2023 61.543 24.2023H65.2545Z" fill="#40986E"/>
<path d="M33.5742 23.0304C33.5742 23.6778 34.0988 24.2023 34.7461 24.2023H56.003C56.6503 24.2023 57.1749 23.6778 57.1749 23.0304C57.1749 22.3831 56.6503 21.8585 56.003 21.8585H34.7461C34.0989 21.8585 33.5742 22.3831 33.5742 23.0304Z" fill="#40986E"/>
<path d="M14.2969 47.495C14.2969 48.1424 14.8214 48.6669 15.4688 48.6669H24.0625C24.7098 48.6669 25.2344 48.1424 25.2344 47.495C25.2344 46.8477 24.7098 46.3231 24.0625 46.3231H15.4688C14.8214 46.3231 14.2969 46.8477 14.2969 47.495Z" fill="#40986E"/>
<path d="M87.0189 42.0264H78.2827C77.1727 37.4862 74.9783 33.2861 71.8825 29.7614C73.7111 28.0942 74.8605 25.6941 74.8605 23.0303C74.8605 18.0073 70.7741 13.9208 65.7511 13.9208H44.5313C43.8839 13.9208 43.3594 14.4453 43.3594 15.0927C43.3594 15.74 43.8839 16.2645 44.5313 16.2645H65.7513C69.4819 16.2645 72.5169 19.2997 72.5169 23.0303C72.5169 26.7609 69.4819 29.7961 65.7513 29.7961H54.9177C54.3167 29.7961 53.7498 30.0277 53.3214 30.448L50 33.7039L46.6789 30.4481C46.2502 30.0278 45.6833 29.7961 45.0823 29.7961H34.2488C30.5181 29.7961 27.4831 26.7609 27.4831 23.0303C27.4831 19.2997 30.5181 16.2645 34.2488 16.2645H39.0625C39.7098 16.2645 40.2344 15.74 40.2344 15.0927C40.2344 14.4453 39.7098 13.9208 39.0625 13.9208H34.2488C29.2259 13.9208 25.1394 18.0072 25.1394 23.0303C25.1394 25.6941 26.2888 28.0942 28.1173 29.7614C25.0214 33.2859 22.827 37.4862 21.7172 42.0264H12.9811C11.3373 42.0264 10 43.3636 10 45.0075V58.5766C10 60.2205 11.3373 61.5576 12.9811 61.5576H23.7413C27.0666 68.4805 33.0122 73.8287 40.2344 76.3994V83.098C40.2344 84.7419 41.5717 86.0791 43.2155 86.0791H56.7845C58.4284 86.0791 59.7656 84.7417 59.7656 83.098V76.3986C62.8003 75.3189 65.6174 73.7523 68.1489 71.732C68.6547 71.3283 68.7375 70.5908 68.3339 70.085C67.9302 69.5794 67.193 69.4962 66.6869 69.9C64.5792 71.5822 62.2566 72.9219 59.7656 73.8972V69.5289C59.7656 67.885 58.4283 66.5478 56.7845 66.5478H43.2155C41.5716 66.5478 40.2344 67.8851 40.2344 69.5289V73.8962C34.3016 71.5714 29.3742 67.1837 26.3706 61.5575H26.5502C28.1941 61.5575 29.5313 60.2202 29.5313 58.5764V45.0073C29.5313 43.3634 28.1939 42.0262 26.5502 42.0262H24.1395C25.2214 37.983 27.2402 34.247 30.0498 31.1103C31.3073 31.7666 32.735 32.1398 34.2489 32.1398H45.0567L48.4038 35.4211C48.8439 35.8527 49.422 36.0684 50.0002 36.0684C50.5781 36.0684 51.1564 35.8527 51.5964 35.4211L54.9436 32.1398H65.7514C67.2653 32.1398 68.6928 31.7666 69.9505 31.1103C72.7602 34.2472 74.7789 37.9831 75.8608 42.0262H73.4502C71.8063 42.0262 70.4691 43.3636 70.4691 45.0073V58.5764C70.4691 60.2203 71.8064 61.5575 73.4502 61.5575H73.6303C72.7395 63.225 71.6731 64.7969 70.4458 66.2473C70.0277 66.7414 70.0894 67.4809 70.5834 67.8989C70.8036 68.0851 71.0725 68.1761 71.3399 68.1761C71.6727 68.1761 72.0033 68.0351 72.235 67.7612C73.8367 65.8681 75.1847 63.7833 76.2545 61.5575H87.0192C88.6631 61.5575 90.0003 60.2202 90.0003 58.5764V45.0073C90 43.3636 88.6627 42.0264 87.0189 42.0264ZM42.5781 69.5289C42.5781 69.1775 42.8641 68.8916 43.2155 68.8916H56.7845C57.1359 68.8916 57.4219 69.1775 57.4219 69.5289V77.9108L56.8563 77.3451C56.4639 76.9526 55.9425 76.7366 55.3878 76.7366C54.8331 76.7366 54.3116 76.9526 53.9197 77.3448L52.163 79.1014L47.5975 74.5358C47.2052 74.1436 46.6838 73.9276 46.1292 73.9276C45.5747 73.9276 45.0531 74.1436 44.6609 74.5359L42.5781 76.6187V69.5289ZM42.5781 79.9333L46.1291 76.3822L50.9503 81.2036C51.6189 81.8717 52.7067 81.872 53.3752 81.2036L55.3878 79.1911L57.422 81.2255V83.0978C57.422 83.4492 57.1361 83.7351 56.7847 83.7351H43.2156C42.8642 83.7351 42.5783 83.4492 42.5783 83.0978L42.5781 79.9333ZM26.5502 44.3701C26.9016 44.3701 27.1875 44.6561 27.1875 45.0075V58.5766C27.1875 58.928 26.9016 59.2139 26.5502 59.2139H12.9811C12.6297 59.2139 12.3438 58.928 12.3438 58.5766V45.0075C12.3438 44.6561 12.6297 44.3701 12.9811 44.3701H22.647C22.6489 44.3701 22.6509 44.3705 22.653 44.3705C22.6553 44.3705 22.6577 44.3701 22.66 44.3701H26.5502ZM87.6563 58.5766C87.6563 58.928 87.3703 59.2139 87.0189 59.2139H73.4499C73.0984 59.2139 72.8125 58.928 72.8125 58.5766V48.4956L78.1264 53.8094C78.6895 54.3725 79.4381 54.6826 80.2344 54.6826C81.0306 54.6826 81.7794 54.3726 82.3424 53.8095L87.6563 48.4956V58.5766ZM87.6563 45.1808L80.685 52.1522C80.5645 52.2726 80.4047 52.3387 80.2344 52.3387C80.0641 52.3387 79.9042 52.2725 79.7838 52.152L72.8125 45.1808V45.0075C72.8125 44.6561 73.0984 44.3701 73.4499 44.3701H87.0189C87.3703 44.3701 87.6563 44.6561 87.6563 45.0075V45.1808Z" fill="#40986E"/>
<path d="M36.9844 51.7969C36.3371 51.7969 35.8125 52.3214 35.8125 52.9687V55.5467C35.8125 58.3942 38.1291 60.7108 40.9766 60.7108H59.0253C61.8728 60.7108 64.1894 58.3942 64.1894 55.5467V45.7417C64.1894 43.185 62.3213 41.0576 59.8786 40.6495V38.389C59.8786 37.7417 59.3541 37.2172 58.7067 37.2172C58.0594 37.2172 57.5349 37.7417 57.5349 38.389V40.5778H42.4671V38.389C42.4671 37.7417 41.9425 37.2172 41.2952 37.2172C40.6478 37.2172 40.1233 37.7417 40.1233 38.389V40.6495C37.6806 41.0575 35.8125 43.185 35.8125 45.7417V47.5C35.8125 48.1473 36.3371 48.6719 36.9844 48.6719C37.6317 48.6719 38.1563 48.1473 38.1563 47.5V45.7417C38.1563 44.1867 39.4214 42.9215 40.9766 42.9215H59.0253C60.5805 42.9215 61.8456 44.1867 61.8456 45.7417V55.5467C61.8456 57.1018 60.5805 58.367 59.0253 58.367H40.9766C39.4214 58.367 38.1563 57.1018 38.1563 55.5467V52.9687C38.1563 52.3214 37.6317 51.7969 36.9844 51.7969Z" fill="#40986E"/>
<path d="M15.6309 50.6201H15.4688C14.8214 50.6201 14.2969 51.1446 14.2969 51.792C14.2969 52.4393 14.8214 52.9639 15.4688 52.9639H15.6309C16.2783 52.9639 16.8028 52.4393 16.8028 51.792C16.8028 51.1446 16.2783 50.6201 15.6309 50.6201Z" fill="#40986E"/>
<path d="M19.8456 50.6201H19.6836C19.0362 50.6201 18.5117 51.1446 18.5117 51.792C18.5117 52.4393 19.0362 52.9639 19.6836 52.9639H19.8456C20.4929 52.9639 21.0175 52.4393 21.0175 51.792C21.0175 51.1446 20.4928 50.6201 19.8456 50.6201Z" fill="#40986E"/>
<path d="M24.0607 50.6201H23.8985C23.2511 50.6201 22.7266 51.1446 22.7266 51.792C22.7266 52.4393 23.2511 52.9639 23.8985 52.9639H24.0607C24.708 52.9639 25.2326 52.4393 25.2326 51.792C25.2326 51.1446 24.708 50.6201 24.0607 50.6201Z" fill="#40986E"/>
<path d="M15.6309 54.917H15.4688C14.8214 54.917 14.2969 55.4415 14.2969 56.0889C14.2969 56.7362 14.8214 57.2607 15.4688 57.2607H15.6309C16.2783 57.2607 16.8028 56.7362 16.8028 56.0889C16.8028 55.4415 16.2783 54.917 15.6309 54.917Z" fill="#40986E"/>
<path d="M19.8456 54.917H19.6836C19.0362 54.917 18.5117 55.4415 18.5117 56.0889C18.5117 56.7362 19.0362 57.2607 19.6836 57.2607H19.8456C20.4929 57.2607 21.0175 56.7362 21.0175 56.0889C21.0175 55.4415 20.4928 54.917 19.8456 54.917Z" fill="#40986E"/>
<path d="M24.0607 54.917H23.8985C23.2511 54.917 22.7266 55.4415 22.7266 56.0889C22.7266 56.7362 23.2511 57.2607 23.8985 57.2607H24.0607C24.708 57.2607 25.2326 56.7362 25.2326 56.0889C25.2326 55.4415 24.708 54.917 24.0607 54.917Z" fill="#40986E"/>
<path d="M53.8905 73.5046C54.5377 73.5046 55.0625 72.98 55.0625 72.3328C55.0625 71.6856 54.5377 71.1609 53.8905 71.1609C53.2433 71.1609 52.7188 71.6856 52.7188 72.3328C52.7188 72.98 53.2433 73.5046 53.8905 73.5046Z" fill="#40986E"/>
</g>
</g>
<defs>
<clipPath id="clip0_824_4813">
<rect width="100" height="100" fill="white"/>
</clipPath>
</defs>
</svg>
