<svg width="100" height="100" viewBox="0 0 100 100" fill="none" xmlns="http://www.w3.org/2000/svg">
<g clip-path="url(#clip0_829_5508)">
<mask id="mask0_829_5508" style="mask-type:luminance" maskUnits="userSpaceOnUse" x="0" y="0" width="100" height="100">
<path d="M100 0H0V100H100V0Z" fill="white"/>
</mask>
<g mask="url(#mask0_829_5508)">
<mask id="mask1_829_5508" style="mask-type:luminance" maskUnits="userSpaceOnUse" x="0" y="0" width="100" height="100">
<path d="M100 0H0V100H100V0Z" fill="white"/>
</mask>
<g mask="url(#mask1_829_5508)">
<path d="M86.6654 91.6666V78.3333L77.1984 77.15C76.6247 75.1148 75.8198 73.1518 74.7985 71.2996L80.6318 63.7834L71.2153 54.3668L63.699 60.2001C61.8468 59.1789 59.8839 58.374 57.8487 57.8003L56.6654 48.3333H43.332L42.1488 57.8003C40.1134 58.374 38.1505 59.1789 36.2983 60.2001L28.782 54.3668L19.3655 63.7834L25.1989 71.2996C24.1775 73.1518 23.3727 75.1148 22.799 77.15L13.332 78.3333V91.6666L22.799 92.8499C23.336 94.7526 24.079 96.5918 25.0149 98.3333H37.4157C31.9527 93.1779 30.1875 85.2108 32.9609 78.2299C35.7352 71.2491 42.4873 66.6666 49.9987 66.6666C57.51 66.6666 64.2622 71.2491 67.0364 78.2299C69.8099 85.2108 68.0448 93.1779 62.5817 98.3333H74.9824C75.9183 96.5918 76.6613 94.7526 77.1984 92.8499L86.6654 91.6666Z" fill="#E2F3EC"/>
<path d="M91.668 1.66675H8.33463C4.65299 1.66675 1.66797 4.65178 1.66797 8.33342V15H98.3346V8.33342C98.3346 4.65178 95.3496 1.66675 91.668 1.66675Z" fill="#E2F3EC"/>
<path d="M91.6666 0H8.33334C3.73291 0.00569662 0.00569662 3.73291 0 8.33334V91.6666C0.00569662 96.2671 3.73291 99.9942 8.33334 100H91.6666C96.2671 99.9942 99.9942 96.2671 100 91.6666V8.33334C99.9942 3.73291 96.2671 0.00569662 91.6666 0ZM8.33334 3.33334H91.6666C94.4279 3.33334 96.6666 5.5721 96.6666 8.33334V13.3334H3.33334V8.33334C3.33334 5.5721 5.5721 3.33334 8.33334 3.33334ZM24.4019 92.3901C24.2171 91.7489 23.6686 91.2793 23.007 91.1963L15.0065 90.197V79.8047L23.007 78.8054C23.6702 78.7224 24.2196 78.2511 24.4035 77.6083C24.943 75.695 25.699 73.8501 26.6569 72.1086C26.9816 71.5243 26.9271 70.8024 26.5169 70.2751L21.5853 63.9201L28.9185 56.5869L35.2735 61.5185C35.8008 61.9288 36.5226 61.9849 37.1069 61.6601C38.8476 60.6999 40.6934 59.9439 42.6066 59.4051C43.2504 59.222 43.7224 58.6719 43.8054 58.0086L44.8047 50.0081H55.1953L56.1946 58.0086C56.2776 58.6719 56.7496 59.222 57.3934 59.4051C59.3066 59.9439 61.1524 60.6999 62.8931 61.6601C63.4774 61.9849 64.1992 61.9288 64.7265 61.5185L71.0815 56.5869L78.4147 63.9201L73.4831 70.2784C73.0729 70.8065 73.0184 71.5275 73.3431 72.1119C74.301 73.8534 75.057 75.6982 75.5965 77.6115C75.7805 78.2544 76.3298 78.7256 76.993 78.8086L84.9935 79.808V90.1986L76.993 91.1987C76.3314 91.2809 75.7829 91.7505 75.5981 92.3917C75.1709 93.8639 74.6126 95.2954 73.9315 96.6683H66.2484C68.7036 93.2747 70.0171 89.1886 70 85C70 73.9542 61.0457 65 50 65C38.9543 65 30 73.9542 30 85C29.9829 89.1879 31.2964 93.2731 33.7516 96.6666H26.0718C25.389 95.2937 24.8299 93.8623 24.4019 92.3901ZM61.8766 96.6666H38.1234C35.039 93.5694 33.3146 89.3709 33.3334 85C33.3334 75.7951 40.7951 68.3334 50 68.3334C59.2049 68.3334 66.6666 75.7951 66.6666 85C66.6854 89.3709 64.961 93.5694 61.8766 96.6666ZM91.6666 96.6666H77.618C77.9297 95.9236 78.2219 95.1669 78.4782 94.3701L86.8734 93.3202C87.7075 93.2161 88.3334 92.5074 88.3334 91.6666V78.3334C88.3334 77.4926 87.7075 76.7839 86.8734 76.6797L78.4799 75.6299C78.0192 74.2025 77.4487 72.8125 76.7749 71.4714L81.9499 64.8047C82.465 64.1415 82.4056 63.199 81.8115 62.605L72.395 53.1885C71.801 52.5944 70.8586 52.535 70.1953 53.0501L63.5286 58.2251C62.1884 57.5505 60.7991 56.9807 59.3717 56.5201L58.322 48.1266C58.2178 47.2925 57.5074 46.6659 56.6666 46.6666H43.3334C42.4926 46.6666 41.7839 47.2925 41.6797 48.1266L40.6299 56.5201C39.2025 56.9807 37.8134 57.5505 36.473 58.2251L29.8064 53.0501C29.1431 52.5341 28.199 52.5936 27.605 53.1885L18.1901 62.605C17.596 63.199 17.5366 64.1415 18.0518 64.8047L23.2267 71.4714C22.5529 72.8125 21.9824 74.2025 21.5217 75.6299L13.1283 76.6797C12.2941 76.783 11.6667 77.4926 11.6667 78.3334V91.6666C11.6667 92.5074 12.2925 93.2161 13.1266 93.3202L21.5217 94.3701C21.7781 95.1604 22.0702 95.9236 22.382 96.6666H8.33334C5.5721 96.6666 3.33334 94.4279 3.33334 91.6666V16.6666H96.6666V91.6666C96.6666 94.4279 94.4279 96.6666 91.6666 96.6666Z" fill="#40986E"/>
<path d="M10.1335 8.96652C10.1701 9.07314 10.2205 9.17405 10.2832 9.26682C10.345 9.3539 10.4118 9.43771 10.4834 9.51666C10.6396 9.67127 10.8276 9.7901 11.0335 9.86659C11.2313 9.96017 11.4478 10.0057 11.6667 10C11.7725 9.99761 11.8774 9.98622 11.9816 9.96669C12.0923 9.95122 12.2005 9.91705 12.2998 9.86659C12.4064 9.82997 12.5074 9.77951 12.6001 9.71685C12.6871 9.655 12.7701 9.58827 12.8499 9.51666C12.9215 9.43771 12.9882 9.3539 13.0501 9.26682C13.1127 9.17324 13.1624 9.07232 13.1999 8.96652C13.2488 8.87294 13.2812 8.77121 13.2984 8.66705C13.3179 8.55637 13.3301 8.44487 13.3334 8.33339C13.3269 7.89231 13.1542 7.46995 12.8499 7.15012C12.7701 7.0785 12.6871 7.01177 12.6001 6.94992C12.5074 6.88726 12.4064 6.8368 12.2998 6.80019C12.2005 6.74972 12.0923 6.71555 11.9816 6.70009C11.4388 6.6065 10.8838 6.77332 10.4818 7.15012C10.1774 7.46912 10.0049 7.89231 10 8.33339C10.0033 8.44487 10.0146 8.55637 10.0334 8.66705C10.0513 8.77121 10.0854 8.87212 10.1335 8.96652Z" fill="#40986E"/>
<path d="M16.7989 8.96653C16.8355 9.07313 16.886 9.17404 16.9486 9.26681C17.0105 9.35389 17.0773 9.43771 17.1489 9.51665C17.2278 9.58826 17.3108 9.655 17.3971 9.71685C17.4906 9.77951 17.5924 9.82996 17.699 9.86659C17.7934 9.9146 17.8943 9.94878 17.9985 9.96669C18.1091 9.9854 18.2206 9.99679 18.3321 10.0001C18.4379 9.99761 18.5429 9.98621 18.6471 9.96669C18.7578 9.95123 18.866 9.91704 18.9653 9.86659C19.1671 9.78195 19.3535 9.66314 19.5154 9.51665C19.8198 9.19683 19.9923 8.77446 19.9988 8.33338C19.9964 8.11529 19.9508 7.90044 19.8654 7.70024C19.7889 7.49435 19.67 7.30636 19.5154 7.15011C19.4333 7.07443 19.3445 7.0077 19.2485 6.94991C19.1639 6.884 19.0679 6.83354 18.9653 6.80018C18.866 6.74973 18.7578 6.71554 18.6471 6.70008C18.1035 6.59835 17.5453 6.766 17.1473 7.15011C16.9926 7.30636 16.8738 7.49435 16.7973 7.70024C16.7045 7.898 16.659 8.11446 16.6655 8.33338C16.6598 8.44569 16.6711 8.55799 16.6989 8.66704C16.7168 8.77121 16.7509 8.87211 16.7989 8.96653Z" fill="#40986E"/>
<path d="M24.3656 9.86639C24.5658 9.95184 24.7807 9.9974 24.9988 9.99985C25.6758 10.0039 26.2878 9.59783 26.5474 8.97202C26.8071 8.34702 26.6629 7.6268 26.1821 7.14992C25.7052 6.66895 24.9849 6.52492 24.3599 6.78452C23.7341 7.04412 23.3281 7.6561 23.3321 8.33318C23.3378 8.77427 23.5103 9.19744 23.8154 9.51645C23.9749 9.667 24.1613 9.78582 24.3656 9.86639Z" fill="#40986E"/>
<path d="M13.332 28.3334C13.332 27.4129 14.0782 26.6667 14.9987 26.6667H18.332C19.2525 26.6667 19.9987 27.4129 19.9987 28.3334C19.9987 29.2539 19.2525 30 18.332 30H14.9987C14.0782 30 13.332 29.2539 13.332 28.3334Z" fill="#40986E"/>
<path d="M23.332 28.3334C23.332 27.4129 24.0782 26.6667 24.9987 26.6667C25.9192 26.6667 26.6654 27.4129 26.6654 28.3334C26.6654 29.2539 25.9192 30 24.9987 30C24.0782 30 23.332 29.2539 23.332 28.3334Z" fill="#40986E"/>
<path d="M13.332 35C13.332 34.0795 14.0782 33.3333 14.9987 33.3333H24.9987C25.9192 33.3333 26.6654 34.0795 26.6654 35C26.6654 35.9204 25.9192 36.6666 24.9987 36.6666H14.9987C14.0782 36.6666 13.332 35.9204 13.332 35Z" fill="#40986E"/>
<path d="M21.6654 41.6666C21.6654 40.7463 20.9192 40 19.9987 40C19.0782 40 18.332 40.7463 18.332 41.6666V50C18.332 50.4419 18.5078 50.8659 18.8203 51.1784L20.9753 53.3334C21.626 53.9841 22.6812 53.9841 23.332 53.3334C23.9828 52.6825 23.9828 51.6274 23.332 50.9765L22.4987 50.1433C21.9652 49.6096 21.6654 48.886 21.6654 48.1314V41.6666Z" fill="#40986E"/>
<path d="M73.332 28.3334C73.332 27.4129 74.0782 26.6667 74.9987 26.6667H81.6654C82.5858 26.6667 83.332 27.4129 83.332 28.3334C83.332 29.2539 82.5858 30 81.6654 30H74.9987C74.0782 30 73.332 29.2539 73.332 28.3334Z" fill="#40986E"/>
<path d="M66.668 35C66.668 34.0795 67.4142 33.3333 68.3346 33.3333H81.668C82.5885 33.3333 83.3346 34.0795 83.3346 35C83.3346 35.9204 82.5885 36.6666 81.668 36.6666H68.3346C67.4142 36.6666 66.668 35.9204 66.668 35Z" fill="#40986E"/>
<path d="M66.668 41.6666C66.668 40.7463 67.4142 40 68.3346 40H81.668C82.5885 40 83.3346 40.7463 83.3346 41.6666C83.3346 42.5871 82.5885 43.3334 81.668 43.3334H68.3346C67.4142 43.3334 66.668 42.5871 66.668 41.6666Z" fill="#40986E"/>
<path d="M66.668 28.3334C66.668 27.4129 67.4142 26.6667 68.3346 26.6667C69.2551 26.6667 70.0013 27.4129 70.0013 28.3334C70.0013 29.2539 69.2551 30 68.3346 30C67.4142 30 66.668 29.2539 66.668 28.3334Z" fill="#40986E"/>
</g>
</g>
</g>
<defs>
<clipPath id="clip0_829_5508">
<rect width="100" height="100" fill="white"/>
</clipPath>
</defs>
</svg>
