<svg width="102" height="100" viewBox="0 0 102 100" fill="none" xmlns="http://www.w3.org/2000/svg">
<g clip-path="url(#clip0_829_5594)">
<mask id="mask0_829_5594" style="mask-type:luminance" maskUnits="userSpaceOnUse" x="1" y="0" width="101" height="100">
<path d="M101.125 0H1.125V100H101.125V0Z" fill="white"/>
</mask>
<g mask="url(#mask0_829_5594)">
<path d="M56.0189 51.7294C57.0384 53.1388 58.6952 54.0583 60.5636 54.0583C63.6553 54.0583 66.1706 51.543 66.1706 48.4513C66.1706 45.3595 63.6553 42.8441 60.5636 42.8441C57.5759 42.8441 55.127 45.1931 54.9655 48.1411L37.6424 52.6925L28.7372 40.7556C29.8547 38.6381 29.5239 35.9505 27.7445 34.1711C25.5583 31.9849 22.0009 31.985 19.8149 34.1711C17.6286 36.3573 17.6286 39.9145 19.8149 42.1006C20.3341 42.6198 20.931 43.0141 21.5681 43.2866L20.7588 57.1284L12.5498 59.2853C11.5324 57.8579 9.86475 56.9241 7.98204 56.9241C4.89031 56.9241 2.375 59.4394 2.375 62.5311C2.375 65.6229 4.89031 68.1381 7.98204 68.1381C8.20034 68.1381 8.41553 68.1244 8.62735 68.0999L16.4099 85.9546C15.5837 86.9315 15.0843 88.1929 15.0843 89.5695C15.0843 92.6613 17.5996 95.1765 20.6914 95.1765C23.783 95.1765 26.2984 92.6613 26.2984 89.5695C26.2984 88.7406 26.1163 87.9539 25.792 87.2453L42.3714 70.3531C43.0913 70.6901 43.8934 70.8794 44.7393 70.8794C45.305 70.8794 45.851 70.7944 46.3661 70.6379L50.6295 76.353C49.1864 78.5294 49.4226 81.4989 51.339 83.4151C52.432 84.5083 53.8679 85.0548 55.3037 85.0548C56.7396 85.0548 58.1755 84.5083 59.2685 83.4151C61.4548 81.229 61.4548 77.6718 59.2685 75.4856C57.7418 73.9588 55.5466 73.4998 53.6165 74.1054L49.3759 68.4211C49.9879 67.5229 50.3462 66.4389 50.3462 65.2724C50.3462 62.1806 47.8309 59.6653 44.7391 59.6653C44.1473 59.6653 43.5768 59.7581 43.0407 59.929L40.053 55.9241L56.0189 51.7294ZM60.5636 46.5823C61.5941 46.5823 62.4326 47.4206 62.4326 48.4513C62.4326 49.4818 61.5941 50.3203 60.5636 50.3203C59.533 50.3203 58.6946 49.4818 58.6946 48.4513C58.6946 47.4206 59.533 46.5823 60.5636 46.5823ZM22.4581 36.8143C22.8226 36.4499 23.3012 36.2678 23.7796 36.2678C24.2584 36.2678 24.737 36.4499 25.1014 36.8143C25.4543 37.1673 25.6489 37.6366 25.6489 38.1358C25.6489 38.635 25.4543 39.1043 25.1014 39.4574C24.7484 39.8104 24.2789 40.0048 23.7796 40.0048C23.2805 40.0048 22.8111 39.8104 22.4581 39.4574C21.7294 38.7288 21.7294 37.543 22.4581 36.8143ZM25.2983 43.5309C25.5258 43.4674 25.7496 43.3891 25.969 43.2964L33.743 53.7171L24.5616 56.1294L25.2983 43.5309ZM19.2405 83.0933L11.9863 66.4506C12.9005 65.5169 13.4914 64.2661 13.5771 62.8805L20.5294 61.0539L19.2405 83.0933ZM6.11302 62.5311C6.11302 61.5005 6.95146 60.6621 7.98204 60.6621C9.01261 60.6621 9.85105 61.5005 9.85105 62.5311C9.85105 63.5618 9.01261 64.4001 7.98204 64.4001C6.95146 64.4001 6.11302 63.5618 6.11302 62.5311ZM20.6914 91.4385C19.6607 91.4385 18.8223 90.6 18.8223 89.5695C18.8223 88.5389 19.6607 87.7005 20.6914 87.7005C21.7219 87.7005 22.5604 88.5389 22.5604 89.5695C22.5604 90.6 21.7219 91.4385 20.6914 91.4385ZM55.3036 77.5813C55.803 77.5813 56.2724 77.7756 56.6254 78.1286C56.9784 78.4816 57.1729 78.951 57.1729 79.4503C57.1729 79.9494 56.9784 80.4188 56.6254 80.7718C55.8965 81.5005 54.7111 81.5008 53.982 80.7718C53.2533 80.043 53.2533 78.8573 53.982 78.1286C54.3351 77.7756 54.8045 77.5813 55.3036 77.5813ZM46.6082 65.2724C46.6082 66.3029 45.7699 67.1414 44.7393 67.1414C43.7087 67.1414 42.8702 66.3029 42.8702 65.2724C42.8702 64.2418 43.7087 63.4034 44.7393 63.4034C45.7699 63.4034 46.6082 64.2418 46.6082 65.2724ZM40.0611 62.1863C39.4748 63.0721 39.1322 64.1328 39.1322 65.2724C39.1322 66.1555 39.3382 66.9911 39.7034 67.735L23.1951 84.5546C23.1006 84.5074 23.0049 84.462 22.9075 84.4199L24.3321 60.0546L36.1538 56.9486L40.0611 62.1863Z" fill="#40986E"/>
<path fill-rule="evenodd" clip-rule="evenodd" d="M67.8468 24.4801H65.6055V28.0322H67.8468C68.6567 28.0322 69.3618 28.5793 69.5643 29.3643C69.8556 30.4903 70.3015 31.5667 70.8893 32.5612C71.3013 33.2592 71.1877 34.1473 70.6158 34.7192L69.0297 36.3034L71.5411 38.8166L73.1272 37.2323C73.6991 36.6568 74.5906 36.5486 75.2868 36.9588C76.2797 37.5449 77.3542 37.9889 78.4821 38.2802C79.2653 38.4827 79.8141 39.1896 79.8141 39.9994V42.2408H83.3662V39.9994C83.3662 39.1896 83.9151 38.4809 84.6965 38.2802C85.8243 37.9889 86.8988 37.5449 87.8917 36.9588C88.5915 36.5468 89.4795 36.6604 90.0513 37.2323L91.6375 38.8166L94.1488 36.3034L92.5627 34.7192C91.9908 34.1473 91.879 33.2592 92.2892 32.5612C92.8771 31.5667 93.323 30.4903 93.6142 29.3643C93.8167 28.5793 94.5236 28.0322 95.3335 28.0322H97.5748V24.4801H95.3352C94.5253 24.4801 93.8185 23.9313 93.616 23.1481C93.3247 22.0221 92.879 20.9457 92.2911 19.9511C91.879 19.2531 91.9926 18.3651 92.5646 17.7932L94.1506 16.2089L91.6392 13.6958L90.0532 15.2801C89.4795 15.8554 88.5897 15.9638 87.8935 15.5536C86.9006 14.9674 85.8261 14.5234 84.6983 14.2322C83.9151 14.0297 83.3662 13.3228 83.3662 12.5129V10.2715H79.8141V12.5129C79.8141 13.3228 79.2653 14.0314 78.4838 14.2322C77.356 14.5234 76.2815 14.9674 75.2886 15.5536C74.5925 15.9673 73.7026 15.8554 73.129 15.2801L71.5428 13.6958L69.0316 16.2089L70.6176 17.7932C71.1895 18.3651 71.3013 19.2531 70.8911 19.9511C70.3032 20.9457 69.8573 22.0221 69.5661 23.1481C69.3636 23.9331 68.6567 24.4801 67.8468 24.4801ZM81.4717 33.4789C85.3953 33.4789 88.5761 30.2982 88.5761 26.3746C88.5761 22.4509 85.3953 19.2703 81.4717 19.2703C77.5482 19.2703 74.3675 22.4509 74.3675 26.3746C74.3675 30.2982 77.5482 33.4789 81.4717 33.4789Z" fill="#40986E" fill-opacity="0.3"/>
<path d="M81.5874 35.1365C86.484 35.1365 90.4678 31.1527 90.4678 26.2561C90.4678 21.3595 86.484 17.3757 81.5874 17.3757C76.6908 17.3757 72.707 21.3595 72.707 26.2561C72.707 31.1527 76.6908 35.1365 81.5874 35.1365ZM81.5874 20.9279C84.525 20.9279 86.9157 23.3185 86.9157 26.2561C86.9157 29.1937 84.525 31.5844 81.5874 31.5844C78.6498 31.5844 76.2592 29.1937 76.2592 26.2561C76.2592 23.3185 78.6498 20.9279 81.5874 20.9279Z" fill="#40986E"/>
<path d="M62.0508 29.8082C62.0508 30.7886 62.8447 31.5843 63.8269 31.5843H66.53C66.7165 32.1118 66.9333 32.6304 67.1713 33.1348L65.2602 35.0477C64.9263 35.3816 64.7398 35.8327 64.7398 36.3033C64.7398 36.774 64.9263 37.227 65.2602 37.5591L70.2829 42.5836C70.9774 43.2779 72.0998 43.2779 72.7943 42.5836L74.7072 40.6724C75.2115 40.9123 75.7284 41.1272 76.2577 41.3137V44.0168C76.2577 44.9972 77.0515 45.7929 78.0337 45.7929H85.138C86.1202 45.7929 86.9142 44.9972 86.9142 44.0168V41.3137C87.4434 41.1272 87.9602 40.9123 88.4647 40.6724L90.3774 42.5836C91.0719 43.2779 92.1944 43.2779 92.8888 42.5836L97.9115 37.5591C98.2454 37.2251 98.4319 36.774 98.4319 36.3033C98.4319 35.8327 98.2454 35.3798 97.9115 35.0477L96.0005 33.1348C96.2403 32.6304 96.4552 32.1118 96.6417 31.5843H99.3484C100.331 31.5843 101.125 30.7886 101.125 29.8082V22.704C101.125 21.7236 100.331 20.9278 99.3484 20.9278H96.6453C96.4588 20.4003 96.242 19.8817 96.004 19.3773L97.9152 17.4644C98.249 17.1306 98.4355 16.6795 98.4355 16.2088C98.4355 15.7382 98.249 15.2852 97.9152 14.9531L92.8924 9.9286C92.1979 9.23416 91.0754 9.23416 90.381 9.9286L88.4682 11.8397C87.962 11.6017 87.4452 11.3868 86.9159 11.1985V8.49531C86.9159 7.51491 86.1219 6.71924 85.1398 6.71924H78.0355C77.0533 6.71924 76.2594 7.51491 76.2594 8.49531V11.1985C75.7302 11.385 75.2133 11.5999 74.7089 11.8397L72.796 9.93038C72.1017 9.23594 70.9792 9.23594 70.2847 9.93038L65.2619 14.955C64.928 15.2888 64.7415 15.74 64.7415 16.2106C64.7415 16.6812 64.928 17.1342 65.2619 17.4663L67.173 19.3791C66.9333 19.8817 66.7183 20.4003 66.53 20.9278H63.8269C62.8447 20.9278 62.0508 21.7236 62.0508 22.704V29.8082ZM65.6029 24.4799H67.8444C68.6543 24.4799 69.3612 23.933 69.5637 23.148C69.8549 22.022 70.3007 20.9456 70.8885 19.951C71.2988 19.253 71.1869 18.365 70.615 17.7931L69.029 16.2088L71.5404 13.6957L73.1264 15.28C73.7 15.8553 74.5899 15.9673 75.2862 15.5534C76.2789 14.9673 77.3535 14.5233 78.4813 14.2321C79.2628 14.0313 79.8115 13.3227 79.8115 12.5128V10.2714H83.3637V12.5128C83.3637 13.3227 83.9125 14.0296 84.6958 14.2321C85.8235 14.5233 86.8982 14.9673 87.8909 15.5534C88.5872 15.9637 89.477 15.8553 90.0507 15.28L91.6367 13.6957L94.148 16.2088L92.562 17.7931C91.9902 18.365 91.8764 19.253 92.2885 19.951C92.8764 20.9456 93.3222 22.022 93.6134 23.148C93.8159 23.9312 94.5228 24.4799 95.3327 24.4799H97.5723V28.0322H95.3309C94.521 28.0322 93.8142 28.5792 93.6117 29.3642C93.3204 30.4902 92.8747 31.5666 92.2868 32.5612C91.8764 33.2592 91.9884 34.1472 92.5603 34.7191L94.1463 36.3033L91.6349 38.8164L90.0489 37.2322C89.477 36.6603 88.5889 36.5467 87.8892 36.9587C86.8963 37.5448 85.8218 37.9888 84.694 38.2801C83.9125 38.4808 83.3637 39.1894 83.3637 39.9993V42.2408H79.8115V39.9993C79.8115 39.1894 79.2628 38.4826 78.4795 38.2801C77.3517 37.9888 76.2772 37.5448 75.2843 36.9587C74.5882 36.5485 73.6965 36.6568 73.1247 37.2322L71.5387 38.8164L69.0273 36.3033L70.6133 34.7191C71.1852 34.1472 71.2988 33.2592 70.8868 32.5612C70.2989 31.5666 69.8532 30.4902 69.5618 29.3642C69.3594 28.5792 68.6543 28.0322 67.8444 28.0322H65.6029V24.4799Z" fill="#40986E"/>
</g>
</g>
<defs>
<clipPath id="clip0_829_5594">
<rect width="101.25" height="100" fill="white" transform="translate(0.5)"/>
</clipPath>
</defs>
</svg>
