<svg width="101" height="100" viewBox="0 0 101 100" fill="none" xmlns="http://www.w3.org/2000/svg">
<g clip-path="url(#clip0_829_5567)">
<mask id="mask0_829_5567" style="mask-type:luminance" maskUnits="userSpaceOnUse" x="0" y="0" width="101" height="100">
<path d="M100.5 0H0.5V100H100.5V0Z" fill="white"/>
</mask>
<g mask="url(#mask0_829_5567)">
<path d="M70.1903 6.36597H30.8125C25.3329 6.36597 20.8906 10.8082 20.8906 16.2878C20.8906 21.7676 25.3329 26.2097 30.8125 26.2097H44.3545C44.7172 26.2097 45.0655 26.352 45.3245 26.6058L49.5316 30.7302C50.0704 31.2583 50.9326 31.2583 51.4714 30.7302L55.6785 26.6058C55.9375 26.352 56.2858 26.2097 56.6485 26.2097H70.1905C75.6701 26.2097 80.1124 21.7676 80.1124 16.2878C80.1124 10.8082 75.6701 6.36597 70.1903 6.36597Z" fill="#40986E" fill-opacity="0.3"/>
<path d="M21.1877 62.9822H4.22636C2.97734 62.9822 1.96484 61.9697 1.96484 60.7207V43.7593C1.96484 42.5103 2.97734 41.4978 4.22636 41.4978H21.1877C22.4367 41.4978 23.4492 42.5103 23.4492 43.7593V60.7207C23.4492 61.9697 22.4367 62.9822 21.1877 62.9822Z" fill="#D3E6DD"/>
<path d="M21.1877 41.4978H17.8827V55.1603C17.8827 56.4093 16.8702 57.4218 15.6212 57.4218H1.96484V60.7207C1.96484 61.9697 2.97734 62.9822 4.22636 62.9822H21.1877C22.4367 62.9822 23.4492 61.9697 23.4492 60.7207V43.7593C23.4492 42.5103 22.4367 41.4978 21.1877 41.4978Z" fill="#D3E6DD"/>
<path d="M96.7737 62.9822H79.8123C78.5633 62.9822 77.5508 61.9697 77.5508 60.7207V43.7593C77.5508 42.5103 78.5633 41.4978 79.8123 41.4978H96.7737C98.0227 41.4978 99.0352 42.5103 99.0352 43.7593V60.7207C99.0352 61.9697 98.0227 62.9822 96.7737 62.9822Z" fill="#D3E6DD"/>
<path d="M96.7737 41.4978H93.4688V55.1603C93.4688 56.4093 92.4563 57.4218 91.2073 57.4218H77.5508V60.7207C77.5508 61.9697 78.5633 62.9822 79.8123 62.9822H96.7737C98.0227 62.9822 99.0352 61.9697 99.0352 60.7207V43.7593C99.0352 42.5103 98.0227 41.4978 96.7737 41.4978Z" fill="#D3E6DD"/>
<path d="M96.7737 41.4978H79.8123C78.5633 41.4978 77.5508 42.5103 77.5508 43.7593V44.5829L86.6938 53.7259C87.577 54.6091 89.0088 54.6091 89.892 53.7259L99.035 44.5829V43.7593C99.0352 42.5103 98.0227 41.4978 96.7737 41.4978Z" fill="#D3E6DD"/>
<path d="M96.7736 41.4978H93.4688V50.1493L99.0351 44.5829V43.7593C99.0351 42.5103 98.0226 41.4978 96.7736 41.4978Z" fill="#D3E6DD"/>
<path d="M46.7617 51.0366V50.5739C46.7617 49.7648 46.106 49.1091 45.2968 49.1091C44.4877 49.1091 43.832 49.7648 43.832 50.5739V51.0366C43.832 51.8458 44.4877 52.5015 45.2968 52.5015C46.106 52.5015 46.7617 51.8456 46.7617 51.0366Z" fill="#40986E"/>
<path d="M57.1679 51.0366V50.5739C57.1679 49.7648 56.5123 49.1091 55.7032 49.1091C54.8939 49.1091 54.2383 49.7648 54.2383 50.5739V51.0366C54.2383 51.8458 54.8939 52.5015 55.7032 52.5015C56.5123 52.5015 57.1679 51.8456 57.1679 51.0366Z" fill="#40986E"/>
<path d="M69.5691 17.7529C70.3783 17.7529 71.034 17.0972 71.034 16.2881C71.034 15.4789 70.3783 14.8232 69.5691 14.8232H64.9297C64.1205 14.8232 63.4648 15.4789 63.4648 16.2881C63.4648 17.0972 64.1205 17.7529 64.9297 17.7529H69.5691Z" fill="#40986E"/>
<path d="M29.9648 16.2881C29.9648 17.0972 30.6206 17.7529 31.4297 17.7529H58.0008C58.81 17.7529 59.4657 17.0972 59.4657 16.2881C59.4657 15.4789 58.81 14.8232 58.0008 14.8232H31.4297C30.6207 14.8232 29.9648 15.4789 29.9648 16.2881Z" fill="#40986E"/>
<path d="M5.87109 46.8688C5.87109 47.6781 6.52676 48.3337 7.33593 48.3337H18.0781C18.8872 48.3337 19.543 47.6781 19.543 46.8688C19.543 46.0597 18.8872 45.4041 18.0781 45.4041H7.33593C6.52676 45.4041 5.87109 46.0597 5.87109 46.8688Z" fill="#40986E"/>
<path d="M96.7736 40.0329H85.8534C84.4659 34.3577 81.7229 29.1075 77.8531 24.7017C80.1389 22.6177 81.5756 19.6175 81.5756 16.2878C81.5756 10.0091 76.4676 4.90088 70.1889 4.90088H43.6641C42.8549 4.90088 42.1993 5.55654 42.1993 6.36572C42.1993 7.17489 42.8549 7.83057 43.6641 7.83057H70.1891C74.8524 7.83057 78.6461 11.6245 78.6461 16.2878C78.6461 20.951 74.8524 24.745 70.1891 24.745H56.6471C55.8959 24.745 55.1872 25.0345 54.6517 25.5599L50.5 29.6298L46.3486 25.56C45.8128 25.0347 45.1041 24.745 44.3529 24.745H30.811C26.1476 24.745 22.3539 20.951 22.3539 16.2878C22.3539 11.6245 26.1476 7.83057 30.811 7.83057H36.8281C37.6372 7.83057 38.293 7.17489 38.293 6.36572C38.293 5.55654 37.6372 4.90088 36.8281 4.90088H30.811C24.5324 4.90088 19.4242 10.0089 19.4242 16.2878C19.4242 19.6175 20.861 22.6177 23.1466 24.7017C19.2768 29.1073 16.5338 34.3577 15.1465 40.0329H4.22636C2.17168 40.0329 0.5 41.7044 0.5 43.7593V60.7207C0.5 62.7755 2.17168 64.4469 4.22636 64.4469H17.6766C21.8333 73.1005 29.2652 79.7858 38.293 82.9992V91.3724C38.293 93.4273 39.9646 95.0988 42.0194 95.0988H58.9806C61.0355 95.0988 62.707 93.427 62.707 91.3724V82.9982C66.5004 81.6485 70.0218 79.6903 73.1861 77.1649C73.8184 76.6603 73.9219 75.7384 73.4174 75.1062C72.9128 74.4742 71.9912 74.3702 71.3586 74.8749C68.724 76.9777 65.8207 78.6523 62.707 79.8714V74.411C62.707 72.3562 61.0354 70.6847 58.9806 70.6847H42.0194C39.9645 70.6847 38.293 72.3563 38.293 74.411V79.8701C30.877 76.9641 24.7177 71.4795 20.9632 64.4468H21.1877C23.2426 64.4468 24.9141 62.7752 24.9141 60.7204V43.759C24.9141 41.7042 23.2424 40.0327 21.1877 40.0327H18.1744C19.5267 34.9787 22.0503 30.3087 25.5623 26.3878C27.1341 27.2082 28.9187 27.6747 30.8111 27.6747H44.3209L48.5048 31.7763C49.0549 32.3158 49.7775 32.5854 50.5002 32.5854C51.2226 32.5854 51.9455 32.3158 52.4955 31.7763L56.6795 27.6747H70.1892C72.0816 27.6747 73.866 27.2082 75.4381 26.3878C78.9502 30.3089 81.4736 34.9788 82.826 40.0327H79.8128C77.7579 40.0327 76.0864 41.7044 76.0864 43.759V60.7204C76.0864 62.7753 77.758 64.4468 79.8128 64.4468H80.0379C78.9244 66.5312 77.5914 68.496 76.0573 70.309C75.5346 70.9267 75.6117 71.851 76.2292 72.3735C76.5045 72.6063 76.8406 72.72 77.1749 72.72C77.5909 72.72 78.0041 72.5438 78.2937 72.2014C80.2959 69.835 81.9809 67.229 83.3181 64.4468H96.774C98.8289 64.4468 100.5 62.7752 100.5 60.7204V43.759C100.5 41.7044 98.8284 40.0329 96.7736 40.0329ZM41.2226 74.411C41.2226 73.9718 41.5801 73.6144 42.0194 73.6144H58.9806C59.4199 73.6144 59.7774 73.9718 59.7774 74.411V84.8884L59.0704 84.1813C58.5799 83.6907 57.9281 83.4207 57.2347 83.4207C56.5414 83.4207 55.8895 83.6907 55.3996 84.1809L53.2037 86.3767L47.4969 80.6696C47.0065 80.1794 46.3548 79.9094 45.6615 79.9094C44.9684 79.9094 44.3164 80.1794 43.8261 80.6698L41.2226 83.2733V74.411ZM41.2226 87.4165L45.6614 82.9777L51.6879 89.0044C52.5236 89.8395 53.8834 89.8399 54.719 89.0044L57.2347 86.4888L59.7775 89.0318V91.3722C59.7775 91.8114 59.4201 92.1688 58.9809 92.1688H42.0195C41.5802 92.1688 41.2229 91.8114 41.2229 91.3722L41.2226 87.4165ZM21.1877 42.9625C21.627 42.9625 21.9844 43.32 21.9844 43.7593V60.7207C21.9844 61.1599 21.627 61.5173 21.1877 61.5173H4.22636C3.78711 61.5173 3.42969 61.1599 3.42969 60.7207V43.7593C3.42969 43.32 3.78711 42.9625 4.22636 42.9625H16.3088C16.3111 42.9625 16.3136 42.963 16.3162 42.963C16.3191 42.963 16.3221 42.9625 16.325 42.9625H21.1877ZM97.5704 60.7207C97.5704 61.1599 97.2129 61.5173 96.7736 61.5173H79.8124C79.373 61.5173 79.0156 61.1599 79.0156 60.7207V48.1194L85.658 54.7617C86.3619 55.4655 87.2976 55.8531 88.293 55.8531C89.2882 55.8531 90.2243 55.4657 90.928 54.7618L97.5704 48.1194V60.7207ZM97.5704 43.9759L88.8562 52.6902C88.7056 52.8407 88.5059 52.9233 88.293 52.9233C88.0801 52.9233 87.8802 52.8405 87.7298 52.6899L79.0156 43.9759V43.7593C79.0156 43.32 79.373 42.9625 79.8124 42.9625H96.7736C97.2129 42.9625 97.5704 43.32 97.5704 43.7593V43.9759Z" fill="#40986E"/>
<path d="M34.2305 52.2461C33.4214 52.2461 32.7656 52.9017 32.7656 53.711V56.9334C32.7656 60.4927 35.6614 63.3885 39.2207 63.3885H61.7816C65.341 63.3885 68.2367 60.4927 68.2367 56.9334V44.6771C68.2367 41.4812 65.9016 38.8221 62.8482 38.3119V35.4864C62.8482 34.6771 62.1926 34.0215 61.3834 34.0215C60.5742 34.0215 59.9186 34.6771 59.9186 35.4864V38.2222H41.0839V35.4864C41.0839 34.6771 40.4281 34.0215 39.619 34.0215C38.8097 34.0215 38.1541 34.6771 38.1541 35.4864V38.3119C35.1007 38.8219 32.7656 41.4812 32.7656 44.6771V46.875C32.7656 47.6841 33.4214 48.3399 34.2305 48.3399C35.0396 48.3399 35.6954 47.6841 35.6954 46.875V44.6771C35.6954 42.7334 37.2767 41.152 39.2207 41.152H61.7816C63.7256 41.152 65.307 42.7334 65.307 44.6771V56.9334C65.307 58.8774 63.7256 60.4587 61.7816 60.4587H39.2207C37.2767 60.4587 35.6954 58.8774 35.6954 56.9334V53.711C35.6954 52.9017 35.0396 52.2461 34.2305 52.2461Z" fill="#40986E"/>
<path d="M7.53867 50.7751H7.33593C6.52676 50.7751 5.87109 51.4309 5.87109 52.24C5.87109 53.0493 6.52676 53.7049 7.33593 53.7049H7.53867C8.34784 53.7049 9.00351 53.0493 9.00351 52.24C9.00351 51.4309 8.34784 50.7751 7.53867 50.7751Z" fill="#40986E"/>
<path d="M12.808 50.7751H12.6055C11.7963 50.7751 11.1406 51.4309 11.1406 52.24C11.1406 53.0493 11.7963 53.7049 12.6055 53.7049H12.808C13.6171 53.7049 14.2729 53.0493 14.2729 52.24C14.2729 51.4309 13.617 50.7751 12.808 50.7751Z" fill="#40986E"/>
<path d="M18.0778 50.7751H17.875C17.0658 50.7751 16.4102 51.4309 16.4102 52.24C16.4102 53.0493 17.0658 53.7049 17.875 53.7049H18.0778C18.8869 53.7049 19.5427 53.0493 19.5427 52.24C19.5427 51.4309 18.8869 50.7751 18.0778 50.7751Z" fill="#40986E"/>
<path d="M7.53867 56.1462H7.33593C6.52676 56.1462 5.87109 56.802 5.87109 57.6111C5.87109 58.4202 6.52676 59.076 7.33593 59.076H7.53867C8.34784 59.076 9.00351 58.4202 9.00351 57.6111C9.00351 56.802 8.34784 56.1462 7.53867 56.1462Z" fill="#40986E"/>
<path d="M12.808 56.1462H12.6055C11.7963 56.1462 11.1406 56.802 11.1406 57.6111C11.1406 58.4202 11.7963 59.076 12.6055 59.076H12.808C13.6171 59.076 14.2729 58.4202 14.2729 57.6111C14.2729 56.802 13.617 56.1462 12.808 56.1462Z" fill="#40986E"/>
<path d="M18.0778 56.1462H17.875C17.0658 56.1462 16.4102 56.802 16.4102 57.6111C16.4102 58.4202 17.0658 59.076 17.875 59.076H18.0778C18.8869 59.076 19.5427 58.4202 19.5427 57.6111C19.5427 56.802 18.8869 56.1462 18.0778 56.1462Z" fill="#40986E"/>
<path d="M55.3632 79.3807C56.1722 79.3807 56.8281 78.7248 56.8281 77.9158C56.8281 77.1068 56.1722 76.4509 55.3632 76.4509C54.5542 76.4509 53.8984 77.1068 53.8984 77.9158C53.8984 78.7248 54.5542 79.3807 55.3632 79.3807Z" fill="#40986E"/>
</g>
</g>
<defs>
<clipPath id="clip0_829_5567">
<rect width="100" height="100" fill="white" transform="translate(0.5)"/>
</clipPath>
</defs>
</svg>
