<svg width="101" height="100" viewBox="0 0 101 100" fill="none" xmlns="http://www.w3.org/2000/svg">
<g clip-path="url(#clip0_829_5348)">
<mask id="mask0_829_5348" style="mask-type:luminance" maskUnits="userSpaceOnUse" x="0" y="0" width="101" height="100">
<path d="M100.5 0H0.5V100H100.5V0Z" fill="white"/>
</mask>
<g mask="url(#mask0_829_5348)">
<path d="M57.1657 1.66699H90.4993C95.1013 1.66699 98.832 5.39777 98.832 9.99982V33.3336C98.832 37.9356 95.1013 41.6663 90.4993 41.6663H57.1657C52.5635 41.6663 48.832 37.9356 48.832 33.3336V9.99982C48.832 5.39777 52.5635 1.66699 57.1657 1.66699Z" fill="#C5E8D9"/>
<path d="M57.1657 1.66699H85.4989C90.1018 1.66699 93.8325 5.39777 93.8325 9.99982V33.3336C93.8325 37.9356 90.1018 41.6663 85.4989 41.6663H57.1657C52.5635 41.6663 48.832 37.9356 48.832 33.3336V9.99982C48.832 5.39777 52.5635 1.66699 57.1657 1.66699Z" fill="#E2F3EC"/>
<path d="M62.167 40L60.5 53.3331L78.8334 40" fill="#E2F3EC"/>
<path d="M63.8345 21.6669C63.8345 23.5079 62.3422 25.0001 60.5012 25.0001C58.6602 25.0001 57.168 23.5079 57.168 21.6669C57.168 19.8259 58.6602 18.3335 60.5012 18.3335C62.3422 18.3335 63.8345 19.8259 63.8345 21.6669Z" fill="#E2F3EC"/>
<path d="M77.1674 21.6669C77.1674 23.5079 75.6742 25.0001 73.8332 25.0001C71.9922 25.0001 70.5 23.5079 70.5 21.6669C70.5 19.8259 71.9922 18.3335 73.8332 18.3335C75.6742 18.3335 77.1674 19.8259 77.1674 21.6669Z" fill="#E2F3EC"/>
<path d="M90.4985 21.6669C90.4985 23.5079 89.0063 25.0001 87.1653 25.0001C85.3243 25.0001 83.832 23.5079 83.832 21.6669C83.832 19.8259 85.3243 18.3335 87.1653 18.3335C89.0063 18.3335 90.4985 19.8259 90.4985 21.6669Z" fill="#E2F3EC"/>
<path d="M48.832 9.99982V33.3336C48.832 37.9356 52.5635 41.6663 57.1657 41.6663H61.9577L60.4989 53.3332L65.9989 49.3332L66.9572 41.6663H62.1659C57.5632 41.6663 53.8324 37.9356 53.8324 33.3336V9.99982C53.8324 5.39777 57.5632 1.66699 62.1659 1.66699H57.1657C52.5635 1.66699 48.832 5.39777 48.832 9.99982Z" fill="white"/>
<path d="M2.16702 78.3332C1.24615 78.3332 0.5 77.5871 0.5 76.667V73.333C0.5 72.4129 1.24615 71.6667 2.16702 71.6667C3.08712 71.6667 3.83329 72.4129 3.83329 73.333V76.667C3.83329 77.5871 3.08712 78.3332 2.16702 78.3332Z" fill="#40986E"/>
<path d="M7.16626 80.0003C6.24615 80.0003 5.5 79.2541 5.5 78.3333V71.6668C5.5 70.7459 6.24615 69.9998 7.16626 69.9998C8.08713 69.9998 8.83329 70.7459 8.83329 71.6668V78.3333C8.83329 79.2541 8.08713 80.0003 7.16626 80.0003Z" fill="#40986E"/>
<path d="M27.167 80.0003C26.2461 80.0003 25.5 79.2541 25.5 78.3333V71.6668C25.5 70.7459 26.2461 69.9998 27.167 69.9998C28.0871 69.9998 28.8332 70.7459 28.8332 71.6668V78.3333C28.8332 79.2541 28.0871 80.0003 27.167 80.0003Z" fill="#40986E"/>
<path d="M13.8342 83.3335C12.9141 83.3335 12.168 82.5873 12.168 81.6665V68.3333C12.168 67.4125 12.9141 66.6663 13.8342 66.6663C14.7551 66.6663 15.5012 67.4125 15.5012 68.3333V81.6665C15.5012 82.5873 14.7551 83.3335 13.8342 83.3335Z" fill="#40986E"/>
<path d="M20.4983 83.3334C19.5782 83.3334 18.832 82.5873 18.832 81.6664V68.3333C18.832 67.4124 19.5782 66.6663 20.4983 66.6663C21.4192 66.6663 22.1653 67.4124 22.1653 68.3333V81.6664C22.1653 82.5873 21.4192 83.3334 20.4983 83.3334Z" fill="#40986E"/>
<path d="M33.835 86.6668C32.9141 86.6668 32.168 85.9206 32.168 84.9998V65C32.168 64.0791 32.9141 63.333 33.835 63.333C34.7551 63.333 35.5012 64.0791 35.5012 65V84.9998C35.5012 85.9206 34.7551 86.6668 33.835 86.6668Z" fill="#40986E"/>
<path d="M40.499 90.0002C39.5782 90.0002 38.832 89.2541 38.832 88.3332V61.667C38.832 60.7461 39.5782 60 40.499 60C41.4192 60 42.1653 60.7461 42.1653 61.667V88.3332C42.1653 89.2541 41.4192 90.0002 40.499 90.0002Z" fill="#40986E"/>
<path d="M47.167 100C46.2461 100 45.5 99.2539 45.5 98.333V51.667C45.5 50.7461 46.2461 50 47.167 50C48.0871 50 48.8332 50.7461 48.8332 51.667V98.333C48.8332 99.2539 48.0871 100 47.167 100Z" fill="#40986E"/>
<path d="M98.8342 78.3332C97.9141 78.3332 97.168 77.5871 97.168 76.667V73.333C97.168 72.4129 97.9141 71.6667 98.8342 71.6667C99.7551 71.6667 100.501 72.4129 100.501 73.333V76.667C100.501 77.5871 99.7551 78.3332 98.8342 78.3332Z" fill="#40986E"/>
<path d="M93.835 80.0003C92.9141 80.0003 92.168 79.2541 92.168 78.3333V71.6668C92.168 70.7459 92.9141 69.9998 93.835 69.9998C94.7551 69.9998 95.5012 70.7459 95.5012 71.6668V78.3333C95.5012 79.2541 94.7551 80.0003 93.835 80.0003Z" fill="#40986E"/>
<path d="M73.8342 80.0003C72.9141 80.0003 72.168 79.2541 72.168 78.3333V71.6668C72.168 70.7459 72.9141 69.9998 73.8342 69.9998C74.7551 69.9998 75.5012 70.7459 75.5012 71.6668V78.3333C75.5012 79.2541 74.7551 80.0003 73.8342 80.0003Z" fill="#40986E"/>
<path d="M87.167 83.3335C86.2461 83.3335 85.5 82.5873 85.5 81.6665V68.3333C85.5 67.4125 86.2461 66.6663 87.167 66.6663C88.0871 66.6663 88.8333 67.4125 88.8333 68.3333V81.6665C88.8333 82.5873 88.0871 83.3335 87.167 83.3335Z" fill="#40986E"/>
<path d="M80.499 83.3335C79.5782 83.3335 78.832 82.5873 78.832 81.6665V68.3333C78.832 67.4125 79.5782 66.6663 80.499 66.6663C81.4192 66.6663 82.1653 67.4125 82.1653 68.3333V81.6665C82.1653 82.5873 81.4192 83.3335 80.499 83.3335Z" fill="#40986E"/>
<path d="M67.1663 86.6668C66.2461 86.6668 65.5 85.9206 65.5 84.9998V65C65.5 64.0791 66.2461 63.333 67.1663 63.333C68.0871 63.333 68.8332 64.0791 68.8332 65V84.9998C68.8332 85.9206 68.0871 86.6668 67.1663 86.6668Z" fill="#40986E"/>
<path d="M60.4983 90.0002C59.5782 90.0002 58.832 89.2541 58.832 88.3332V61.667C58.832 60.7461 59.5782 60 60.4983 60C61.4192 60 62.1653 60.7461 62.1653 61.667V88.3332C62.1653 89.2541 61.4192 90.0002 60.4983 90.0002Z" fill="#40986E"/>
<path d="M53.8342 100C52.9141 100 52.168 99.2539 52.168 98.333V51.667C52.168 50.7461 52.9141 50 53.8342 50C54.7551 50 55.5012 50.7461 55.5012 51.667V98.333C55.5012 99.2539 54.7551 100 53.8342 100Z" fill="#40986E"/>
<path d="M47.168 33.3335V9.99976H50.5012V33.3335H47.168Z" fill="white"/>
<path d="M48.8342 25C47.9141 25 47.168 25.7461 47.168 26.667V33.3336H50.5012V26.667C50.5012 25.7461 49.7551 25 48.8342 25Z" fill="#40986E"/>
<path d="M50.5012 9.99976H47.168V13.333C47.168 14.2539 47.9141 15 48.8342 15C49.7551 15 50.5012 14.2539 50.5012 13.333V9.99976Z" fill="#40986E"/>
<path d="M47.1681 19.9998C47.1742 20.4416 47.3473 20.8643 47.6509 21.1832L47.9012 21.3838C47.9943 21.4465 48.0951 21.4967 48.2011 21.5333C48.2957 21.5815 48.3972 21.615 48.5017 21.6333C48.6116 21.6523 48.7229 21.6631 48.8343 21.6668C49.2761 21.6601 49.6987 21.4876 50.0176 21.1832C50.1687 21.0245 50.2877 20.8376 50.3678 20.6338C50.6196 20.0121 50.4822 19.3002 50.0176 18.8166C49.8589 18.6662 49.6721 18.5472 49.4683 18.4671C49.2677 18.3817 49.0524 18.3358 48.8343 18.3336C48.3911 18.3291 47.9646 18.503 47.6509 18.8166C47.3374 19.1301 47.1634 19.5566 47.1681 19.9998Z" fill="#40986E"/>
<path d="M61.9682 43.3333H57.1678C51.6472 43.328 47.1733 38.8541 47.168 33.3335C47.168 32.4126 47.9141 31.6665 48.8342 31.6665C49.7551 31.6665 50.5012 32.4126 50.5012 33.3335C50.5012 37.0154 53.4858 40 57.1678 40H61.9682C62.8883 40 63.6345 40.7461 63.6345 41.6663C63.6345 42.5871 62.8883 43.3333 61.9682 43.3333Z" fill="#40986E"/>
<path d="M90.5015 43.3334H76.5511C75.631 43.3334 74.8848 42.5872 74.8848 41.6664C74.8848 40.7463 75.631 40.0001 76.5511 40.0001H90.5015C94.1833 40.0001 97.168 37.0155 97.168 33.3336V9.99985C97.168 6.3179 94.1833 3.33329 90.5015 3.33329H57.1678C53.4858 3.33329 50.5012 6.3179 50.5012 9.99985C50.5012 10.9207 49.7551 11.6669 48.8342 11.6669C47.9141 11.6669 47.168 10.9207 47.168 9.99985C47.1733 4.47921 51.6472 0.00534059 57.1678 0H90.5015C96.0221 0.00534059 100.496 4.47921 100.501 9.99985V33.3336C100.496 38.8543 96.0221 43.3281 90.5015 43.3334Z" fill="#40986E"/>
<path d="M60.4982 55.0003C60.0206 54.9995 59.5651 54.7943 59.2492 54.4365C58.9327 54.0779 58.7855 53.601 58.845 53.1265L60.512 39.7934C60.6455 38.8985 61.4687 38.2729 62.3666 38.385C63.2646 38.4979 63.9094 39.3059 63.8185 40.2069L62.6299 49.723L77.852 38.652C78.5966 38.1104 79.6389 38.2751 80.1797 39.0198C80.7215 39.7644 80.5566 40.8074 79.812 41.3483L61.4786 54.6814C61.1932 54.8889 60.8507 55.0003 60.4982 55.0003Z" fill="#40986E"/>
<path d="M60.4995 26.6669C57.7385 26.6669 55.5 24.4276 55.5 21.6666C55.5 18.9048 57.7385 16.6663 60.4995 16.6663C63.2614 16.6663 65.4999 18.9048 65.4999 21.6666C65.4999 24.4276 63.2614 26.6669 60.4995 26.6669ZM60.4995 19.9995C59.5794 19.9995 58.8332 20.7458 58.8332 21.6666C58.8332 22.5866 59.5794 23.3329 60.4995 23.3329C61.4204 23.3329 62.1666 22.5866 62.1666 21.6666C62.1666 20.7458 61.4204 19.9995 60.4995 19.9995Z" fill="#40986E"/>
<path d="M73.8315 26.6669C71.0705 26.6669 68.832 24.4276 68.832 21.6666C68.832 18.9048 71.0705 16.6663 73.8315 16.6663C76.5934 16.6663 78.8319 18.9048 78.8319 21.6666C78.8319 24.4276 76.5934 26.6669 73.8315 26.6669ZM73.8315 19.9995C72.9115 19.9995 72.1653 20.7458 72.1653 21.6666C72.1653 22.5866 72.9115 23.3329 73.8315 23.3329C74.7524 23.3329 75.4987 22.5866 75.4987 21.6666C75.4987 20.7458 74.7524 19.9995 73.8315 19.9995Z" fill="#40986E"/>
<path d="M87.1682 26.6669C84.4065 26.6669 82.168 24.4276 82.168 21.6666C82.168 18.9048 84.4065 16.6663 87.1682 16.6663C89.9293 16.6663 92.1678 18.9048 92.1678 21.6666C92.1678 24.4276 89.9293 26.6669 87.1682 26.6669ZM87.1682 19.9995C86.2473 19.9995 85.5012 20.7458 85.5012 21.6666C85.5012 22.5866 86.2473 23.3329 87.1682 23.3329C88.0883 23.3329 88.8345 22.5866 88.8345 21.6666C88.8345 20.7458 88.0883 19.9995 87.1682 19.9995Z" fill="#40986E"/>
</g>
</g>
<defs>
<clipPath id="clip0_829_5348">
<rect width="100" height="100" fill="white" transform="translate(0.5)"/>
</clipPath>
</defs>
</svg>
