<svg width="100" height="100" viewBox="0 0 100 100" fill="none" xmlns="http://www.w3.org/2000/svg">
<g clip-path="url(#clip0_829_5458)">
<mask id="mask0_829_5458" style="mask-type:luminance" maskUnits="userSpaceOnUse" x="0" y="0" width="100" height="100">
<path d="M100 0H0V100H100V0Z" fill="white"/>
</mask>
<g mask="url(#mask0_829_5458)">
<path d="M88.3346 3.33342V32.5168C79.1225 25.1389 66.1562 24.6943 56.4603 31.4238C46.7643 38.1532 42.6453 50.4558 46.3346 61.6668H3.33463C2.41416 61.6668 1.66797 60.9205 1.66797 60V3.33342C1.66797 2.41295 2.41416 1.66675 3.33463 1.66675H86.668C87.5885 1.66675 88.3346 2.41295 88.3346 3.33342Z" fill="#E2F3EC"/>
<path d="M69.1868 26.7917C68.3535 26.7134 67.5202 26.6667 66.6652 26.6667C58.1114 26.666 50.0765 30.7686 45.0612 37.6977C40.0458 44.6269 38.6588 53.5414 41.3318 61.6667H46.3318C43.7988 53.9571 44.9142 45.5136 49.3622 38.7262C53.8103 31.9389 61.1069 27.5462 69.1868 26.7917Z" fill="#C5E8D9"/>
<path d="M86.668 1.66675H81.668C82.5885 1.66675 83.3346 2.41295 83.3346 3.33342V29.3684C85.1132 30.2288 86.7902 31.2847 88.3346 32.5168V3.33342C88.3346 2.41295 87.5885 1.66675 86.668 1.66675Z" fill="#C5E8D9"/>
<path d="M98.335 53.3332C98.335 65.7794 89.7253 76.5704 77.5897 79.3341C65.4542 82.0978 53.0208 76.0991 47.6314 64.8802C42.242 53.6613 45.3302 40.2062 55.0723 32.4602C64.8143 24.7143 78.6192 24.7376 88.335 32.5166C94.6559 37.5773 98.335 45.2359 98.335 53.3332Z" fill="#E2F3EC"/>
<path d="M88.3347 32.5168C83.6103 28.7203 77.7287 26.6558 71.668 26.6668C70.8346 26.6668 70.0013 26.7168 69.1896 26.7918C82.8497 28.1292 93.2636 39.617 93.258 53.3424C93.2523 67.0679 82.8292 78.5473 69.168 79.8734C70.0013 79.9502 70.8246 80.0002 71.668 80.0002C82.9911 80.0002 93.0796 72.8493 96.8297 62.1653C100.58 51.4812 97.1737 39.5938 88.3347 32.5168Z" fill="#C5E8D9"/>
<path d="M58.1177 76.3167L38.0511 96.3833C35.4438 98.9829 31.2248 98.9829 28.6177 96.3833C26.0181 93.7762 26.0181 89.557 28.6177 86.9499L35.7011 79.8833L41.5843 73.9833L48.6843 66.8833" fill="#E2F3EC"/>
<path d="M55.5477 73.8833L33.0477 96.3833C32.4166 97.0154 31.6643 97.5138 30.8359 97.8483C33.3161 98.8511 36.1554 98.2743 38.0477 96.3833L58.1143 76.3167" fill="#C5E8D9"/>
<path d="M1.66797 60C1.66797 60.9205 2.41416 61.6668 3.33463 61.6668H8.33463C7.41416 61.6668 6.66797 60.9205 6.66797 60V3.33342C6.66797 2.41295 7.41416 1.66675 8.33463 1.66675H3.33463C2.41416 1.66675 1.66797 2.41295 1.66797 3.33342V60Z" fill="white"/>
<path d="M0 46.6667H3.33334V60H0V46.6667Z" fill="white"/>
<path d="M1.66666 55C2.58714 55 3.33334 54.2539 3.33334 53.3334C3.33334 52.4129 2.58714 51.6667 1.66666 51.6667C0.746193 51.6667 0 52.4129 0 53.3334C0 54.2539 0.746193 55 1.66666 55Z" fill="#40986E"/>
<path d="M3.33334 63.3333H40C40.9205 63.3333 41.6666 62.5872 41.6666 61.6667C41.6666 60.7462 40.9205 60 40 60H3.33334C3.29394 59.103 2.56437 58.3909 1.66666 58.3733H1.63166C0.733978 58.3769 0.00638521 59.1023 0 60C0 61.8409 1.49239 63.3333 3.33334 63.3333Z" fill="#40986E"/>
<path d="M0 25.0616V46.6666C0 47.5871 0.746193 48.3334 1.66666 48.3334C2.58714 48.3334 3.33334 47.5871 3.33334 46.6666V25.0616V21.6666C3.33334 20.7462 2.58714 20 1.66666 20C0.746193 20 0 20.7462 0 21.6666V25.0616Z" fill="#40986E"/>
<path d="M0 13.3334C0 14.2538 0.746193 15 1.66666 15C2.58714 15 3.33334 14.2538 3.33334 13.3334V3.33334H86.6666V25C86.6666 25.9205 87.4129 26.6666 88.3334 26.6666C89.2538 26.6666 90 25.9205 90 25V3.33334C90 1.49239 88.5076 0 86.6666 0H3.33334C1.49239 0 0 1.49239 0 3.33334V13.3334Z" fill="#40986E"/>
<path d="M9.99869 11.6668C10.9192 11.6668 11.6654 10.9206 11.6654 10.0002C11.6654 9.07968 10.9192 8.3335 9.99869 8.3335C9.07822 8.3335 8.33203 9.07968 8.33203 10.0002C8.33203 10.9206 9.07822 11.6668 9.99869 11.6668Z" fill="#40986E"/>
<path d="M16.6666 11.6668C17.5871 11.6668 18.3334 10.9206 18.3334 10.0002C18.3334 9.07968 17.5871 8.3335 16.6666 8.3335C15.7462 8.3335 15 9.07968 15 10.0002C15 10.9206 15.7462 11.6668 16.6666 11.6668Z" fill="#40986E"/>
<path d="M23.3346 11.6668C24.2551 11.6668 25.0013 10.9206 25.0013 10.0002C25.0013 9.07968 24.2551 8.3335 23.3346 8.3335C22.4142 8.3335 21.668 9.07968 21.668 10.0002C21.668 10.9206 22.4142 11.6668 23.3346 11.6668Z" fill="#40986E"/>
<path d="M8.82001 41.1783C9.47085 41.8289 10.5258 41.8289 11.1767 41.1783L21.665 30.6899L27.1533 36.1783C27.8042 36.8289 28.8592 36.8289 29.51 36.1783L41.665 24.0233L47.1533 29.5117C47.8042 30.1623 48.8592 30.1623 49.51 29.5117L63.3317 15.6899L68.82 21.1783C69.4708 21.8289 70.5258 21.8289 71.1767 21.1783L81.1767 11.1783C81.6099 10.7598 81.7837 10.1401 81.6312 9.55742C81.4787 8.9747 81.0236 8.51963 80.4409 8.3671C79.8582 8.21458 79.2384 8.38833 78.82 8.82159L69.9983 17.6433L64.51 12.1549C63.8592 11.5043 62.8042 11.5043 62.1533 12.1549L48.3317 25.9767L42.8433 20.4883C42.1925 19.8377 41.1375 19.8377 40.4867 20.4883L28.3317 32.6433L22.8433 27.1549C22.1925 26.5043 21.1375 26.5043 20.4867 27.1549L8.82001 38.8217C8.16937 39.4724 8.16937 40.5274 8.82001 41.1783Z" fill="#40986E"/>
<path d="M71.6669 25C61.73 24.9908 52.516 30.1926 47.3902 38.7054C42.2646 47.2183 41.978 57.7954 46.6352 66.5734L40.4052 72.805C39.753 73.4558 39.752 74.512 40.4027 75.1641C41.0535 75.8164 42.1097 75.8175 42.7619 75.1666L48.4285 69.5C50.3511 72.2555 52.7451 74.6501 55.5002 76.5734L36.8719 95.205C34.9159 97.1435 31.7641 97.1473 29.8035 95.2134C27.8474 93.259 27.8429 90.0899 29.7935 88.13L36.8769 81.0634C37.5095 80.4103 37.502 79.3708 36.86 78.7269C36.218 78.0831 35.1784 78.0726 34.5235 78.7034L27.4302 85.78C24.1854 89.0409 24.1906 94.3124 27.4419 97.5668C30.704 100.804 35.9665 100.804 39.2285 97.5668L58.4269 78.365C68.8437 83.8889 81.5927 82.3841 90.4374 74.5869C99.282 66.7896 102.373 54.33 98.199 43.3028C94.0249 32.2755 83.4577 24.986 71.6669 25ZM71.6669 78.3334C57.8597 78.3334 46.6669 67.1405 46.6669 53.3334C46.6669 39.5263 57.8597 28.3334 71.6669 28.3334C85.474 28.3334 96.6669 39.5263 96.6669 53.3334C96.6512 67.134 85.4675 78.3178 71.6669 78.3334Z" fill="#40986E"/>
<path d="M66.2163 34.0951C57.6212 36.5489 51.6878 44.395 51.668 53.3334C51.668 54.2539 52.4142 55.0001 53.3346 55.0001C54.2551 55.0001 55.0013 54.2539 55.0013 53.3334C55.0167 45.8869 59.9592 39.3496 67.1197 37.3051C67.6931 37.1437 68.1368 36.6887 68.2838 36.1115C68.4307 35.5341 68.2586 34.9224 67.8321 34.5065C67.4057 34.0905 66.7897 33.9337 66.2163 34.0951Z" fill="#40986E"/>
</g>
</g>
<defs>
<clipPath id="clip0_829_5458">
<rect width="100" height="100" fill="white"/>
</clipPath>
</defs>
</svg>
