<svg width="101" height="100" viewBox="0 0 101 100" fill="none" xmlns="http://www.w3.org/2000/svg">
<g clip-path="url(#clip0_829_5332)">
<mask id="mask0_829_5332" style="mask-type:luminance" maskUnits="userSpaceOnUse" x="0" y="0" width="101" height="100">
<path d="M100.5 0H0.5V100H100.5V0Z" fill="white"/>
</mask>
<g mask="url(#mask0_829_5332)">
<path d="M20.878 42.0853C20.304 41.0188 19.2697 40.2774 18.0755 40.0764C16.8814 39.8754 15.6613 40.2374 14.7697 41.0569C13.8484 42.3554 13.5548 43.9973 13.969 45.5344C14.4645 47.9597 15.163 50.3389 16.0573 52.6472C16.5243 54.7614 17.2797 56.8017 18.3023 58.7103C18.656 59.408 19.336 59.8823 20.1132 59.9728C20.8904 60.0631 21.661 59.758 22.1658 59.16H78.8324C79.3368 59.7579 80.1078 60.0632 80.8849 59.9725C81.662 59.8822 82.3422 59.4079 82.6957 58.71C83.7183 56.8014 84.4735 54.7614 84.9405 52.6469C85.8349 50.3388 86.5333 47.9594 87.0288 45.5343C87.4432 43.9969 87.1495 42.3552 86.2283 41.0567C85.3369 40.237 84.1168 39.875 82.9224 40.0763C81.7283 40.2773 80.6939 41.0188 80.1199 42.085L20.878 42.0853Z" fill="#E7EBF4"/>
<path d="M80.4817 40.1333C80.3984 43.6333 80.1817 46.4499 80.1151 47.2833C80.0986 47.4667 80.0986 47.5499 80.0986 47.5499C80.0986 47.5499 78.482 60.6333 78.482 65.5333C78.1661 68.7798 76.9737 71.8792 75.032 74.4999C74.0212 76.0347 72.9076 77.4991 71.6986 78.8833C71.2651 79.3833 70.832 79.8331 70.432 80.2499C70.1154 80.5667 69.7986 80.8834 69.4654 81.2001C68.582 82.0167 67.5987 82.8501 66.5987 83.6834C64.0321 85.8169 61.2487 87.9501 59.1487 90.0669C57.6142 91.7263 55.5866 92.8483 53.3654 93.2669C53.1505 93.3046 52.9334 93.3268 52.7154 93.3334H48.282C48.1869 93.3299 48.0921 93.3188 47.9986 93.3001C47.8986 93.3001 47.782 93.2834 47.632 93.2667C45.4109 92.8482 43.3831 91.7261 41.8486 90.0667C39.7486 87.9501 36.9651 85.8167 34.3986 83.6833C33.3986 82.8499 32.4151 82.0167 31.532 81.1999C31.1986 80.8833 30.882 80.5664 30.5654 80.2497C30.1654 79.8331 29.732 79.3833 29.2987 78.8831C28.0897 77.4989 26.9764 76.0344 25.9654 74.4997C24.0237 71.8789 22.8312 68.7796 22.5154 65.5333C22.5154 60.6331 20.8987 47.5499 20.8987 47.5499C20.8987 47.5499 20.8987 47.4666 20.8821 47.2833C20.8156 46.4499 20.5987 43.6331 20.5156 40.1333C20.399 34.3833 20.6656 26.7999 22.5156 23.0169C25.715 16.5331 35.2484 6.8165 47.9984 6.6665H52.715C65.5984 6.6665 75.265 16.4831 78.4816 23.0167C80.3317 26.7999 80.5984 34.3833 80.4817 40.1333Z" fill="#C5E8D9"/>
<path d="M75.4816 40.1333C75.3982 43.6333 75.1816 46.4499 75.115 47.2833C75.0984 47.4667 75.0984 47.5499 75.0984 47.5499C75.0984 47.5499 73.4817 60.6333 73.4817 65.5333C73.166 68.7798 71.9736 71.8792 70.0317 74.4999C69.021 76.0347 67.9074 77.4991 66.6984 78.8833C66.265 79.3833 65.8317 79.8331 65.4317 80.2499C65.1151 80.5667 64.7984 80.8834 64.4651 81.2001C63.5817 82.0167 62.5986 82.8501 61.5986 83.6834C59.032 85.8169 56.2486 87.9501 54.1486 90.0669C52.614 91.7263 50.5865 92.8483 48.3651 93.2669C48.2151 93.2834 48.0986 93.3003 47.9986 93.3003C47.8986 93.3003 47.782 93.2837 47.632 93.2669C45.4109 92.8483 43.3831 91.7263 41.8486 90.0669C39.7486 87.9503 36.9651 85.8169 34.3986 83.6834C33.3986 82.8501 32.4151 82.0169 31.532 81.2001C31.1986 80.8834 30.882 80.5667 30.5654 80.2499C30.1654 79.8333 29.732 79.3834 29.2987 78.8833C28.0897 77.4991 26.9764 76.0347 25.9654 74.4999C24.0237 71.8792 22.8312 68.7798 22.5154 65.5334C22.5154 60.6333 20.8987 47.5501 20.8987 47.5501C20.8987 47.5501 20.8987 47.4667 20.8821 47.2834C20.8156 46.4501 20.5987 43.6333 20.5156 40.1334C20.399 34.3834 20.6656 26.8001 22.5156 23.0171C25.7147 16.5331 35.2482 6.8165 47.9982 6.6665C60.7482 6.8165 70.2816 16.5331 73.4816 23.0167C75.3316 26.7999 75.5982 34.3833 75.4816 40.1333Z" fill="#E2F3EC"/>
<path d="M16.0574 52.6471C16.5244 54.7616 17.2799 56.8016 18.3024 58.7105C18.6535 59.4018 19.3258 59.8733 20.0955 59.968C20.8653 60.0627 21.6316 59.7681 22.1399 59.1823C22.3574 61.6662 22.5156 64.0002 22.5156 65.5335C22.8315 68.7797 24.0239 71.8792 25.9656 74.5001C26.9764 76.0348 28.09 77.4992 29.299 78.8835C29.7323 79.3835 30.1656 79.8332 30.5656 80.2501C30.8823 80.5668 31.199 80.8837 31.5323 81.2002C32.4156 82.0168 33.3989 82.8502 34.3989 83.6836C36.9656 85.8171 39.7489 87.9502 41.8489 90.0671C43.3834 91.7265 45.411 92.8485 47.6323 93.2671C47.7823 93.2837 47.8989 93.3005 47.9989 93.3005C48.0923 93.3192 48.1869 93.3303 48.2823 93.3338H52.7156C52.7156 93.3338 52.8508 93.3258 53.0416 93.3063L52.9989 93.3005C52.8989 93.3005 52.7823 93.2838 52.6323 93.2671C50.4111 92.8485 48.3834 91.7265 46.8489 90.0671C44.7489 87.9505 41.9654 85.8171 39.3989 83.6836C38.3989 82.8502 37.4154 82.0171 36.5323 81.2002C36.1989 80.8837 35.8823 80.5668 35.5656 80.2501C35.1656 79.8335 34.7323 79.3837 34.299 78.8835C33.09 77.4992 31.9766 76.0348 30.9656 74.5001C29.024 71.8793 27.8315 68.78 27.5156 65.5336C27.5156 64.0005 27.3573 61.6665 27.1399 59.1825C26.6316 59.7682 25.8653 60.063 25.0955 59.9682C24.3258 59.8735 23.6535 59.4022 23.3024 58.7106C22.2798 56.802 21.5244 54.7617 21.0574 52.6473C20.1631 50.3391 19.4646 47.96 18.9691 45.5346C18.5549 43.9975 18.8485 42.3555 19.7695 41.0571C19.799 41.0278 19.8334 41.0108 19.8635 40.9828C18.4121 39.6592 16.1819 39.6918 14.7695 41.0571C13.8483 42.3555 13.5548 43.9975 13.9691 45.5346C14.4646 47.9596 15.1631 50.339 16.0574 52.6471Z" fill="white"/>
<path d="M52.8724 6.67399C52.8195 6.67359 52.7687 6.66675 52.7156 6.66675H47.999C35.249 6.81675 25.7156 16.5334 22.5156 23.0169C20.6656 26.8002 20.399 34.3835 20.5156 40.1335C20.5185 40.2557 20.5232 40.3664 20.5264 40.486C22.2689 39.5734 24.4175 40.0842 25.563 41.6832C25.5451 41.1835 25.5285 40.67 25.5156 40.1335C25.399 34.3835 25.6656 26.8002 27.5156 23.0172C30.7049 16.555 40.1869 6.88746 52.8724 6.67399Z" fill="white"/>
<path d="M0.5 21.6666C0.5 22.5871 1.24629 23.3332 2.1666 23.3332C3.08691 23.3332 3.8332 22.5869 3.8332 21.6666V5C3.83379 4.07969 4.57969 3.33399 5.4998 3.3334H22.1664C23.0869 3.3334 23.833 2.58711 23.833 1.6668C23.833 0.746485 23.0871 0 22.1666 0H5.5C2.73984 0.00292969 0.50293 2.23985 0.5 5V21.6666Z" fill="#40986E"/>
<path d="M95.5012 0H78.8346C77.9141 0 77.168 0.746289 77.168 1.6666C77.168 2.58691 77.9141 3.3332 78.8346 3.3332H95.5012C96.4215 3.33379 97.1672 4.07969 97.1678 4.9998V21.6664C97.1678 22.5869 97.9141 23.333 98.8343 23.333C99.7547 23.333 100.501 22.5868 100.501 21.6664V5C100.498 2.23984 98.2613 0.00292969 95.5012 0Z" fill="#40986E"/>
<path d="M98.8345 76.6665C98.3922 76.6663 97.9682 76.8416 97.6557 77.1544C97.343 77.467 97.1676 77.891 97.1678 78.333V94.9999C97.1672 95.9201 96.4213 96.6659 95.5012 96.6665H78.8346C77.9141 96.6665 77.168 97.4127 77.168 98.333C77.168 99.2534 77.9141 99.9996 78.8346 99.9996H95.501C98.2612 99.9968 100.498 97.7598 100.501 94.9996V78.333C100.501 77.8909 100.326 77.4669 100.013 77.1544C99.7005 76.8419 99.2763 76.6663 98.8345 76.6665Z" fill="#40986E"/>
<path d="M2.1666 76.6665C1.72441 76.6663 1.30039 76.8416 0.987891 77.1544C0.675195 77.467 0.499805 77.891 0.5 78.333V94.9999C0.50293 97.76 2.73985 99.9969 5.5 99.9999H22.1666C23.0871 99.9999 23.8332 99.2538 23.8332 98.3333C23.8332 97.4128 23.0869 96.6666 22.1666 96.6666H5.5C4.57969 96.666 3.83399 95.9201 3.8334 95V78.3334C3.83359 77.8913 3.6582 77.4673 3.34551 77.1548C3.03281 76.8419 2.60879 76.6663 2.1666 76.6665Z" fill="#40986E"/>
<path d="M98.8334 31.6666H81.9545C81.85 28.4479 81.1824 25.2721 79.9824 22.2834C76.5611 15.3354 66.4765 5 52.7153 5H48.285C34.5236 5 24.4389 15.3354 21.0177 22.2836C19.8177 25.2723 19.1504 28.4479 19.0461 31.6668H2.1666C1.24609 31.6668 0.5 32.4131 0.5 33.3334C0.5 34.2539 1.24629 35 2.1666 35H18.875C18.8389 36.2211 18.8289 37.427 18.8371 38.5844C18.5344 38.4859 18.2239 38.4135 17.909 38.3676C16.3128 38.1685 14.7153 38.7274 13.591 39.8779C12.2777 41.5549 11.8111 43.7437 12.3264 45.8105C12.7619 48.0492 13.3886 50.2463 14.1996 52.3779L14.4829 53.1934C14.6815 53.7662 14.849 54.3716 15.0184 54.9789C15.3819 56.6506 16.0369 58.2449 16.9535 59.6893C17.6819 60.7965 18.868 61.5191 20.1859 61.6586C20.2656 61.6635 20.3504 61.6668 20.4382 61.6668C20.5079 61.6668 20.5903 61.651 20.6639 61.6466C20.7744 63.1699 20.8466 64.5368 20.8466 65.534C20.8466 71.2337 26.2096 78.2032 29.3803 81.4226C31.2135 83.1989 33.1392 84.8764 35.15 86.4486C37.0677 87.9457 38.9053 89.543 40.6545 91.2337C42.6274 93.4125 45.3555 94.759 48.2847 95H52.715C55.6444 94.759 58.3723 93.4125 60.3453 91.2337C62.0944 89.5444 63.9306 87.9476 65.8466 86.4501C67.8594 84.8774 69.7871 83.1984 71.6215 81.4209C74.7904 78.2031 80.1534 71.2337 80.1534 65.5337C80.1534 64.5367 80.2256 63.1699 80.3361 61.6465C80.4098 61.6507 80.4921 61.6666 80.5618 61.6666C80.6496 61.6666 80.7341 61.6632 80.8141 61.6584C82.1346 61.518 83.3226 60.7927 84.0514 59.6824C84.9656 58.2399 85.619 56.6476 85.9816 54.9788C86.151 54.3716 86.3185 53.7663 86.5172 53.1931L86.8004 52.3777C87.611 50.2479 88.2371 48.0524 88.6721 45.8152C89.1896 43.7455 88.7215 41.5527 87.4041 39.8744C86.2812 38.725 84.6854 38.1674 83.091 38.3671C82.7764 38.4131 82.4662 38.4858 82.1639 38.584C82.1719 37.427 82.1619 36.2211 82.1256 34.9996H98.8334C99.7539 34.9996 100.5 34.2534 100.5 33.333C100.5 32.4129 99.7539 31.6666 98.8334 31.6666ZM24.0091 23.7549C26.9453 17.793 36.1315 8.3334 48.2847 8.3334H52.715C64.8684 8.3334 74.0545 17.793 76.9909 23.7549C77.9756 26.281 78.5229 28.9566 78.609 31.6666H22.3902C22.4761 28.9566 23.0236 26.2809 24.0091 23.7549ZM69.2466 79.082C68.9256 79.408 68.5744 79.7375 68.218 80.068L61.5011 77.5527L64.6659 73.3334H70.5V77.7254C70.066 78.2219 69.6435 78.6792 69.2466 79.082ZM31.7549 79.0837C31.3576 78.6802 30.9344 78.2225 30.5 77.7254V73.3334H36.3341L39.4989 77.5527L32.782 80.068C32.426 79.7381 32.0754 79.409 31.7549 79.0837ZM34.4671 35L37.6252 41.3506L28.8334 40.2524V35H34.4671ZM64.6659 70L61.0935 65.2369L70.4998 57.0069V70H64.6659ZM58.0007 76.6666H52.1668V66.6666H58.0007L61.75 71.6666L58.0007 76.6666ZM42.9993 76.6666L39.25 71.6666L42.9993 66.6666H48.8332V76.6666H42.9993ZM36.3341 70H30.5V57.0069L39.9062 65.2369L36.3341 70ZM57.3441 52.1777L52.1666 54.2465V37.3726L58.7153 43.9576L57.3441 52.1777ZM48.8334 54.2465L43.656 52.1777L42.2847 43.9574L48.8334 37.3725V54.2465ZM41.7355 55L48.8334 57.8364V63.3334H42.7934L33.2694 55H41.7355ZM58.2066 63.3334H52.1666V57.8364L59.2645 55H67.7306L58.2066 63.3334ZM60.0424 40.5653L54.5078 35H62.8098L60.0424 40.5653ZM40.9576 40.5653L38.1904 35H46.4924L40.9576 40.5653ZM27.2691 43.4164L39.0604 44.8886L40.1914 51.6668H29.6129L23.5171 44.3531L27.2691 43.4164ZM48.8334 80V86.9024L44.9989 80H48.8334ZM52.1666 86.9024V80H56.0011L52.1666 86.9024ZM71.3871 51.6666H60.8086L61.9396 44.8885L73.7309 43.4163L77.4829 44.3529L71.3871 51.6666ZM72.1666 40.2524L63.3748 41.3506L66.5329 35H72.1666V40.2524ZM25.5 35V40.423L22.298 41.2233C22.2926 41.2142 22.2928 41.2038 22.2871 41.1947C22.2666 41.1621 22.2379 41.1381 22.217 41.106C22.1632 39.1826 22.1525 37.0875 22.2153 35.0002L25.5 35ZM19.6569 57.7393C18.9834 56.6074 18.5011 55.3722 18.2295 54.0836C18.0406 53.4097 17.8535 52.7393 17.6337 52.1028L17.3457 51.2775C16.5976 49.322 16.0177 47.3062 15.6122 45.2521C15.3221 44.2426 15.442 43.1594 15.9459 42.2379C16.359 41.8136 16.9466 41.6073 17.5344 41.6795C18.0553 41.7529 18.5404 41.9861 18.923 42.3471C19.0375 45.3371 19.2239 47.482 19.2482 47.7506C19.2576 47.8344 19.9185 53.2295 20.3875 58.3254C20.0806 58.2257 19.8209 58.0171 19.6569 57.7393ZM23.8162 59.2226C23.8164 59.1236 23.8076 59.0247 23.7899 58.9275C23.439 54.9225 22.9463 50.6184 22.7052 48.5869L27.1668 53.9385V73.2958C25.5053 71.0166 24.4747 68.339 24.1801 65.534C24.1801 63.9847 24.0275 61.6774 23.8162 59.2226ZM37.2514 83.8607C36.7185 83.4277 36.1828 82.991 35.6511 82.5527L41.4072 80.397L47.6128 91.567C45.8535 91.1511 44.2583 90.2203 43.0309 88.8931C41.1949 87.1145 39.2656 85.4345 37.2514 83.8607ZM57.9691 88.8931C56.7416 90.2207 55.1461 91.1521 53.3865 91.5685L59.5928 80.397L65.3486 82.5524C64.816 82.9914 64.2793 83.4287 63.7455 83.8621C61.7326 85.4361 59.8045 87.1154 57.9691 88.8931ZM73.8334 73.2958V53.9383L78.2949 48.5868C78.0503 50.6517 77.5596 54.94 77.2104 58.927C77.1926 59.0246 77.1836 59.1236 77.184 59.2229C76.9725 61.6784 76.8201 63.9851 76.8201 65.534C76.5252 68.3389 75.4949 71.0164 73.8334 73.2958ZM83.4654 41.6796C84.051 41.6082 84.6364 41.8135 85.049 42.2347C85.5577 43.1576 85.6789 44.2449 85.386 45.2572C84.981 47.3097 84.4017 49.3239 83.6541 51.2778L83.366 52.1029C83.1462 52.7393 82.9591 53.41 82.7704 54.0837C82.4993 55.3699 82.0185 56.6025 81.3479 57.7327C81.1833 58.0135 80.9216 58.2243 80.6122 58.3254C81.0819 53.2243 81.7444 47.8149 81.758 47.6953C81.7801 47.4455 81.9645 45.3197 82.0779 42.3461C82.4605 41.9859 82.9453 41.7529 83.4654 41.6796ZM78.7841 41.1046C78.7629 41.1373 78.7337 41.1617 78.7129 41.1947C78.7073 41.2038 78.7074 41.2142 78.702 41.2233L75.5 40.423V35H78.7844C78.8476 37.089 78.8375 39.1841 78.7841 41.1046Z" fill="#40986E"/>
</g>
</g>
<defs>
<clipPath id="clip0_829_5332">
<rect width="100" height="100" fill="white" transform="translate(0.5)"/>
</clipPath>
</defs>
</svg>
