<svg width="171" height="26" viewBox="0 0 171 26" fill="none" xmlns="http://www.w3.org/2000/svg">
<g clip-path="url(#clip0_126_847)">
<path d="M10.5992 9.14857C10.5992 9.14857 9.19035 9.00515 9.19035 10.2898V15.9959H18.4943V17.7083C18.4943 17.7083 18.5221 18.5639 17.6485 18.5639H9.19035V25.9825H19.3401C19.3401 25.9825 25.4855 25.0119 25.5423 18.5639V9.14857H10.5992ZM25.2595 0.0175781H6.93445C0.308131 1.61504 0.167969 7.17895 0.167969 7.17895V25.9825H7.2172V8.86296C7.2172 7.40769 8.62607 7.15175 8.62607 7.15175H25.2607L25.2595 0.0175781ZM49.4521 20.6016L48.3586 21.3286C47.4548 21.9011 46.5933 22.3425 45.7946 22.6948C44.6383 23.1795 43.6076 23.4219 42.6832 23.4219C39.509 23.4219 36.881 22.4302 34.7568 20.4248C32.6326 18.4193 31.5838 15.9081 31.5838 12.8677C31.5838 9.93741 32.5299 7.40274 34.4426 5.24271C36.3554 3.08267 38.6681 2.02553 41.4012 2.02553C42.537 2.02553 43.755 2.22336 45.0165 2.64374C46.6561 3.1717 47.9804 3.96548 49.0316 5.00037L47.2023 7.07138C46.4253 6.30109 45.4164 5.72739 44.2383 5.37501C43.3563 5.11041 42.3896 4.97935 41.3167 4.97935C39.4039 4.97935 37.7848 5.77066 36.5028 7.33597C35.2208 8.92231 34.5695 10.7955 34.5695 12.9988C34.5695 15.1811 35.3041 16.9652 36.7759 18.3983C38.2476 19.8313 40.118 20.5571 42.3884 20.5571C43.3345 20.5571 44.3024 20.248 45.2895 19.6545L46.551 18.6839V14.1672H40.4128L41.2949 11.3469H49.4521V20.6016ZM67.9935 15.0921C67.9935 17.2731 67.2371 19.1686 65.7231 20.7549C64.2091 22.3412 62.3387 23.1573 60.1106 23.1573C58.0504 23.1573 56.2428 22.3635 54.6865 20.7994C53.1302 19.2353 52.3738 17.3399 52.3738 15.1143C52.3738 12.911 53.1109 11.0156 54.5814 9.38473C55.2577 8.60588 56.0907 7.98602 57.0232 7.56771C57.9557 7.14939 58.9657 6.94254 59.9837 6.96134C62.3387 6.96134 64.2514 7.73287 65.7437 9.29694C67.2371 10.8177 67.9935 12.7565 67.9935 15.0921ZM65.1129 15.1366C65.1129 13.6603 64.6296 12.4041 63.663 11.3902C62.6963 10.3541 61.4977 9.84715 60.0683 9.84715C58.7234 9.84715 57.5876 10.3763 56.6415 11.4347C55.6954 12.4931 55.2326 13.7036 55.2326 15.0698C55.2326 16.5028 55.716 17.7145 56.6621 18.7284C57.1143 19.2273 57.6647 19.6227 58.277 19.8884C58.8892 20.1542 59.5495 20.2843 60.2145 20.2702C61.54 20.2702 62.6746 19.7633 63.6424 18.7494C64.1151 18.2814 64.4894 17.7195 64.7424 17.0983C64.9955 16.4771 65.1208 15.8096 65.1129 15.1366ZM86.2823 15.0921C86.2823 17.2731 85.526 19.1686 84.012 20.7549C82.498 22.3412 80.6275 23.1573 78.3994 23.1573C76.3392 23.1573 74.5316 22.3635 72.9753 20.7994C72.2261 20.0673 71.6337 19.184 71.2356 18.2054C70.8375 17.2267 70.6424 16.1742 70.6627 15.1143C70.6627 12.911 71.3997 11.0156 72.8702 9.38473C73.5465 8.60588 74.3795 7.98602 75.312 7.56771C76.2446 7.14939 77.2545 6.94254 78.2725 6.96134C80.6275 6.96134 82.5402 7.73287 84.0325 9.29694C85.526 10.8177 86.2823 12.7565 86.2823 15.0921ZM83.4018 15.1366C83.4018 13.6603 82.9184 12.4041 81.9518 11.3902C80.9852 10.3541 79.7865 9.84715 78.3571 9.84715C77.0123 9.84715 75.8765 10.3763 74.9304 11.4347C73.9843 12.4931 73.5215 13.7036 73.5215 15.0698C73.5215 16.5028 74.0048 17.7145 74.9521 18.7284C75.8994 19.7423 77.0751 20.2702 78.5045 20.2702C79.8288 20.2702 80.9634 19.7633 81.9313 18.7494C82.4039 18.2814 82.7782 17.7195 83.0313 17.0983C83.2843 16.4771 83.4096 15.8096 83.4018 15.1366ZM103.206 22.7159L100.557 23.135V20.5126L99.9893 21.1728C99.489 21.6523 98.9223 22.0535 98.3074 22.3635C97.4049 22.7898 96.4219 23.008 95.428 23.0027C94.4396 23.0197 93.4592 22.82 92.5526 22.4169C91.6459 22.0138 90.8342 21.4168 90.1719 20.6659C88.7425 19.1006 88.0283 17.2509 88.0283 15.0921C88.0283 12.8665 88.7425 10.95 90.1513 9.36247C91.5602 7.77491 93.2832 6.98236 95.3434 6.98236C96.5215 6.98236 97.551 7.18018 98.4125 7.57708C99.0018 7.84875 99.5365 8.2303 99.9893 8.70222L100.432 9.31796V2.44344L103.247 2.0243L103.206 22.7159ZM100.725 15.2899C100.725 13.7481 100.22 12.4474 99.1906 11.3902C98.1612 10.3096 97.0036 9.78162 95.6805 9.78162C94.2088 9.78162 93.0319 10.2886 92.1281 11.3024C91.2859 12.2705 90.8449 13.4612 90.8449 14.8497C90.8449 16.4138 91.2859 17.7133 92.1692 18.7272C93.0525 19.741 94.1665 20.248 95.5331 20.248C96.8779 20.248 98.056 19.7855 99.1073 18.8384C100.179 17.8678 100.725 16.6784 100.725 15.2899ZM118.068 5.30947H110.185V10.7955H116.301V13.6158H110.185V22.6948L107.116 23.1573V2.4657H117.458L118.068 5.30947ZM124.396 3.69965L122.504 6.1453L120.696 3.69965L122.609 1.27626L124.396 3.69965ZM123.828 22.7159L121.011 23.1128V7.7984L123.828 7.35823V22.7159ZM136.546 7.20368L135.222 10.3318C135.048 10.3044 134.873 10.29 134.697 10.2886C134.423 10.2886 134.15 10.3108 133.876 10.3541C133.602 10.3974 133.308 10.5086 132.994 10.6632C132.406 10.9278 131.901 11.5003 131.46 12.3596C130.971 13.3348 130.719 14.4155 130.722 15.5112V22.6948L127.907 23.1573V7.7984L130.513 7.31372V10.5086L131.543 8.83452C132.026 8.26082 132.594 7.84291 133.225 7.59933C133.561 7.46827 134.171 7.35699 135.095 7.26921L136.546 7.20368ZM157.525 22.7159L154.708 23.135V12.6242C154.708 11.6536 154.498 10.9488 154.078 10.5086C153.657 10.0685 153.026 9.84715 152.206 9.84715C151.219 9.84715 150.461 10.2663 149.957 11.1034C149.62 11.6758 149.432 12.2928 149.432 12.9098V22.6936L146.615 23.2228V12.6897C146.615 11.7648 146.405 11.0588 146.005 10.5754C145.585 10.0895 145.038 9.84715 144.323 9.84715H144.05C143.062 9.84715 142.346 10.2663 141.905 11.1256C141.569 11.7648 141.401 12.5796 141.401 13.5713V22.6936L138.48 23.2228V7.7984L141.107 7.33597V9.29694C141.401 8.83328 141.695 8.45865 141.969 8.19529C142.672 7.49502 143.616 7.10668 144.596 7.11465C145.71 7.11465 146.529 7.29146 147.097 7.6661C147.581 7.97521 148.043 8.59095 148.506 9.47252C149.473 7.90844 150.839 7.11465 152.648 7.11465C154.371 7.11465 155.655 7.6661 156.494 8.79001C157.189 9.71486 157.525 11.0811 157.525 12.8665V22.7159ZM170.393 18.0669C170.393 19.4764 169.91 20.6448 168.943 21.5487C167.977 22.4735 166.756 22.9149 165.285 22.9149C164.231 22.9293 163.193 22.6552 162.278 22.1211C161.375 21.5932 160.703 20.9972 160.261 20.2925L162.237 18.486C162.384 18.7061 162.51 18.8817 162.636 19.014C163.373 19.7855 164.255 20.1824 165.285 20.1824C166 20.1824 166.568 19.9846 166.967 19.61C167.387 19.2353 167.577 18.7061 167.577 18.0224C167.577 17.2521 167.094 16.7229 166.127 16.4361L163.036 15.4444C162.153 14.982 161.522 14.4973 161.122 13.9459C160.681 13.3067 160.45 12.4696 160.45 11.3902C160.439 10.7661 160.561 10.147 160.808 9.5762C161.055 9.00538 161.421 8.49656 161.88 8.08525C162.826 7.20368 163.96 6.78453 165.263 6.78453C166.253 6.78453 167.177 7.00461 168.018 7.46827C168.859 7.93193 169.468 8.41537 169.825 8.98907L168.144 10.861C167.891 10.6023 167.617 10.3665 167.324 10.1563C166.651 9.67158 166 9.42924 165.391 9.42924C164.801 9.42924 164.318 9.56154 163.94 9.8249C163.498 10.1563 163.267 10.6409 163.267 11.2802C163.267 11.8971 163.477 12.3596 163.919 12.6464C164.298 12.8888 165.096 13.1534 166.358 13.439C167.618 13.7481 168.586 14.2773 169.279 15.0265C170.057 15.8191 170.393 16.8107 170.393 18.0669Z" fill="white"/>
</g>
<defs>
<clipPath id="clip0_126_847">
<rect width="170.526" height="25.9649" fill="white" transform="translate(0.0174561 0.0175781)"/>
</clipPath>
</defs>
</svg>
