<svg preserveAspectRatio="xMidYMid meet" data-bbox="81.275 81.091 2999.823 844.41" viewBox="0 0 3162.173 1006.588" height="1006.588" width="3162.173" xmlns="http://www.w3.org/2000/svg" data-type="ugc" role="presentation" aria-hidden="true" aria-label="">
    <g transform="translate(81.086 81.086)scale(8.10865)">
        <defs>
            <linearGradient id="d7badecb-454d-4533-b6ce-5b9dcb87e6df_comp-m3bf7ndf1">
                <stop offset="0" stop-color="#00ff8f"></stop>
                <stop offset="1" stop-color="#00a1ff"></stop>
            </linearGradient>
            <linearGradient id="d66f8c92-1e31-493e-ad93-82e39f7c086c_comp-m3bf7ndf1">
                <stop offset="0" stop-color="#00ff8f"></stop>
                <stop offset="1" stop-color="#00a1ff"></stop>
            </linearGradient>
            <linearGradient id="83819486-4ed4-4b86-95e8-58a71d34df70_comp-m3bf7ndf1">
                <stop offset="0" stop-color="#00ff8f"></stop>
                <stop offset="1" stop-color="#00a1ff"></stop>
            </linearGradient>
        </defs>
        <g fill-rule="evenodd" xmlns="http://www.w3.org/2000/svg">
            <path d="M20 60c0-8.284 6.708-15 15.005-15h29.99C73.282 45 80 51.714 80 60c0 8.284-6.708 15-15.005 15h-29.99C26.718 75 20 68.286 20 60m15 6a6 6 0 1 1 0-12 6 6 0 0 1 0 12m30 0a6 6 0 1 1 0-12 6 6 0 0 1 0 12" fill="url(#d7badecb-454d-4533-b6ce-5b9dcb87e6df_comp-m3bf7ndf1)" transform="translate(-10.285 -11.57)scale(1.28564)"></path>
            <path d="M65 62a2 2 0 1 0 0-4 2 2 0 0 0 0 4m-30 0a2 2 0 1 0 0-4 2 2 0 0 0 0 4" fill="url(#d7badecb-454d-4533-b6ce-5b9dcb87e6df_comp-m3bf7ndf1)" transform="translate(-10.285 -11.57)scale(1.28564)"></path>
            <path d="M81.137 30.34C90 39.015 90 50 90 50v20s0 20-40 20-40-20-40-20V50s0-10.996 8.876-19.673L8.269 12.002a2 2 0 0 1 3.461-2.004L21.97 27.69C27.896 23.29 36.755 20 50 20c13.255 0 22.118 3.294 28.044 7.7L88.292 9.998a2 2 0 0 1 3.462 2.004zM14 50v20c0-.028.007.077.038.294.065.452.186.98.382 1.566.59 1.77 1.673 3.577 3.408 5.312C23.245 82.588 33.48 86 50 86s26.755-3.412 32.172-8.828c1.735-1.735 2.818-3.541 3.408-5.312a9 9 0 0 0 .382-1.566c.031-.217.038-.322.038-.294V50c0-.112-.014-.425-.06-.91a24 24 0 0 0-.47-2.91 26.5 26.5 0 0 0-3.798-8.961C76.188 28.993 66.202 24 50 24s-26.188 4.993-31.672 13.219a26.5 26.5 0 0 0-3.798 8.961 24 24 0 0 0-.47 2.91c-.046.485-.06.91-.06.91" fill="url(#d7badecb-454d-4533-b6ce-5b9dcb87e6df_comp-m3bf7ndf1)" transform="translate(-10.285 -11.57)scale(1.28564)"></path>
        </g>
        <path d="M7 40H4V12h12.4c4.2 0 7 2.8 7 6.6v3.8c0 5.6-5.4 6.4-5.4 6.4l6.2 10V40h-3L15 29H7zm9.4-25.4H7v11.8h9.4c2.2 0 4-1.8 4-4v-3.8c0-2.2-1.8-4-4-4M44.6 40H35c-3.8 0-6-2.4-6-5.6v-9.6c0-3.2 2.4-5.6 6-5.6h4.4c3.6 0 6 2.4 6 5.6V31H31.8v3.4c0 1.8 1.4 3.2 3.2 3.2h9.6zM31.8 24.8v3.8h10.8v-3.8c0-1.8-1.4-3.2-3.2-3.2H35c-1.8 0-3.2 1.4-3.2 3.2m19.6 9.6V12h2.8v22.4c0 1.8 1.4 3.2 3.2 3.2h.6V40h-.6c-3.6 0-6-2.4-6-5.6m13-9.6v10c0 1.8 1.4 3.2 3.2 3.2h5c1.8 0 3.2-1.4 3.2-3.2v-10c0-1.8-1.4-3.2-3.2-3.2h-5c-1.8 0-3.2 1.4-3.2 3.2m-2.8 10v-10c0-3.2 2.4-5.6 6-5.6h5c3.6 0 6 2.4 6 5.6v10c0 3.2-2.4 5.6-6 5.6h-5c-3.8 0-6-2.4-6-5.6m35.4-2L94.6 40h-3v-1.2l9.8-26.8h3.4l9.8 26.8V40h-3l-2.4-7.2zm11.2-2.6-5-14.6h-.2l-5 14.6zm14 9.8h-3V12h3z" fill="url(#d66f8c92-1e31-493e-ad93-82e39f7c086c_comp-m3bf7ndf1)" transform="translate(119.811 -11.566)scale(2.04717)"></path>
        <path d="M4.38 7.26v4.96q.62-.36 1.38-.48.56-.1 1.44-.1h2.84q1.18 0 1.84-.54.7-.58.7-1.74 0-1.1-.74-1.64-.64-.46-1.8-.46zm6.38 10.38-1.82-3.82H7.2q-.82 0-1.44.1-.76.14-1.38.48V20H2.2V5.08h7.84q1.38 0 2.44.52t1.64 1.48q.62 1.02.62 2.4 0 1.68-.9 2.76t-2.54 1.5l1.16 2.38q.5.74.78 1.04.34.38.65.51t.81.13h.22l.48-.02V20q-1.16 0-1.72-.08-.94-.16-1.6-.62-.78-.56-1.32-1.66m11.899-3.62v3.8h9.2V20h-11.38V5.08h10.5v2.2h-8.32v4.52q.62-.36 1.38-.48.56-.1 1.44-.1h3.26v2.22h-3.26q-.82 0-1.44.1-.76.14-1.38.48M47.298 20h-10.46V5.08h2.18v12.74h8.28zm16.979-7.56q0-1.6-.82-2.9-.78-1.26-2.13-1.98t-2.93-.72q-1.64 0-2.99.74t-2.11 2.02q-.78 1.34-.78 2.98 0 1.56.84 2.88.8 1.24 2.15 1.97t2.92.73 2.92-.76 2.13-2.04q.8-1.34.8-2.92m2.16.12q0 2.16-1.12 3.98-1.08 1.74-2.93 2.77t-3.99 1.03q-2.22 0-4.08-1.08-1.82-1.04-2.86-2.86-1.08-1.86-1.08-4.08 0-2.14 1.14-3.94 1.08-1.72 2.93-2.73t3.97-1.01q2.18 0 4.04 1.06 1.82 1.04 2.88 2.82 1.1 1.86 1.1 4.04M84.096 7l-1.4 1.64q-.82-.84-1.96-1.32t-2.4-.48q-1.64 0-2.99.74t-2.11 2.02q-.78 1.34-.78 2.98 0 1.56.84 2.88.8 1.24 2.15 1.97t2.91.73q1.44 0 2.68-.62t2.06-1.72l1.34 1.82q-1.14 1.28-2.73 1.99t-3.37.71q-2.22 0-4.08-1.08-1.82-1.04-2.86-2.86-1.08-1.86-1.08-4.08 0-2.14 1.14-3.94 1.08-1.72 2.93-2.73t3.97-1.01q1.66 0 3.16.64 1.46.6 2.58 1.72m9.679-.34-.82-1.84h2.4l7.18 15.18h-2.44l-.98-2.18h-4.54q-1.28 0-2.3.24-.9.22-1.5.58-.54.32-.72.66l-.38.7h-2.36zm1.6 8.96h2.76l-3.26-6.3-3.3 7.14q.44-.38 1.34-.6 1.02-.24 2.46-.24m22.539-8.34h-5.26V20h-2.12V7.28h-5.32v-2.2h12.7zM124.333 20h-2.14V5.08h2.14zm18.779-7.56q0-1.6-.82-2.9-.78-1.26-2.13-1.98t-2.93-.72q-1.64 0-2.99.74t-2.11 2.02q-.78 1.34-.78 2.98 0 1.56.84 2.88.8 1.24 2.15 1.97t2.92.73 2.92-.76 2.13-2.04q.8-1.34.8-2.92m2.16.12q0 2.16-1.12 3.98-1.08 1.74-2.93 2.77t-3.99 1.03q-2.22 0-4.08-1.08-1.82-1.04-2.86-2.86-1.08-1.86-1.08-4.08 0-2.14 1.14-3.94 1.08-1.72 2.93-2.73t3.97-1.01q2.18 0 4.04 1.06 1.82 1.04 2.88 2.82 1.1 1.86 1.1 4.04m5.319-5.38-1.74-2.1h2.82l9.58 11.4V5.08h2.2V20h-2.16l-8.56-10.26V20h-2.14zm30.339 8.28q0 1.46-.88 2.6-.86 1.08-2.37 1.68t-3.41.6q-1.74 0-3.38-.81t-2.76-2.25l1.56-1.46q1.94 2.34 4.58 2.34 1.16 0 2.12-.28 1.06-.32 1.64-.9.66-.64.66-1.52 0-1.06-.66-1.6-.56-.46-1.66-.6-.64-.08-2.1-.08-2.68 0-4.09-.98t-1.41-2.88q0-1.2.71-2.28t1.95-1.72q1.28-.68 2.84-.68 1.76 0 3.18.54 1.52.58 2.82 1.82l-1.36 1.6q-1.22-.98-2.22-1.37t-2.42-.39q-.82 0-1.53.34t-1.13.91-.42 1.21q0 1.72 3.18 1.72 2.54 0 4.02.52 1.4.5 2 1.52.54.9.54 2.4m16.238-8.8-.82-1.84h2.4l7.18 15.18h-2.44l-.98-2.18h-4.54q-1.28 0-2.3.24-.9.22-1.5.58-.54.32-.72.66l-.38.7h-2.36zm1.6 8.96h2.76l-3.26-6.3-3.3 7.14q.44-.38 1.34-.6 1.02-.24 2.46-.24M212.347 20h-2.14V5.08h2.14zm25.558-13-1.4 1.64q-.82-.84-1.96-1.32t-2.4-.48q-1.64 0-2.99.74t-2.11 2.02q-.78 1.34-.78 2.98 0 1.56.84 2.88.8 1.24 2.15 1.97t2.91.73q1.44 0 2.68-.62t2.06-1.72l1.34 1.82q-1.14 1.28-2.73 1.99t-3.37.71q-2.22 0-4.08-1.08-1.82-1.04-2.86-2.86-1.08-1.86-1.08-4.08 0-2.14 1.14-3.94 1.08-1.72 2.93-2.73t3.97-1.01q1.66 0 3.16.64 1.46.6 2.58 1.72m17.919 5.44q0-1.6-.82-2.9-.78-1.26-2.13-1.98t-2.93-.72q-1.64 0-2.99.74t-2.11 2.02q-.78 1.34-.78 2.98 0 1.56.84 2.88.8 1.24 2.15 1.97t2.92.73 2.92-.76 2.13-2.04q.8-1.34.8-2.92m2.16.12q0 2.16-1.12 3.98-1.08 1.74-2.93 2.77t-3.99 1.03q-2.22 0-4.08-1.08-1.82-1.04-2.86-2.86-1.08-1.86-1.08-4.08 0-2.14 1.14-3.94 1.08-1.72 2.93-2.73t3.97-1.01q2.18 0 4.04 1.06 1.82 1.04 2.88 2.82 1.1 1.86 1.1 4.04m5.319-5.38-1.74-2.1h2.82l9.58 11.4V5.08h2.2V20h-2.16l-8.56-10.26V20h-2.14zm30.339 8.28q0 1.46-.88 2.6-.86 1.08-2.37 1.68t-3.41.6q-1.74 0-3.38-.81t-2.76-2.25l1.56-1.46q1.94 2.34 4.58 2.34 1.16 0 2.12-.28 1.06-.32 1.64-.9.66-.64.66-1.52 0-1.06-.66-1.6-.56-.46-1.66-.6-.64-.08-2.1-.08-2.68 0-4.09-.98t-1.41-2.88q0-1.2.71-2.28t1.95-1.72q1.28-.68 2.84-.68 1.76 0 3.18.54 1.52.58 2.82 1.82l-1.36 1.6q-1.22-.98-2.22-1.37t-2.42-.39q-.82 0-1.53.34t-1.13.91-.42 1.21q0 1.72 3.18 1.72 2.54 0 4.02.52 1.4.5 2 1.52.54.9.54 2.4m11.179 4.88q-2.1 0-3.61-.73t-2.3-2.11-.79-3.3V5.08h2.16v9.12q0 1.92 1.18 2.94t3.36 1.02 3.36-1.02 1.18-2.94V5.08h2.16v9.12q0 1.92-.79 3.3t-2.3 2.11-3.61.73M327.66 20H317.2V5.08h2.18v12.74h8.28zm15.179-12.72h-5.26V20h-2.12V7.28h-5.32v-2.2h12.7zm8.939-.62-.82-1.84h2.4l7.18 15.18h-2.44l-.98-2.18h-4.54q-1.28 0-2.3.24-.9.22-1.5.58-.54.32-.72.66l-.38.7h-2.36zm1.6 8.96h2.76l-3.26-6.3-3.3 7.14q.44-.38 1.34-.6 1.02-.24 2.46-.24m11.879-8.44-1.74-2.1h2.82l9.58 11.4V5.08h2.2V20h-2.16l-8.56-10.26V20h-2.14zm29.839.1h-5.26V20h-2.12V7.28h-5.32v-2.2h12.7z" fill="url(#83819486-4ed4-4b86-95e8-58a71d34df70_comp-m3bf7ndf1)" transform="translate(126.645 78.142)scale(.61588)"></path>
    </g>
</svg>