<svg width="1920" height="837" viewBox="0 0 1920 837" fill="none" xmlns="http://www.w3.org/2000/svg">
<path d="M2365.92 0V438.012L2221.24 293.33V0H2218.58L2219.03 0.451683V291.115L2074.35 146.434V0H2072.15V146.434L1927.46 291.115V0H1043.92V146.434L899.237 291.115V0H896.582L752.351 144.23V0H750.147V146.434L605.464 291.115V0H-277V441.768H161.015L16.3322 586.45H-277V589.105L-276.548 588.654H14.1179L-130.565 733.335H-277V735.539H-130.565L14.1179 880.221H-277V882.424H14.1179L-130.565 1027.11H-277V1029.31H-132.769L-277 1173.55V1176.21H14.1179L-130.565 1320.89H-277V2643.99H605.442V2352.87L750.125 2497.56V2643.99H752.329V2497.56L897.012 2352.87V2643.54L896.56 2643.99H899.215V2350.67L1043.9 2205.99V2644H1927.44V2497.57L1927.89 2497.11L1927.44 2496.66V2352.88L2072.13 2497.57V2644H2074.33V2499.77L2218.56 2644H2221.22V2352.88L2365.9 2497.57V2644H2367V1320.9H1928.98L2073.67 1176.22H2366.99V1173.56L2366.54 1174.01H2075.87L2220.55 1029.33H2366.99V1027.13H2220.55L2075.87 882.446H2366.99V880.243H2075.87L2220.55 735.561H2366.99V733.357H2222.76L2366.99 589.127V586.472H2075.87L2220.55 441.79H2366.99V0H2365.89H2365.92ZM2073.24 148.45L2219.02 294.233V439.565H1927.44V294.233L2073.23 148.45H2073.24ZM2221.23 296.436L2364.36 439.565H2221.23V296.436ZM1339.25 2496.01L1194.56 2351.33H1485.23L1629.91 2496.01H1339.25ZM753.893 2202.23L898.576 2057.55H1191.45L1336.13 2202.23H753.893ZM456.992 2496.01H166.325L311.008 2351.33H601.675L456.992 2496.01ZM-129.012 1616.23L15.6712 1471.55V1762.21L-129.012 1906.9V1616.23ZM161.004 1323.1L17.8746 1466.23V1323.1H161.004ZM164.772 1027.77V734.9L309.455 590.218V1174.66L164.772 1319.34V1028.68L165.224 1028.23L164.772 1027.78V1027.77ZM601.686 292.68H311.019L166.336 147.998H457.003L601.686 292.68ZM1192.36 147.998H1483.03L1338.34 292.68H1047.68L1192.36 147.998ZM1925.9 1470L2070.58 1614.68H1779.92L1635.23 1470H1925.9ZM1777.91 1615.78L1632.13 1761.57H1486.79V1469.99H1632.13L1777.91 1615.77V1615.78ZM1925.26 2350.68V2494.46L1635.24 2204.45H1925.26V2349.78L1924.81 2350.23L1925.26 2350.68ZM1339.26 2202.23L1193.47 2056.45L1339.26 1910.66H1484.59V2202.24H1339.26V2202.23ZM1191.46 2055.35H900.791L1045.47 1910.66H1336.14L1191.46 2055.35ZM17.2466 2349.13L-127.436 2204.45H454.799L310.116 2349.13H17.2466ZM162.58 1912.22V2202.23H-127.436L162.58 1912.22ZM1046.11 296.436L1189.24 439.565H1046.11V296.436ZM1632.12 294.883L1776.8 439.565H1194.56L1339.25 294.883H1632.12ZM1925.25 734.9V1027.77L1780.57 1172.45V588.004L1925.25 443.322V733.985L1924.8 734.437L1925.25 734.889V734.9ZM1341.45 1908.45L1484.58 1765.32V1908.45H1341.45ZM753.893 1908.45L898.576 1763.77H1046.11H1483.03L1338.34 1908.45H753.893ZM458.556 2202.23V2059.1L601.686 2202.23H458.556ZM603.239 2204.44V2347.56L460.109 2204.44H603.239ZM456.353 2202.23H164.772V2056.9L310.557 1911.12L456.342 2056.9V2202.23H456.353ZM458.556 734.9L603.239 590.218V880.232V1172.45L458.556 1027.77V734.9ZM751.238 442.22L751.69 441.768H1191.45L1336.13 586.45H751.679L606.996 441.768H750.775L751.227 442.22H751.238ZM1633.68 1319.33V1028.67L1778.36 883.988V1174.65L1633.68 1319.33ZM309.466 1909.09L164.783 2053.77V1471.53L309.466 1616.21V1909.08V1909.09ZM307.913 1323.09L164.783 1466.22V1323.09H307.913ZM165.246 1468.87L309.477 1324.64V1613.1L165.246 1468.87ZM605.464 1320.89V1030.87L750.147 1175.56V1468.42L605.464 1613.1V1320.89ZM748.594 586.439H605.464V443.311L748.594 586.439ZM605.464 588.643H750.797L896.582 734.426L750.797 880.21H605.464V588.632V588.643ZM1631.49 1027.76L1486.81 1172.44V734.889L1487.26 734.437L1486.81 733.985V590.207L1631.49 734.889V1027.76ZM1631.49 1319.33L1487.26 1175.1L1631.49 1030.87V1319.33ZM1484.6 1760L1339.92 1615.32V1030.87L1484.15 1175.1L1484.6 1175.56V1320.89V1759.99V1760ZM898.598 735.539H1191.47L1336.15 880.221H1192.38L1191.93 879.769L1191.48 880.221H1043.94H753.926L898.609 735.539H898.598ZM1337.72 1319.33L1193.03 1174.65V883.988L1337.72 1028.67V1319.33ZM899.248 1028.67L1043.93 883.988V1027.76L1043.48 1028.21L1043.93 1028.66V1321.98V1468.41L899.248 1613.09V1028.65V1028.67ZM1042.38 882.424L899.248 1025.55V882.424H1042.38ZM1043.93 1471.54V1761.55H753.915L1043.93 1471.54ZM1046.13 882.424H1189.26L1046.13 1025.55V882.424ZM1190.82 883.977V1172.44L1046.59 1028.21L1190.82 883.977ZM1194.59 882.424H1338.35L1338.81 882.876L1339.26 882.424H1484.59V1172.44L1194.57 882.424H1194.59ZM1341.47 880.221L1484.6 737.092V880.221H1341.47ZM1338.81 879.769L1194.57 735.539H1483.04L1338.81 879.769ZM897.034 882.424V1027.76L751.249 1173.54L605.464 1027.76V882.424H897.045H897.034ZM752.351 1175.56L897.034 1030.87V1321.54L752.351 1466.22V1175.56ZM897.034 1324.64V1615.31L752.351 1759.99V1469.33L897.034 1324.64ZM750.147 1759.99L605.916 1615.76L750.147 1471.53V1759.99ZM748.594 1761.54H605.464V1618.41L748.594 1761.54ZM1046.13 1321.98V1030.86L1190.82 1175.54V1468.41L1046.13 1613.09V1321.98ZM1193.02 1177.75L1337.7 1322.43V1613.09L1193.02 1468.41V1177.75ZM1484.6 441.746V731.76L1194.59 441.746H1484.6ZM1483.05 733.324H1192.38L1047.7 588.643H1338.37L1483.05 733.324ZM1044.58 588.643L1189.26 733.324H898.598L753.915 588.643H1044.58ZM1046.13 1616.22L1191.92 1470.44L1337.7 1616.22V1761.55H1046.12V1616.22H1046.13ZM1339.92 1618.43L1483.05 1761.55H1339.92V1618.43ZM1486.81 1177.76L1629.93 1320.89H1486.81V1177.76ZM1778.39 880.86L1633.7 1025.54V734.878L1778.39 590.196V880.86ZM1632.6 732.873L1486.82 587.089V441.757H1778.4V587.089L1632.61 732.873H1632.6ZM603.272 584.886L460.142 441.757H603.272V584.886ZM458.589 443.322L602.82 587.552L458.589 731.782V443.322ZM311.703 1909.09V1618.43L456.386 1763.11V2053.77L311.703 1909.09ZM456.386 1760L311.703 1615.32V1324.66L456.386 1469.34V1760ZM313.256 1323.09H603.272V1613.1L313.256 1323.09ZM750.808 1763.76L751.26 1764.21L751.712 1763.76H895.481L605.464 2053.77V1763.76H750.797H750.808ZM1635.27 1320.89L1925.28 1030.87V1320.89H1635.27ZM1780.6 584.886V441.757H1923.73L1780.6 584.886ZM1191.94 439.102L1047.71 294.872H1336.17L1191.94 439.102ZM460.153 439.554L603.283 296.425V439.554H460.153ZM457.498 439.102L313.267 294.872H601.73L457.498 439.102ZM454.843 441.757L164.827 731.771V441.757H454.843ZM456.397 443.311V733.974L311.714 878.656V587.993L456.397 443.311ZM311.714 881.774L456.397 737.092V1027.76L311.714 1172.44V881.774ZM457.498 1029.76L603.283 1175.54V1320.88H311.703V1175.54L457.487 1029.76H457.498ZM309.51 1320.88H166.38L309.51 1177.75V1320.88ZM457.498 2204.86L601.73 2349.09H313.267L457.498 2204.86ZM458.6 2055.96V1471.53L602.831 1615.76L603.283 1616.21V1763.75V2055.96L602.831 2056.42L603.283 2056.87V2200.65L458.6 2055.96ZM607.051 2055.31L751.734 1910.63H1042.4L897.717 2055.31H607.051ZM895.514 2057.52L751.282 2201.75L607.051 2057.52H895.514ZM1486.84 2202.2V1912.18L1776.85 2202.2H1486.84ZM1488.39 1910.62H1779.06L1923.74 2055.3H1633.07L1488.39 1910.62ZM1488.39 1908.42L1632.62 1764.19L1776.85 1908.42H1488.39ZM1486.84 1906.86V1763.74H1629.97L1486.84 1906.86ZM1486.84 1467.75V1324.62L1629.97 1467.75H1486.84ZM1925.25 145.784H1782.12L1925.25 2.65502V145.784ZM1925.25 147.987V439.565H1779.92L1634.13 293.781L1779.92 147.998H1925.25V147.987ZM1632.12 292.669H1341.45L1486.13 147.987H1776.8L1632.12 292.669ZM605.442 439.554V296.425L748.572 439.554H605.442ZM163.219 147.987L307.902 292.669H17.2356L-127.447 147.987H163.219ZM17.2356 294.872H310.105L454.788 439.554H-127.447L17.2356 294.872ZM162.569 1324.66V1468.43L162.117 1468.89L162.569 1469.34V1909.09L17.8856 2053.77V1469.33L162.569 1324.64V1324.66ZM15.6823 1765.32V2055.99L-129.001 2200.67V1910L15.6823 1765.32ZM-131.204 2200.67L-275.447 2056.45L-131.215 1912.22V2200.68L-131.204 2200.67ZM15.2306 2350.22L-130.554 2496H-275.898V2204.42H-130.565L15.2195 2350.21L15.2306 2350.22ZM17.2466 2351.32H307.913L163.23 2496H-127.447L17.2356 2351.32H17.2466ZM605.453 2059.1L748.583 2202.23H605.453V2059.1ZM1046.12 2205.99L1189.25 2349.12H1046.12V2205.99ZM1047.68 2204.44H1484.59H1632.13L1776.81 2349.12H1192.37L1047.69 2204.44H1047.68ZM1488.35 2351.32H1779.01L1923.7 2496H1633.03L1488.35 2351.32ZM1923.7 2498.21L1779.47 2642.44L1635.23 2498.21H1923.7ZM2073.7 2202.22L2073.25 2201.77L2072.8 2202.22H1779.93L1635.24 2057.54H2219.7L2364.38 2202.22H2073.71H2073.7ZM1926.81 2055.34L1782.13 1910.65H2072.8L2217.48 2055.34H1926.81ZM2072.8 1908.45H1779.93L1635.24 1763.77H2217.48L2072.8 1908.45ZM1635.24 1761.57L1779.93 1616.88H2072.8L2217.48 1761.57H1635.23H1635.24ZM2075.92 1616.88H2364.38L2220.15 1761.11L2075.92 1616.88ZM2073.71 1614.68L1929.03 1470H2219.7L2364.38 1614.68H2073.71ZM1633.04 1467.79L1488.36 1323.11H1632.14L1632.59 1323.56L1633.04 1323.11H2072.8L2217.48 1467.79H1633.04ZM1779.02 145.795H1194.57L1339.25 1.10167H1923.7L1779.01 145.784L1779.02 145.795ZM1336.13 1.10167L1046.11 291.115V1.10167H1336.13ZM1043.91 293.319L1043.46 293.77L1043.91 294.222V439.554H753.893L1043.91 149.54V293.319ZM897.023 2.65502V293.319L752.34 438.001V147.348L897.023 2.65502ZM750.136 149.54V438.001L605.905 293.77L750.136 149.54ZM603.239 1.10167V291.115L313.223 1.10167H603.239ZM310.105 1.10167L454.788 145.784H-129.651L-274.345 1.10167H310.094H310.105ZM-132.769 145.784H-275.898V2.65502L-132.769 145.784ZM-275.898 147.987H-130.565L15.2195 293.77L-130.565 439.554H-275.898V147.987ZM162.569 443.322V586.45H19.4389L162.569 443.322ZM17.2356 588.654H162.569V880.232H17.2356L16.7839 879.78L-128.549 734.448L17.2356 588.665V588.654ZM162.569 882.435V1025.56L19.4389 882.435H162.569ZM16.7839 882.887L161.015 1027.12H-127.447L16.7839 882.887ZM-274.345 1174.01L-129.662 1029.33H161.004L16.3212 1174.01H-274.345ZM162.569 1030.88V1320.9H-127.447L162.569 1030.88ZM15.6823 1323.1V1468.43L-130.103 1614.22L-275.898 1468.43V1323.1H15.6823ZM-275.898 1471.55L-131.215 1616.23V1909.1L-275.898 2053.78V1471.54V1471.55ZM-132.769 2202.23H-275.898V2059.1L-132.769 2202.23ZM-275.898 2498.22H-132.769L-275.898 2641.35V2498.22ZM-129.651 2498.22H454.788L310.105 2642.9H-274.345L-129.662 2498.22H-129.651ZM313.223 2642.9L603.239 2352.88V2642.9H313.223ZM751.238 2495.55L605.905 2350.22L605.453 2349.77V2204.44H750.786L751.238 2204.89L751.69 2204.44H897.023V2349.77L751.238 2495.55ZM899.226 2204.44H1042.36L899.226 2347.56V2204.44ZM1046.11 2351.32H1191.45L1337.23 2497.1L1191.45 2642.89H1046.11V2351.31V2351.32ZM1194.56 2642.9L1339.25 2498.22H1632.12L1776.8 2642.9H1194.55H1194.56ZM1782.12 2642.9L1925.25 2499.77V2642.9H1782.12ZM1927.45 2204.44H2070.58L1927.45 2347.56V2204.44ZM1927.91 2350.22L2072.14 2205.99V2494.45L1927.91 2350.22ZM2219.02 2641.33L2074.34 2496.65V2205.99L2219.02 2350.67V2641.33ZM2365.91 2494.45L2075.89 2204.44H2365.91V2494.45ZM2365.91 2200.68L2222.78 2057.55H2365.91V2200.68ZM2220.58 2055.35L2074.79 1909.56L2220.58 1763.78H2365.91V2055.36H2220.58V2055.35ZM2365.91 1761.57H2222.78L2365.91 1618.44V1761.57ZM2075.89 1323.1H2365.91V1613.12L2075.89 1323.1ZM1927.44 1319.33V1176.21H2070.57L1927.44 1319.33ZM2072.78 1174H1927.44V882.424H2072.78L2073.23 882.876L2218.56 1028.21L2072.78 1173.99V1174ZM1927.44 880.221V737.092L2070.57 880.221H1927.44ZM2073.23 879.769L1929 735.539H2217.46L2073.23 879.769ZM2364.34 588.654L2219.66 733.335H1929L2073.68 588.654H2364.34ZM1927.43 731.782V441.768H2217.45L1927.43 731.782Z" fill="url(#paint0_radial_488_11944)" fill-opacity="0.2"/>
<defs>
<radialGradient id="paint0_radial_488_11944" cx="0" cy="0" r="1" gradientUnits="userSpaceOnUse" gradientTransform="translate(1005.86 1322) scale(1029.82 1029.81)">
<stop stop-color="#05A05A"/>
<stop offset="0.21" stop-color="#DCC177"/>
<stop offset="0.43" stop-color="#06CE71"/>
<stop offset="1" stop-color="#06CE71" stop-opacity="0.2"/>
</radialGradient>
</defs>
</svg>
