<?xml version="1.0" encoding="UTF-8"?>
<svg xmlns="http://www.w3.org/2000/svg" xmlns:xlink="http://www.w3.org/1999/xlink" width="100px" height="100px" viewBox="0 0 100 100" version="1.1">
<g id="surface1">
<path style=" stroke:none;fill-rule:evenodd;fill:rgb(4.313726%,4.313726%,3.921569%);fill-opacity:1;" d="M 63.90625 16.234375 C 67.167969 12.023438 69.640625 6.074219 68.746094 0 C 63.414062 0.371094 57.183594 3.78125 53.550781 8.226562 C 50.234375 12.253906 47.511719 18.246094 48.574219 24.058594 C 54.402344 24.242188 60.417969 20.75 63.90625 16.234375 Z M 92.707031 73.371094 C 90.375 78.566406 89.253906 80.890625 86.25 85.492188 C 82.058594 91.921875 76.148438 99.921875 68.820312 99.980469 C 62.316406 100.050781 60.636719 95.71875 51.808594 95.773438 C 42.976562 95.820312 41.136719 100.0625 34.617188 100 C 27.292969 99.933594 21.695312 92.714844 17.503906 86.289062 C 5.78125 68.332031 4.546875 47.25 11.777344 36.039062 C 16.921875 28.078125 25.03125 23.417969 32.652344 23.417969 C 40.410156 23.417969 45.289062 27.699219 51.714844 27.699219 C 57.945312 27.699219 61.738281 23.40625 70.707031 23.40625 C 77.5 23.40625 84.695312 27.128906 89.816406 33.550781 C 73.027344 42.804688 75.746094 66.917969 92.707031 73.371094 Z M 92.707031 73.371094 "/>
</g>
</svg>
