<?xml version="1.0" encoding="UTF-8"?>
<svg xmlns="http://www.w3.org/2000/svg" xmlns:xlink="http://www.w3.org/1999/xlink" width="100px" height="100px" viewBox="0 0 100 100" version="1.1">
<g id="surface1">
<path style=" stroke:none;fill-rule:evenodd;fill:rgb(91.764706%,26.274511%,20.784314%);fill-opacity:1;" d="M 12.074219 17.417969 C 35.316406 -9.632812 78.414062 -4.292969 94.527344 27.308594 C 83.183594 27.3125 65.425781 27.304688 55.804688 27.308594 C 48.828125 27.308594 44.324219 27.152344 39.449219 29.71875 C 33.710938 32.738281 29.386719 38.332031 27.875 44.90625 Z M 12.074219 17.417969 "/>
<path style=" stroke:none;fill-rule:evenodd;fill:rgb(25.882354%,52.156866%,95.686275%);fill-opacity:1;" d="M 33.367188 50 C 33.367188 59.167969 40.820312 66.625 49.984375 66.625 C 59.144531 66.625 66.601562 59.167969 66.601562 50 C 66.601562 40.832031 59.144531 33.371094 49.984375 33.371094 C 40.820312 33.371094 33.367188 40.832031 33.367188 50 Z M 33.367188 50 "/>
<path style=" stroke:none;fill-rule:evenodd;fill:rgb(20.392157%,65.882355%,32.549021%);fill-opacity:1;" d="M 56.433594 71.761719 C 47.105469 74.535156 36.191406 71.460938 30.210938 61.140625 C 25.648438 53.261719 13.589844 32.253906 8.109375 22.703125 C -11.085938 52.125 5.457031 92.21875 40.304688 99.058594 Z M 56.433594 71.761719 "/>
<path style=" stroke:none;fill-rule:evenodd;fill:rgb(98.431373%,73.725492%,1.960784%);fill-opacity:1;" d="M 65.417969 33.371094 C 73.1875 40.597656 74.878906 52.296875 69.617188 61.367188 C 65.652344 68.203125 53 89.558594 46.867188 99.902344 C 82.773438 102.113281 108.945312 66.925781 97.125 33.371094 Z M 65.417969 33.371094 "/>
</g>
</svg>
