<?xml version="1.0" encoding="UTF-8"?>
<svg xmlns="http://www.w3.org/2000/svg" xmlns:xlink="http://www.w3.org/1999/xlink" width="100px" height="100px" viewBox="0 0 100 100" version="1.1">
<g id="surface1">
<path style=" stroke:none;fill-rule:nonzero;fill:rgb(34.509805%,39.607844%,94.901961%);fill-opacity:1;" d="M 84.710938 17.617188 C 78.238281 14.585938 71.316406 12.386719 64.078125 11.132812 C 63.191406 12.738281 62.152344 14.902344 61.4375 16.621094 C 53.742188 15.460938 46.121094 15.460938 38.570312 16.621094 C 37.855469 14.902344 36.792969 12.738281 35.898438 11.132812 C 28.652344 12.386719 21.722656 14.59375 15.25 17.632812 C 2.195312 37.363281 -1.34375 56.601562 0.425781 75.570312 C 9.085938 82.035156 17.476562 85.964844 25.726562 88.535156 C 27.765625 85.730469 29.582031 82.75 31.148438 79.609375 C 28.164062 78.476562 25.308594 77.078125 22.613281 75.457031 C 23.328125 74.925781 24.027344 74.371094 24.703125 73.800781 C 41.160156 81.496094 59.035156 81.496094 75.292969 73.800781 C 75.980469 74.371094 76.679688 74.925781 77.386719 75.457031 C 74.679688 77.085938 71.816406 78.484375 68.835938 79.617188 C 70.402344 82.75 72.210938 85.738281 74.257812 88.542969 C 82.515625 85.972656 90.914062 82.042969 99.574219 75.570312 C 101.652344 53.582031 96.027344 34.519531 84.710938 17.617188 Z M 33.386719 63.902344 C 28.449219 63.902344 24.398438 59.292969 24.398438 53.675781 C 24.398438 48.0625 28.363281 43.441406 33.386719 43.441406 C 38.414062 43.441406 42.464844 48.054688 42.378906 53.675781 C 42.386719 59.292969 38.414062 63.902344 33.386719 63.902344 Z M 66.613281 63.902344 C 61.671875 63.902344 57.621094 59.292969 57.621094 53.675781 C 57.621094 48.0625 61.585938 43.441406 66.613281 43.441406 C 71.636719 43.441406 75.6875 48.054688 75.601562 53.675781 C 75.601562 59.292969 71.636719 63.902344 66.613281 63.902344 Z M 66.613281 63.902344 "/>
</g>
</svg>
