<?xml version="1.0" encoding="UTF-8"?>
<svg xmlns="http://www.w3.org/2000/svg" xmlns:xlink="http://www.w3.org/1999/xlink" width="100px" height="100px" viewBox="0 0 100 100" version="1.1">
<defs>
<radialGradient id="radial0" gradientUnits="userSpaceOnUse" cx="0" cy="0" fx="0" fy="0" r="1" gradientTransform="matrix(45.31255,-65.624964,65.624964,45.31255,37.5,71.875)">
<stop offset="0" style="stop-color:rgb(69.411765%,20.784314%,53.72549%);stop-opacity:1;"/>
<stop offset="0.79309" style="stop-color:rgb(77.647059%,18.431373%,58.039216%);stop-opacity:1;"/>
<stop offset="1" style="stop-color:rgb(54.117647%,22.745098%,78.431373%);stop-opacity:1;"/>
</radialGradient>
<radialGradient id="radial1" gradientUnits="userSpaceOnUse" cx="0" cy="0" fx="0" fy="0" r="1" gradientTransform="matrix(29.687443,-64.062365,64.062365,29.687443,34.375,96.875)">
<stop offset="0" style="stop-color:rgb(87.843137%,90.980392%,71.764706%);stop-opacity:1;"/>
<stop offset="0.444662" style="stop-color:rgb(98.431373%,54.117647%,18.039216%);stop-opacity:1;"/>
<stop offset="0.71474" style="stop-color:rgb(88.627451%,25.882353%,36.078431%);stop-opacity:1;"/>
<stop offset="1" style="stop-color:rgb(88.627451%,25.882353%,36.078431%);stop-opacity:0;"/>
</radialGradient>
<radialGradient id="radial2" gradientUnits="userSpaceOnUse" cx="0" cy="0" fx="0" fy="0" r="1" gradientTransform="matrix(120.312583,-17.187507,3.67623,25.733614,1.562506,9.375)">
<stop offset="0.156701" style="stop-color:rgb(25.098039%,41.568627%,86.27451%);stop-opacity:1;"/>
<stop offset="0.467799" style="stop-color:rgb(41.568627%,27.058824%,74.509804%);stop-opacity:1;"/>
<stop offset="1" style="stop-color:rgb(41.568627%,27.058824%,74.509804%);stop-opacity:0;"/>
</radialGradient>
</defs>
<g id="surface1">
<path style=" stroke:none;fill-rule:nonzero;fill:url(#radial0);" d="M 25 6.25 L 75 6.25 C 85.355469 6.25 93.75 14.644531 93.75 25 L 93.75 75 C 93.75 85.355469 85.355469 93.75 75 93.75 L 25 93.75 C 14.644531 93.75 6.25 85.355469 6.25 75 L 6.25 25 C 6.25 14.644531 14.644531 6.25 25 6.25 Z M 25 6.25 "/>
<path style=" stroke:none;fill-rule:nonzero;fill:url(#radial1);" d="M 25 6.25 L 75 6.25 C 85.355469 6.25 93.75 14.644531 93.75 25 L 93.75 75 C 93.75 85.355469 85.355469 93.75 75 93.75 L 25 93.75 C 14.644531 93.75 6.25 85.355469 6.25 75 L 6.25 25 C 6.25 14.644531 14.644531 6.25 25 6.25 Z M 25 6.25 "/>
<path style=" stroke:none;fill-rule:nonzero;fill:url(#radial2);" d="M 25 6.25 L 75 6.25 C 85.355469 6.25 93.75 14.644531 93.75 25 L 93.75 75 C 93.75 85.355469 85.355469 93.75 75 93.75 L 25 93.75 C 14.644531 93.75 6.25 85.355469 6.25 75 L 6.25 25 C 6.25 14.644531 14.644531 6.25 25 6.25 Z M 25 6.25 "/>
<path style=" stroke:none;fill-rule:nonzero;fill:rgb(100%,100%,100%);fill-opacity:1;" d="M 71.875 32.8125 C 71.875 35.402344 69.777344 37.5 67.1875 37.5 C 64.597656 37.5 62.5 35.402344 62.5 32.8125 C 62.5 30.222656 64.597656 28.125 67.1875 28.125 C 69.777344 28.125 71.875 30.222656 71.875 32.8125 Z M 71.875 32.8125 "/>
<path style=" stroke:none;fill-rule:evenodd;fill:rgb(100%,100%,100%);fill-opacity:1;" d="M 50 65.625 C 58.628906 65.625 65.625 58.628906 65.625 50 C 65.625 41.371094 58.628906 34.375 50 34.375 C 41.371094 34.375 34.375 41.371094 34.375 50 C 34.375 58.628906 41.371094 65.625 50 65.625 Z M 50 59.375 C 55.179688 59.375 59.375 55.179688 59.375 50 C 59.375 44.820312 55.179688 40.625 50 40.625 C 44.820312 40.625 40.625 44.820312 40.625 50 C 40.625 55.179688 44.820312 59.375 50 59.375 Z M 50 59.375 "/>
<path style=" stroke:none;fill-rule:evenodd;fill:rgb(100%,100%,100%);fill-opacity:1;" d="M 18.75 48.75 C 18.75 38.25 18.75 33 20.792969 28.988281 C 22.589844 25.460938 25.460938 22.589844 28.988281 20.792969 C 33 18.75 38.25 18.75 48.75 18.75 L 51.25 18.75 C 61.75 18.75 67 18.75 71.011719 20.792969 C 74.539062 22.589844 77.410156 25.460938 79.207031 28.988281 C 81.25 33 81.25 38.25 81.25 48.75 L 81.25 51.25 C 81.25 61.75 81.25 67 79.207031 71.011719 C 77.410156 74.539062 74.539062 77.410156 71.011719 79.207031 C 67 81.25 61.75 81.25 51.25 81.25 L 48.75 81.25 C 38.25 81.25 33 81.25 28.988281 79.207031 C 25.460938 77.410156 22.589844 74.539062 20.792969 71.011719 C 18.75 67 18.75 61.75 18.75 51.25 Z M 48.75 25 L 51.25 25 C 56.605469 25 60.242188 25.003906 63.054688 25.234375 C 65.796875 25.457031 67.199219 25.863281 68.175781 26.363281 C 70.527344 27.5625 72.4375 29.472656 73.636719 31.824219 C 74.136719 32.800781 74.542969 34.203125 74.765625 36.945312 C 74.996094 39.757812 75 43.394531 75 48.75 L 75 51.25 C 75 56.605469 74.996094 60.242188 74.765625 63.054688 C 74.542969 65.796875 74.136719 67.199219 73.636719 68.175781 C 72.4375 70.527344 70.527344 72.4375 68.175781 73.636719 C 67.199219 74.136719 65.796875 74.542969 63.054688 74.765625 C 60.242188 74.996094 56.605469 75 51.25 75 L 48.75 75 C 43.394531 75 39.757812 74.996094 36.945312 74.765625 C 34.203125 74.542969 32.800781 74.136719 31.824219 73.636719 C 29.472656 72.4375 27.5625 70.527344 26.363281 68.175781 C 25.863281 67.199219 25.457031 65.796875 25.234375 63.054688 C 25.003906 60.242188 25 56.605469 25 51.25 L 25 48.75 C 25 43.394531 25.003906 39.757812 25.234375 36.945312 C 25.457031 34.203125 25.863281 32.800781 26.363281 31.824219 C 27.5625 29.472656 29.472656 27.5625 31.824219 26.363281 C 32.800781 25.863281 34.203125 25.457031 36.945312 25.234375 C 39.757812 25.003906 43.394531 25 48.75 25 Z M 48.75 25 "/>
</g>
</svg>
