<?xml version="1.0" encoding="UTF-8"?>
<svg xmlns="http://www.w3.org/2000/svg" xmlns:xlink="http://www.w3.org/1999/xlink" width="100px" height="100px" viewBox="0 0 100 100" version="1.1">
<g id="surface1">
<path style=" stroke:none;fill-rule:nonzero;fill:rgb(7.058824%,45.882353%,69.411767%);fill-opacity:1;" d="M 50 6.25 C 74.164062 6.25 93.75 25.835938 93.75 50 C 93.75 74.164062 74.164062 93.75 50 93.75 C 25.835938 93.75 6.25 74.164062 6.25 50 C 6.25 25.835938 25.835938 6.25 50 6.25 Z M 50 6.25 "/>
<path style=" stroke:none;fill-rule:nonzero;fill:rgb(100%,100%,100%);fill-opacity:1;" d="M 39.433594 30.289062 C 39.433594 33.207031 36.902344 35.574219 33.777344 35.574219 C 30.65625 35.574219 28.125 33.207031 28.125 30.289062 C 28.125 27.367188 30.65625 25 33.777344 25 C 36.902344 25 39.433594 27.367188 39.433594 30.289062 Z M 39.433594 30.289062 "/>
<path style=" stroke:none;fill-rule:nonzero;fill:rgb(100%,100%,100%);fill-opacity:1;" d="M 28.898438 39.460938 L 38.5625 39.460938 L 38.5625 68.75 L 28.898438 68.75 Z M 28.898438 39.460938 "/>
<path style=" stroke:none;fill-rule:nonzero;fill:rgb(100%,100%,100%);fill-opacity:1;" d="M 54.125 39.460938 L 44.457031 39.460938 L 44.457031 68.75 L 54.125 68.75 C 54.125 68.75 54.125 59.53125 54.125 53.765625 C 54.125 50.304688 55.304688 46.828125 60.019531 46.828125 C 65.347656 46.828125 65.316406 51.359375 65.289062 54.867188 C 65.257812 59.453125 65.335938 64.132812 65.335938 68.75 L 75 68.75 L 75 53.292969 C 74.917969 43.421875 72.347656 38.875 63.886719 38.875 C 58.859375 38.875 55.746094 41.15625 54.125 43.21875 Z M 54.125 39.460938 "/>
</g>
</svg>
