<?xml version="1.0" encoding="UTF-8"?>
<svg xmlns="http://www.w3.org/2000/svg" xmlns:xlink="http://www.w3.org/1999/xlink" width="100px" height="100px" viewBox="0 0 100 100" version="1.1">
<g id="surface1">
<path style=" stroke:none;fill-rule:evenodd;fill:rgb(12.156863%,41.960785%,96.470588%);fill-opacity:1;" d="M 50.035156 3.523438 C 7.433594 2.886719 -12.164062 54.113281 18.15625 81.960938 C 18.910156 82.640625 19.371094 83.585938 19.40625 84.605469 L 19.660156 92.871094 C 19.746094 95.511719 22.46875 97.222656 24.878906 96.164062 L 34.101562 92.097656 C 34.886719 91.75 35.753906 91.6875 36.578125 91.910156 C 65.933594 100.308594 97.074219 79.710938 96.515625 48.609375 C 96.515625 22.703125 76.222656 3.523438 50.035156 3.523438 Z M 78.527344 37.964844 L 64.589844 60.078125 C 62.375 63.589844 57.617188 64.46875 54.296875 61.976562 L 43.210938 53.660156 C 42.1875 52.894531 40.792969 52.90625 39.78125 53.671875 L 24.808594 65.03125 C 22.8125 66.550781 20.195312 64.152344 21.542969 62.035156 L 35.484375 39.921875 C 37.699219 36.40625 42.453125 35.527344 45.777344 38.019531 L 56.863281 46.335938 C 57.886719 47.101562 59.28125 47.089844 60.292969 46.328125 L 75.265625 34.964844 C 77.261719 33.445312 79.875 35.84375 78.527344 37.964844 Z M 78.527344 37.964844 "/>
</g>
</svg>
