<?xml version="1.0" encoding="UTF-8"?>
<svg xmlns="http://www.w3.org/2000/svg" xmlns:xlink="http://www.w3.org/1999/xlink" width="100px" height="100px" viewBox="0 0 100 100" version="1.1">
<g id="surface1">
<path style=" stroke:none;fill-rule:nonzero;fill:rgb(0%,0%,0%);fill-opacity:1;" d="M 98.699219 73.539062 L 98.695312 73.539062 C 94.894531 66.363281 82.769531 59.113281 81.351562 58.28125 C 78.539062 56.679688 75.550781 56.1875 72.953125 56.914062 C 70.917969 57.476562 69.25 58.734375 68.109375 60.554688 C 66.527344 62.445312 64.5625 64.667969 64.140625 65.039062 C 60.914062 67.230469 58.875 67.019531 56.074219 64.210938 L 35.785156 43.925781 C 32.980469 41.121094 32.773438 39.085938 34.855469 36.003906 C 35.324219 35.445312 37.554688 33.472656 39.445312 31.890625 C 41.265625 30.75 42.519531 29.082031 43.085938 27.046875 C 43.804688 24.441406 43.316406 21.460938 41.691406 18.601562 C 40.886719 17.230469 33.636719 5.101562 26.457031 1.300781 C 22.117188 -0.992188 16.871094 -0.203125 13.402344 3.269531 L 8.917969 7.746094 C 0.820312 15.84375 -9.035156 33.15625 15.914062 58.113281 L 41.886719 84.085938 C 53.839844 96.035156 64.03125 100 72.304688 100 C 81.308594 100 88.027344 95.300781 92.25 91.082031 L 96.726562 86.601562 C 100.199219 83.128906 100.992188 77.878906 98.699219 73.539062 Z M 98.699219 73.539062 "/>
</g>
</svg>
