<?xml version="1.0" encoding="UTF-8"?>
<svg xmlns="http://www.w3.org/2000/svg" xmlns:xlink="http://www.w3.org/1999/xlink" width="100px" height="100px" viewBox="0 0 100 100" version="1.1">
<g id="surface1">
<path style=" stroke:none;fill-rule:evenodd;fill:rgb(87.843138%,11.764706%,35.294119%);fill-opacity:1;" d="M 15.445312 70.738281 C 20.515625 70.722656 24.621094 66.613281 24.632812 61.542969 L 24.632812 52.355469 L 15.445312 52.355469 C 10.375 52.367188 6.265625 56.46875 6.25 61.539062 C 6.257812 66.605469 10.367188 70.71875 15.4375 70.726562 Z M 38.457031 52.351562 C 33.386719 52.363281 29.277344 56.472656 29.269531 61.542969 L 29.269531 84.5625 C 29.28125 89.632812 33.394531 93.738281 38.457031 93.75 C 43.523438 93.734375 47.628906 89.632812 47.644531 84.5625 L 47.644531 61.539062 C 47.628906 56.46875 43.523438 52.363281 38.457031 52.351562 Z M 38.457031 52.351562 "/>
<path style=" stroke:none;fill-rule:evenodd;fill:rgb(21.176471%,77.254903%,94.117647%);fill-opacity:1;" d="M 29.269531 15.445312 C 29.273438 20.511719 33.386719 24.625 38.457031 24.632812 L 47.644531 24.632812 L 47.644531 15.445312 C 47.632812 10.375 43.53125 6.265625 38.460938 6.25 C 33.394531 6.265625 29.289062 10.367188 29.273438 15.4375 Z M 47.644531 38.457031 C 47.628906 33.386719 43.523438 29.28125 38.457031 29.269531 L 15.4375 29.269531 C 10.367188 29.28125 6.265625 33.386719 6.25 38.457031 C 6.261719 43.53125 10.375 47.636719 15.4375 47.644531 L 38.460938 47.644531 C 43.53125 47.628906 47.636719 43.523438 47.648438 38.457031 Z M 47.644531 38.457031 "/>
<path style=" stroke:none;fill-rule:evenodd;fill:rgb(18.039216%,71.372551%,49.019608%);fill-opacity:1;" d="M 61.542969 47.648438 C 66.613281 47.636719 70.71875 43.53125 70.730469 38.460938 L 70.730469 15.4375 C 70.71875 10.371094 66.617188 6.265625 61.550781 6.25 C 56.480469 6.265625 52.375 10.367188 52.363281 15.4375 L 52.363281 38.460938 C 52.375 43.523438 56.480469 47.636719 61.550781 47.648438 Z M 84.554688 29.269531 C 79.488281 29.28125 75.382812 33.386719 75.367188 38.457031 L 75.367188 47.644531 L 84.554688 47.644531 C 89.625 47.632812 93.734375 43.53125 93.75 38.460938 C 93.734375 33.394531 89.632812 29.289062 84.5625 29.273438 Z M 84.554688 29.269531 "/>
<path style=" stroke:none;fill-rule:evenodd;fill:rgb(92.54902%,69.803923%,18.039216%);fill-opacity:1;" d="M 52.355469 61.542969 C 52.367188 66.613281 56.476562 70.726562 61.542969 70.730469 L 84.5625 70.730469 C 89.628906 70.71875 93.734375 66.617188 93.75 61.550781 C 93.734375 56.480469 89.632812 52.375 84.5625 52.363281 L 61.542969 52.363281 C 56.476562 52.375 52.371094 56.480469 52.355469 61.550781 Z M 70.730469 84.554688 C 70.71875 79.488281 66.613281 75.382812 61.542969 75.367188 L 52.355469 75.367188 L 52.355469 84.554688 C 52.367188 89.632812 56.476562 93.738281 61.542969 93.742188 C 66.613281 93.730469 70.71875 89.625 70.730469 84.554688 Z M 70.730469 84.554688 "/>
</g>
</svg>
