<?xml version="1.0" encoding="UTF-8"?>
<svg xmlns="http://www.w3.org/2000/svg" xmlns:xlink="http://www.w3.org/1999/xlink" width="100px" height="100px" viewBox="0 0 100 100" version="1.1">
<g id="surface1">
<path style=" stroke:none;fill-rule:nonzero;fill:rgb(0%,0%,0%);fill-opacity:1;" d="M 50 7.691406 C 24.421875 7.691406 4.039062 26.539062 4.039062 49.808594 C 4.039062 57.117188 6.152344 64.039062 9.617188 70.191406 C 10.191406 71.152344 10.382812 72.308594 10 73.460938 L 4.039062 89.808594 C 3.460938 91.347656 5 92.691406 6.539062 92.308594 L 23.078125 85.960938 C 24.039062 85.578125 25.191406 85.769531 26.347656 86.347656 C 33.269531 90.191406 41.539062 92.5 50.382812 92.5 C 75.578125 92.308594 96.152344 73.460938 96.152344 50.191406 C 95.960938 26.539062 75.382812 7.691406 50 7.691406 Z M 31.539062 56.921875 C 30.960938 57.882812 30.382812 58.847656 29.617188 59.421875 C 28.847656 60 27.882812 60.578125 26.730469 60.960938 C 25.769531 61.347656 24.617188 61.347656 23.460938 61.347656 C 21.921875 61.347656 20.578125 61.152344 19.230469 60.578125 C 17.882812 60 16.539062 59.230469 15.578125 58.078125 L 15.191406 57.691406 C 15 57.5 15.191406 57.117188 15.578125 56.730469 L 18.652344 53.847656 C 19.039062 53.460938 19.421875 53.460938 19.617188 53.652344 C 19.808594 53.847656 20 54.230469 20 54.230469 C 20.382812 54.808594 20.960938 55.191406 21.539062 55.578125 C 22.5 56.152344 23.460938 56.152344 24.617188 55.960938 C 25 55.960938 25.191406 55.769531 25.578125 55.578125 C 25.769531 55.382812 25.960938 55.191406 26.152344 55 C 26.347656 54.808594 26.347656 54.421875 26.347656 54.230469 C 26.347656 53.460938 26.152344 53.269531 25.960938 53.078125 C 25.578125 52.691406 25 52.308594 24.230469 52.117188 C 23.460938 51.921875 22.691406 51.539062 21.730469 51.347656 C 20.769531 50.960938 19.808594 50.578125 19.039062 50.191406 C 18.078125 49.617188 17.5 48.847656 16.921875 48.078125 C 16.347656 47.117188 15.960938 45.960938 15.960938 44.421875 C 15.960938 43.078125 16.152344 41.921875 16.730469 40.960938 C 17.308594 40 17.882812 39.230469 18.847656 38.652344 C 19.617188 38.078125 20.578125 37.5 21.730469 37.308594 C 24.039062 36.730469 26.347656 36.730469 28.652344 37.5 C 29.808594 37.882812 30.960938 38.652344 31.539062 39.039062 L 32.117188 39.421875 C 32.5 39.617188 32.308594 40.191406 31.921875 40.578125 L 29.039062 43.460938 C 28.652344 43.847656 28.078125 43.847656 27.691406 43.460938 C 27.308594 43.269531 27.117188 42.882812 26.921875 42.882812 C 25.960938 42.308594 24.617188 42.117188 23.460938 42.308594 C 23.078125 42.308594 22.882812 42.5 22.691406 42.691406 C 22.5 42.882812 22.308594 43.078125 22.117188 43.269531 C 21.921875 43.460938 21.921875 43.652344 21.921875 44.039062 C 21.921875 44.617188 22.117188 44.808594 22.308594 45 C 22.691406 45.382812 23.269531 45.578125 24.039062 45.960938 C 24.808594 46.152344 25.578125 46.539062 26.539062 46.730469 C 27.5 47.117188 28.460938 47.5 29.230469 47.882812 C 30.191406 48.460938 30.769531 49.230469 31.347656 50 C 31.921875 50.960938 32.308594 52.117188 32.308594 53.652344 C 32.308594 54.808594 32.117188 55.960938 31.539062 56.921875 Z M 63.460938 59.617188 C 63.460938 60.769531 62.5 61.539062 61.347656 61.539062 L 59.421875 61.539062 C 58.269531 61.539062 57.691406 60.769531 57.691406 59.617188 L 57.691406 48.269531 C 57.691406 47.117188 56.152344 46.921875 55.769531 47.882812 L 52.5 56.539062 C 52.308594 57.308594 51.539062 57.691406 50.769531 57.691406 L 49.421875 57.691406 C 48.652344 57.691406 47.882812 57.117188 47.691406 56.539062 L 44.230469 47.882812 C 43.847656 46.921875 42.308594 47.117188 42.308594 48.269531 L 42.308594 59.617188 C 42.308594 60.769531 41.347656 61.539062 40.191406 61.539062 L 38.269531 61.539062 C 37.117188 61.539062 36.539062 60.769531 36.539062 59.617188 L 36.539062 38.460938 C 36.539062 37.308594 37.308594 36.539062 38.269531 36.539062 L 43.269531 36.539062 C 44.039062 36.539062 44.808594 37.117188 45 37.691406 L 48.847656 47.691406 C 49.230469 48.460938 50.382812 48.460938 50.578125 47.691406 L 54.421875 37.691406 C 54.617188 36.921875 55.382812 36.539062 56.152344 36.539062 L 61.347656 36.539062 C 62.5 36.539062 63.460938 37.308594 63.460938 38.460938 Z M 83.652344 57.117188 C 83.078125 58.078125 82.5 59.039062 81.539062 59.617188 C 80.769531 60.191406 79.808594 60.769531 78.652344 61.152344 C 77.5 61.539062 76.539062 61.539062 75.382812 61.539062 C 73.847656 61.539062 72.5 61.347656 71.152344 60.769531 C 69.808594 60.191406 68.460938 59.421875 67.5 58.269531 L 67.117188 57.882812 C 66.921875 57.691406 67.117188 57.308594 67.5 56.921875 L 70.578125 54.039062 C 70.960938 53.652344 71.347656 53.652344 71.539062 53.847656 C 71.730469 54.039062 71.921875 54.421875 71.921875 54.421875 C 72.308594 55 72.882812 55.382812 73.460938 55.769531 C 74.421875 56.347656 75.578125 56.347656 76.539062 56.152344 C 76.921875 55.960938 77.308594 55.960938 77.5 55.769531 C 77.691406 55.578125 77.882812 55.382812 78.078125 55.191406 C 78.269531 55 78.269531 54.617188 78.269531 54.421875 C 78.269531 53.652344 78.078125 53.460938 77.882812 53.269531 C 77.5 52.882812 76.921875 52.5 76.152344 52.308594 C 75.382812 52.117188 74.617188 51.730469 73.652344 51.539062 C 72.691406 51.152344 71.730469 50.769531 70.960938 50.382812 C 70 49.808594 69.230469 49.039062 68.652344 48.269531 C 68.078125 47.308594 67.691406 46.152344 67.691406 44.617188 C 67.691406 43.269531 67.882812 42.117188 68.460938 41.152344 C 69.039062 40.191406 69.617188 39.421875 70.578125 38.847656 C 71.347656 38.269531 72.5 37.691406 73.460938 37.5 C 75.769531 36.921875 78.078125 36.921875 80.382812 37.691406 C 81.539062 38.078125 82.691406 38.847656 83.269531 39.421875 L 83.847656 40 C 84.230469 40.191406 84.039062 40.769531 83.652344 41.152344 L 80.769531 44.039062 C 80.382812 44.421875 79.808594 44.421875 79.421875 44.039062 C 79.039062 43.847656 78.847656 43.460938 78.652344 43.460938 C 77.691406 42.882812 76.347656 42.691406 75.191406 42.882812 C 74.808594 42.882812 74.617188 43.078125 74.421875 43.269531 C 74.230469 43.460938 74.039062 43.652344 73.847656 43.847656 C 73.652344 44.039062 73.652344 44.421875 73.652344 44.617188 C 73.652344 45.191406 73.847656 45.382812 74.039062 45.578125 C 74.421875 45.960938 75 46.152344 75.769531 46.539062 C 76.539062 46.730469 77.308594 47.117188 78.269531 47.308594 C 79.230469 47.691406 80.191406 48.078125 80.960938 48.460938 C 81.921875 49.039062 82.5 49.808594 83.269531 50.578125 C 83.847656 51.539062 84.230469 52.691406 84.230469 54.230469 C 84.421875 54.808594 84.230469 56.152344 83.652344 57.117188 Z M 83.652344 57.117188 "/>
</g>
</svg>
