<?xml version="1.0" encoding="UTF-8"?>
<svg xmlns="http://www.w3.org/2000/svg" xmlns:xlink="http://www.w3.org/1999/xlink" width="100px" height="100px" viewBox="0 0 100 100" version="1.1">
<g id="surface1">
<path style=" stroke:none;fill-rule:evenodd;fill:rgb(40.392157%,75.686276%,36.862746%);fill-opacity:1;" d="M 49.984375 0 C 22.421875 0 0 22.425781 0 50 C 0 60.933594 3.527344 71.074219 9.519531 79.304688 L 3.289062 97.882812 L 22.507812 91.742188 C 30.414062 96.972656 39.847656 100 50.015625 100 C 77.578125 100 100 77.570312 100 50 C 100 22.429688 77.578125 0 50.015625 0 Z M 36.027344 25.398438 C 35.058594 23.074219 34.324219 22.988281 32.855469 22.929688 C 32.355469 22.898438 31.796875 22.871094 31.179688 22.871094 C 29.269531 22.871094 27.269531 23.429688 26.066406 24.664062 C 24.597656 26.160156 20.953125 29.660156 20.953125 36.832031 C 20.953125 44.003906 26.183594 50.941406 26.886719 51.910156 C 27.621094 52.878906 37.085938 67.8125 51.777344 73.898438 C 63.265625 78.660156 66.675781 78.21875 69.292969 77.660156 C 73.113281 76.839844 77.902344 74.015625 79.105469 70.605469 C 80.3125 67.195312 80.3125 64.285156 79.957031 63.667969 C 79.605469 63.050781 78.636719 62.699219 77.167969 61.964844 C 75.699219 61.230469 68.558594 57.703125 67.207031 57.230469 C 65.882812 56.730469 64.621094 56.910156 63.621094 58.320312 C 62.210938 60.289062 60.828125 62.289062 59.710938 63.492188 C 58.832031 64.433594 57.390625 64.550781 56.1875 64.050781 C 54.570312 63.375 50.042969 61.785156 44.460938 56.820312 C 40.140625 52.96875 37.203125 48.179688 36.351562 46.738281 C 35.496094 45.269531 36.261719 44.414062 36.9375 43.621094 C 37.671875 42.710938 38.378906 42.066406 39.113281 41.210938 C 39.847656 40.359375 40.257812 39.917969 40.726562 38.917969 C 41.226562 37.949219 40.875 36.949219 40.523438 36.214844 C 40.171875 35.480469 37.230469 28.308594 36.027344 25.398438 Z M 36.027344 25.398438 "/>
</g>
</svg>
