<?xml version="1.0" encoding="UTF-8"?>
<svg xmlns="http://www.w3.org/2000/svg" xmlns:xlink="http://www.w3.org/1999/xlink" width="100px" height="100px" viewBox="0 0 100 100" version="1.1">
<g id="surface1">
<path style=" stroke:none;fill-rule:nonzero;fill:rgb(16.078432%,58.431375%,80.000001%);fill-opacity:1;" d="M 100 50 C 100 22.386719 77.613281 0 50 0 C 22.386719 0 0 22.386719 0 50 C 0 77.613281 22.386719 100 50 100 C 77.613281 100 100 77.613281 100 50 Z M 100 50 "/>
<path style=" stroke:none;fill-rule:nonzero;fill:rgb(96.078432%,96.078432%,96.078432%);fill-opacity:1;" d="M 45.3125 48.148438 C 45.3125 40.53125 45.3125 32.914062 45.3125 25.300781 C 37.5 26.535156 31.144531 27.765625 23.4375 29 C 23.4375 36.769531 23.4375 40.652344 23.4375 48.425781 C 31.144531 48.335938 37.5 48.238281 45.3125 48.148438 Z M 45.3125 48.148438 "/>
<path style=" stroke:none;fill-rule:nonzero;fill:rgb(96.078432%,96.078432%,96.078432%);fill-opacity:1;" d="M 48.4375 48.101562 C 56.25 48.007812 65.730469 47.917969 73.4375 47.824219 C 73.4375 38.882812 73.4375 29.941406 73.4375 21 C 65.730469 22.234375 56.25 23.464844 48.4375 24.699219 C 48.4375 32.5 48.4375 40.300781 48.4375 48.101562 Z M 48.4375 48.101562 "/>
<path style=" stroke:none;fill-rule:nonzero;fill:rgb(96.078432%,96.078432%,96.078432%);fill-opacity:1;" d="M 48.75 51.898438 C 48.746094 59.699219 48.75 67.5 48.75 75.300781 C 56.457031 76.535156 65.726562 77.765625 73.4375 79 C 73.4375 70.058594 73.4375 61.117188 73.4375 52.175781 C 65.730469 52.082031 56.460938 51.992188 48.75 51.898438 Z M 48.75 51.898438 "/>
<path style=" stroke:none;fill-rule:nonzero;fill:rgb(96.078432%,96.078432%,96.078432%);fill-opacity:1;" d="M 45.3125 51.851562 C 37.5 51.757812 31.144531 51.667969 23.4375 51.574219 C 23.4375 59.34375 23.4375 63.230469 23.4375 71 C 31.144531 72.234375 37.5 73.464844 45.3125 74.699219 C 45.3125 67.085938 45.3125 59.46875 45.3125 51.851562 Z M 45.3125 51.851562 "/>
</g>
</svg>
