<svg width="131" height="39" viewBox="0 0 131 39" fill="none" xmlns="http://www.w3.org/2000/svg">
<path d="M13.1352 8.85974L0.804196 19.3271C0.375292 19.6912 0.0893551 21.2234 0 21.944V32.673C0.857809 34.9758 3.21679 34.3304 4.28905 33.7198C7.50583 31.1029 14.2611 25.5552 15.5478 24.2991C16.8345 23.043 17.1562 23.0779 17.1562 23.2524L17.4243 32.673C18.2821 36.0226 21.1772 34.2431 22.5175 32.9347C25.3769 30.6668 31.5245 25.7122 33.2401 24.0374C34.9557 22.3627 35.2059 23.6885 35.1166 24.5608V33.1964C36.1888 35.9179 38.6014 34.6793 39.6737 33.7198L48.5198 26.1309C51.3077 23.6187 52.0047 21.5951 52.0047 20.8972V10.1682C50.9324 7.656 48.6986 8.77252 47.7157 9.6448C45.035 11.8255 39.1376 16.7103 36.993 18.8038C34.8485 20.8972 34.6698 19.5016 34.8485 18.5421C34.9379 17.2336 35.063 13.8317 34.8485 10.6915C34.6341 7.55132 31.5424 8.68529 30.0233 9.6448L17.1562 19.8505C17.2455 18.1059 17.3706 13.8317 17.1562 10.6915C16.9417 7.55132 14.3862 8.16192 13.1352 8.85974Z" fill="#5DD89D"/>
<path d="M81.3751 30H74.4978L77.3479 16.6172L70.0059 30H65.7928L64.3988 16.1525L61.4248 30H58.6367L62.8188 10.3285H70.7184L71.6788 21.4189L77.6267 10.3285H85.5882L81.3751 30ZM91.4664 30H84.775L88.9571 10.3285H95.6795L91.4664 30ZM99.0615 10.3285H105.784L102.128 27.3978H108.417L107.89 30H94.8794L99.0615 10.3285ZM121.316 10.0187C123.092 10.0187 124.528 10.2459 125.622 10.7003C126.737 11.1546 127.615 11.8568 128.255 12.8068C128.668 13.447 128.989 14.1699 129.216 14.9753C129.443 15.7808 129.556 16.7101 129.556 17.7634C129.556 18.6721 129.474 19.5808 129.309 20.4895C129.143 21.3982 128.906 22.276 128.596 23.1227C128.307 23.9488 127.946 24.7336 127.512 25.4771C127.099 26.1999 126.634 26.8402 126.118 27.3978C125.147 28.4511 124.022 29.1946 122.741 29.6283C121.481 30.0413 119.922 30.2478 118.063 30.2478C116.267 30.2478 114.821 30.062 113.726 29.6902C112.632 29.3185 111.764 28.7195 111.124 27.8934C110.67 27.3152 110.308 26.582 110.04 25.694C109.792 24.8059 109.668 23.6907 109.668 22.3483C109.668 20.0558 110.071 18.0112 110.876 16.2145C111.702 14.397 112.869 12.9617 114.377 11.9084C115.286 11.2682 116.298 10.7932 117.413 10.4834C118.528 10.1736 119.829 10.0187 121.316 10.0187ZM117.816 28.0793C118.291 28.0793 118.735 27.8728 119.148 27.4597C119.581 27.026 119.974 26.4581 120.325 25.7559C120.697 25.0331 121.027 24.2173 121.316 23.3086C121.626 22.3999 121.884 21.4602 122.091 20.4895C122.297 19.5189 122.452 18.5585 122.555 17.6085C122.679 16.6378 122.741 15.7601 122.741 14.9753C122.741 13.9014 122.628 13.1682 122.4 12.7758C122.194 12.3628 121.884 12.1563 121.471 12.1563C120.996 12.1563 120.542 12.3628 120.108 12.7758C119.674 13.1889 119.261 13.7465 118.869 14.4487C118.497 15.1302 118.156 15.9253 117.846 16.834C117.557 17.7221 117.299 18.6411 117.072 19.5911C116.865 20.5412 116.7 21.4809 116.576 22.4102C116.473 23.3396 116.421 24.1967 116.421 24.9814C116.421 26.1586 116.545 26.9744 116.793 27.4288C117.062 27.8625 117.402 28.0793 117.816 28.0793Z" fill="#072032"/>
</svg>
