<svg width="32" height="32" viewBox="0 0 32 32" fill="none" xmlns="http://www.w3.org/2000/svg">
<path d="M15.2402 4.66362L14.8099 11.9935L10.6746 3.6847L13.8069 12.1469L8.5202 7.4459C6.33168 5.50111 6.89031 1.91543 9.58734 0.778047C9.63248 0.75899 9.67664 0.739928 9.72178 0.721874C12.4499 -0.400469 15.4137 1.71885 15.2402 4.66362Z" fill="#06CE71"/>
<path d="M27.3353 15.2402L20.0044 14.8099L28.3142 10.6746L19.853 13.8059L24.553 8.51917C26.4978 6.33166 30.0835 6.88931 31.2218 9.58734C31.2399 9.63148 31.259 9.67662 31.278 9.72175C32.4004 12.4499 30.28 15.4137 27.3353 15.2402Z" fill="#06CE71"/>
<path d="M23.4797 7.4459L17.9904 12.3264L20.9422 3.52623L17.1739 11.7247L16.7587 4.66362C16.5862 1.71885 19.549 -0.400469 22.2771 0.721874C22.3223 0.739928 22.3674 0.75899 22.4125 0.778047C25.1096 1.91543 25.6672 5.50111 23.4797 7.4459Z" fill="#06CE71"/>
<path d="M3.52635 11.0568L11.7238 14.8251L4.66372 15.2403C1.71895 15.4138 -0.400345 12.45 0.721998 9.72188C0.740052 9.67674 0.759114 9.6316 0.778171 9.58747C1.91556 6.88943 5.50124 6.33177 7.44603 8.52029L12.3265 14.0086L3.52635 11.0568Z" fill="#06CE71"/>
<path d="M22.4125 31.2214C22.3674 31.2405 22.3223 31.2595 22.2771 31.2776C19.549 32.3999 16.5862 30.2806 16.7587 27.3358L17.189 20.005L21.3243 28.3147L18.193 19.8525L23.4797 24.5535C25.6672 26.4983 25.1096 30.084 22.4125 31.2214Z" fill="#06CE71"/>
<path d="M31.278 22.2776C31.2589 22.3227 31.2399 22.3678 31.2218 22.4129C30.0834 25.11 26.4978 25.6677 24.553 23.4801L19.6724 17.9898L28.4726 20.9426L20.2752 17.1743L27.3352 16.7591C30.28 16.5856 32.4003 19.5494 31.278 22.2776Z" fill="#06CE71"/>
<path d="M9.72186 31.2774C9.67672 31.2593 9.63256 31.2402 9.58742 31.2212C6.89039 30.0838 6.33176 26.4981 8.52028 24.5533L14.0096 19.6728L11.0578 28.473L14.8261 20.2766L15.2403 27.3356C15.4138 30.2804 12.45 32.3997 9.72186 31.2774Z" fill="#06CE71"/>
<path d="M12.146 18.1934L7.44603 23.4801C5.50124 25.6677 1.91556 25.11 0.778171 22.4129C0.759114 22.3678 0.740052 22.3227 0.721998 22.2776C-0.400345 19.5494 1.71895 16.5856 4.66372 16.7591L11.9945 17.1894L3.68483 21.3247L12.146 18.1934Z" fill="#06CE71"/>
</svg>
